SplineFontDB: 3.2
FontName: Barlow-Bold
FullName: Barlow Bold
FamilyName: Barlow
Weight: Bold
Copyright: Copyright 2017 The Barlow Project Authors \\(https://github.com/jpt/barlow\\)
Version: 001.422
ItalicAngle: 0
UnderlinePosition: -100
UnderlineWidth: 50
Ascent: 800
Descent: 200
InvalidEm: 0
sfntRevision: 0x00016c08
LayerCount: 2
Layer: 0 0 "Back" 1
Layer: 1 0 "Fore" 0
XUID: [1021 912 426210005 8987]
StyleMap: 0x0020
FSType: 0
OS2Version: 4
OS2_WeightWidthSlopeOnly: 1
OS2_UseTypoMetrics: 1
CreationTime: 1563981377
ModificationTime: 1616880961
PfmFamily: 81
TTFWeight: 700
TTFWidth: 5
LineGap: 0
VLineGap: 0
Panose: 0 0 8 0 0 0 0 0 0 0
OS2TypoAscent: 1000
OS2TypoAOffset: 0
OS2TypoDescent: -200
OS2TypoDOffset: 0
OS2TypoLinegap: 0
OS2WinAscent: 1112
OS2WinAOffset: 0
OS2WinDescent: 249
OS2WinDOffset: 0
HheadAscent: 1000
HheadAOffset: 0
HheadDescent: -200
HheadDOffset: 0
OS2SubXSize: 650
OS2SubYSize: 600
OS2SubXOff: 0
OS2SubYOff: 75
OS2SupXSize: 650
OS2SupYSize: 600
OS2SupXOff: 0
OS2SupYOff: 350
OS2StrikeYSize: 50
OS2StrikeYPos: 308
OS2CapHeight: 700
OS2XHeight: 514
OS2Vendor: 'TRBY'
OS2CodePages: 20000193.00000000
OS2UnicodeRanges: 20000007.00000000.00000000.00000000
Lookup: 1 0 0 "'aalt' Access All Alternates in Latin lookup 0" { "'aalt' Access All Alternates in Latin lookup 0 subtable"  } ['aalt' ('DFLT' <'dflt' > 'latn' <'AZE ' 'CAT ' 'CRT ' 'KAZ ' 'TAT ' 'TRK ' 'dflt' > ) ]
Lookup: 3 0 0 "'aalt' Access All Alternates in Latin lookup 1" { "'aalt' Access All Alternates in Latin lookup 1 subtable"  } ['aalt' ('DFLT' <'dflt' > 'latn' <'AZE ' 'CAT ' 'CRT ' 'KAZ ' 'TAT ' 'TRK ' 'dflt' > ) ]
Lookup: 6 0 0 "'ccmp' Glyph Composition/Decomposition in Latin lookup 2" { "'ccmp' Glyph Composition/Decomposition in Latin lookup 2 contextual 0"  "'ccmp' Glyph Composition/Decomposition in Latin lookup 2 contextual 1"  } ['ccmp' ('DFLT' <'dflt' > 'latn' <'AZE ' 'CAT ' 'CRT ' 'KAZ ' 'TAT ' 'TRK ' 'dflt' > ) ]

StartChar: .notdef
Encoding: 65536 -1 0
Width: 605
Flags: MW
HStem: 90 112<270.5 303> 507 92<283 322>
VStem: 136 101<449 453 441 496.5> 231 112<130 163> 240 100<262 275 258.5 282 258.5 331.5> 366 102<421 471.5>
LayerCount: 2
Fore
SplineSet
66 5 m 2xe4
 66 2 68 0 71 0 c 2
 535 0 l 2
 538 0 540 2 540 5 c 2
 540 695 l 2
 540 698 538 700 535 700 c 2
 71 700 l 2
 68 700 66 698 66 695 c 2
 66 5 l 2xe4
252 250 m 2xcc
 245 250 240 255 240 262 c 2
 240 282 l 2xcc
 240 381 366 386 366 456 c 0
 366 487 341 507 303 507 c 0
 263 507 237 484 237 453 c 2
 237 445 l 2
 237 437 233 433 225 433 c 2
 148 436 l 2
 141 436 136 442 136 449 c 2
 136 453 l 2
 136 540 205 599 306 599 c 0xe4
 404 599 468 543 468 460 c 0
 468 341 340 340 340 275 c 2
 340 262 l 2
 340 255 335 250 328 250 c 2
 252 250 l 2xcc
287 90 m 0xd4
 254 90 231 114 231 146 c 0
 231 180 254 202 287 202 c 0
 320 202 343 180 343 146 c 0
 343 114 319 90 287 90 c 0xd4
EndSplineSet
Validated: 9
EndChar

StartChar: A
Encoding: 65 65 4
Width: 643
GlyphClass: 2
Flags: MW
HStem: 0 21G<20 24 24 151 488.5 492 492 619> 112 109<196.5 409 233 409 409 410.5 233 444> 527.38 172.62 680 20G<243 400 400 403.5>
VStem: 13.17 616.65
AnchorPoint: "Anchor-7" 320 700 basechar 0
AnchorPoint: "Anchor-6" 322 0 basechar 0
LayerCount: 2
Fore
SplineSet
492 0 m 2xd8
 485 0 481 4 479 10 c 2
 449 108 l 2
 448 110 447 112 444 112 c 2
 198 112 l 2
 195 112 194 110 193 108 c 2
 164 10 l 2
 162 4 158 0 151 0 c 2
 24 0 l 2
 16 0 11 5 14 14 c 2
 230 690 l 2
 232 696 236 700 243 700 c 2
 400 700 l 2
 407 700 411 696 413 690 c 2
 629 14 l 2
 632 5 627 0 619 0 c 2
 492 0 l 2xd8
229 227 m 2
 228 223 230 221 233 221 c 2
 409 221 l 2
 412 221 414 223 413 227 c 2
 323 524 l 2
 322 529 318 528 317 524 c 2xe8
 229 227 l 2
EndSplineSet
Validated: 1048577
Substitution2: "Single Substitution lookup 25 subtable" ordfeminine
Substitution2: "'c2sc' Capitals to Small Capitals in Latin lookup 19 subtable" a.sc
AlternateSubs2: "'aalt' Access All Alternates in Latin lookup 1 subtable" ordfeminine a.sc
EndChar

StartChar: Aacute
Encoding: 193 193 5
Width: 643
GlyphClass: 2
Flags: MW
HStem: 0 21G<20 24 24 151 488.5 492 492 619> 112 109<196.5 409 233 409 409 410.5 233 444> 527.38 172.62 680 20G<243 400 400 403.5> 762 124<259.5 425 325 348>
VStem: 13.17 616.65
AnchorPoint: "Anchor-7" 352 886 basechar 0
AnchorPoint: "Anchor-6" 322 0 basechar 0
LayerCount: 2
Fore
SplineSet
425 886 m 2xdc
 435 886 438 879 433 871 c 2
 362 770 l 2
 359 765 354 762 348 762 c 2
 264 762 l 2
 255 762 252 768 256 776 c 2
 310 877 l 2
 313 883 319 886 325 886 c 2
 425 886 l 2xdc
492 0 m 2
 485 0 481 4 479 10 c 2
 449 108 l 2
 448 110 447 112 444 112 c 2
 198 112 l 2
 195 112 194 110 193 108 c 2
 164 10 l 2
 162 4 158 0 151 0 c 2
 24 0 l 2
 16 0 11 5 14 14 c 2
 230 690 l 2
 232 696 236 700 243 700 c 2
 400 700 l 2
 407 700 411 696 413 690 c 2
 629 14 l 2
 632 5 627 0 619 0 c 2
 492 0 l 2
229 227 m 2
 228 223 230 221 233 221 c 2
 409 221 l 2
 412 221 414 223 413 227 c 2
 323 524 l 2
 322 529 318 528 317 524 c 2xec
 229 227 l 2
EndSplineSet
Validated: 1048577
Substitution2: "'c2sc' Capitals to Small Capitals in Latin lookup 19 subtable" aacute.sc
Substitution2: "'aalt' Access All Alternates in Latin lookup 0 subtable" aacute.sc
EndChar

StartChar: Abreve
Encoding: 258 258 6
Width: 643
GlyphClass: 2
Flags: MW
HStem: 0 21G<20 24 24 151 488.5 492 492 619> 112 109<196.5 409 233 409 409 410.5 233 444> 527.38 172.62 680 20G<243 400 400 403.5> 743 73<302.5 337.5 302.5 363.5>
VStem: 13.17 616.65
AnchorPoint: "Anchor-7" 320 700 basechar 0
AnchorPoint: "Anchor-6" 322 0 basechar 0
LayerCount: 2
Fore
SplineSet
320 743 m 0xdc
 234 743 169 792 163 862 c 0
 162 870 166 874 174 874 c 2
 241 874 l 2
 248 874 252 870 253 863 c 0
 259 835 285 816 320 816 c 0
 355 816 382 835 388 863 c 0
 389 870 393 874 400 874 c 2
 466 874 l 2
 474 874 478 870 478 864 c 0
 472 793 407 743 320 743 c 0xdc
492 0 m 2
 485 0 481 4 479 10 c 2
 449 108 l 2
 448 110 447 112 444 112 c 2
 198 112 l 2
 195 112 194 110 193 108 c 2
 164 10 l 2
 162 4 158 0 151 0 c 2
 24 0 l 2
 16 0 11 5 14 14 c 2
 230 690 l 2
 232 696 236 700 243 700 c 2
 400 700 l 2
 407 700 411 696 413 690 c 2
 629 14 l 2
 632 5 627 0 619 0 c 2
 492 0 l 2
229 227 m 2
 228 223 230 221 233 221 c 2
 409 221 l 2
 412 221 414 223 413 227 c 2
 323 524 l 2
 322 529 318 528 317 524 c 2xec
 229 227 l 2
EndSplineSet
Validated: 1048577
Substitution2: "'c2sc' Capitals to Small Capitals in Latin lookup 19 subtable" abreve.sc
Substitution2: "'aalt' Access All Alternates in Latin lookup 0 subtable" abreve.sc
EndChar

StartChar: uni1EAE
Encoding: 7854 7854 7
Width: 643
GlyphClass: 2
Flags: MW
HStem: 0 21G<20 24 24 151 488.5 492 492 619> 112 109<196.5 409 233 409 409 410.5 233 444> 527.38 172.62 680 20G<243 400 400 403.5> 751 67<301.5 339.5 301.5 363.5> 916 124<264.5 431 330 353>
VStem: 13.17 616.65
AnchorPoint: "Anchor-7" 357 1040 basechar 0
AnchorPoint: "Anchor-6" 322 0 basechar 0
LayerCount: 2
Fore
SplineSet
431 1040 m 2xde
 441 1040 444 1033 439 1025 c 2
 367 924 l 2
 364 919 359 916 353 916 c 2
 269 916 l 2
 260 916 257 922 261 930 c 2
 315 1031 l 2
 318 1037 324 1040 330 1040 c 2
 431 1040 l 2xde
320 751 m 0
 234 751 170 799 163 865 c 0
 162 873 166 877 174 877 c 2
 234 876 l 2
 241 876 245 872 246 865 c 0
 253 837 283 818 320 818 c 0
 359 818 390 837 396 866 c 0
 397 873 401 877 408 877 c 2
 466 877 l 2
 474 877 478 873 478 867 c 0
 472 800 407 751 320 751 c 0
492 0 m 2
 485 0 481 4 479 10 c 2
 449 108 l 2
 448 110 447 112 444 112 c 2
 198 112 l 2
 195 112 194 110 193 108 c 2
 164 10 l 2
 162 4 158 0 151 0 c 2
 24 0 l 2
 16 0 11 5 14 14 c 2
 230 690 l 2
 232 696 236 700 243 700 c 2
 400 700 l 2
 407 700 411 696 413 690 c 2
 629 14 l 2
 632 5 627 0 619 0 c 2
 492 0 l 2
229 227 m 2
 228 223 230 221 233 221 c 2
 409 221 l 2
 412 221 414 223 413 227 c 2
 323 524 l 2
 322 529 318 528 317 524 c 2xee
 229 227 l 2
EndSplineSet
Validated: 1048577
EndChar

StartChar: uni1EB6
Encoding: 7862 7862 8
Width: 643
GlyphClass: 2
Flags: MW
HStem: -213 150<301 345> 0 21G<20 24 24 151 488.5 492 492 619> 112 109<196.5 409 233 409 409 410.5 233 444> 527.38 172.62 680 20G<243 400 400 403.5> 751 67<301.5 339.5 301.5 363.5>
VStem: 248 151<-159.5 -116>
AnchorPoint: "Anchor-7" 320 868 basechar 0
AnchorPoint: "Anchor-6" 321 -216 basechar 0
LayerCount: 2
Fore
SplineSet
320 751 m 0xee
 234 751 170 799 163 865 c 0
 162 873 166 877 174 877 c 2
 234 876 l 2
 241 876 245 872 246 865 c 0
 253 837 283 818 320 818 c 0
 359 818 390 837 396 866 c 0
 397 873 401 877 408 877 c 2
 466 877 l 2
 474 877 478 873 478 867 c 0
 472 800 407 751 320 751 c 0xee
629 14 m 2
 632 5 627 0 619 0 c 2
 492 0 l 2
 485 0 481 4 479 10 c 2
 449 108 l 2
 448 110 447 112 444 112 c 2
 198 112 l 2
 195 112 194 110 193 108 c 2
 164 10 l 2
 162 4 158 0 151 0 c 2
 24 0 l 2
 16 0 11 5 14 14 c 2
 230 690 l 2
 232 696 236 700 243 700 c 2
 400 700 l 2
 407 700 411 696 413 690 c 2
 629 14 l 2
229 227 m 2
 228 223 230 221 233 221 c 2
 409 221 l 2
 412 221 414 223 413 227 c 2
 323 524 l 2
 322 529 318 528 317 524 c 2xf6
 229 227 l 2
323 -63 m 0
 367 -63 399 -94 399 -138 c 0
 399 -181 367 -213 323 -213 c 0
 279 -213 248 -181 248 -138 c 0
 248 -94 279 -63 323 -63 c 0
EndSplineSet
Validated: 1048577
EndChar

StartChar: uni1EB0
Encoding: 7856 7856 9
Width: 643
GlyphClass: 2
Flags: MW
HStem: 0 21G<20 24 24 151 488.5 492 492 619> 112 109<196.5 409 233 409 409 410.5 233 444> 527.38 172.62 680 20G<243 400 400 403.5> 751 67<301.5 339.5 301.5 363.5> 916 124<281 284 284 307 307 310 206 367>
VStem: 13.17 616.65
AnchorPoint: "Anchor-7" 274 1040 basechar 0
AnchorPoint: "Anchor-6" 322 0 basechar 0
LayerCount: 2
Fore
SplineSet
375 930 m 2xde
 379 922 376 916 367 916 c 2
 284 916 l 2
 278 916 273 919 270 924 c 2
 198 1025 l 2
 192 1033 196 1040 206 1040 c 2
 307 1040 l 2
 313 1040 319 1037 322 1031 c 2
 375 930 l 2xde
320 751 m 0
 234 751 170 799 163 865 c 0
 162 873 166 877 174 877 c 2
 234 876 l 2
 241 876 245 872 246 865 c 0
 253 837 283 818 320 818 c 0
 359 818 390 837 396 866 c 0
 397 873 401 877 408 877 c 2
 466 877 l 2
 474 877 478 873 478 867 c 0
 472 800 407 751 320 751 c 0
492 0 m 2
 485 0 481 4 479 10 c 2
 449 108 l 2
 448 110 447 112 444 112 c 2
 198 112 l 2
 195 112 194 110 193 108 c 2
 164 10 l 2
 162 4 158 0 151 0 c 2
 24 0 l 2
 16 0 11 5 14 14 c 2
 230 690 l 2
 232 696 236 700 243 700 c 2
 400 700 l 2
 407 700 411 696 413 690 c 2
 629 14 l 2
 632 5 627 0 619 0 c 2
 492 0 l 2
229 227 m 2
 228 223 230 221 233 221 c 2
 409 221 l 2
 412 221 414 223 413 227 c 2
 323 524 l 2
 322 529 318 528 317 524 c 2xee
 229 227 l 2
EndSplineSet
Validated: 1048577
EndChar

StartChar: uni1EB2
Encoding: 7858 7858 10
Width: 643
GlyphClass: 2
Flags: MW
HStem: 0 21G<20 24 24 151 488.5 492 492 619> 112 109<196.5 409 233 409 409 410.5 233 444> 527.38 172.62 680 20G<243 400 400 403.5> 751 67<301.5 339.5 301.5 363.5> 1033 67<313 329.5>
VStem: 350 75<990 1015>
AnchorPoint: "Anchor-7" 320 1099 basechar 0
AnchorPoint: "Anchor-6" 322 0 basechar 0
LayerCount: 2
Fore
SplineSet
322 1033 m 0xde
 304 1033 294 1026 276 1003 c 0
 272 996 265 995 259 1000 c 2
 225 1025 l 2
 219 1029 218 1035 223 1042 c 0
 251 1083 278 1100 326 1100 c 0
 386 1100 425 1065 425 1009 c 0
 425 956 381 938 361 903 c 0
 357 896 353 894 346 895 c 2
 307 903 l 2
 299 905 295 910 299 918 c 0
 321 972 350 971 350 1009 c 0
 350 1021 337 1033 322 1033 c 0xde
320 751 m 0
 234 751 170 799 163 865 c 0
 162 873 166 877 174 877 c 2
 234 876 l 2
 241 876 245 872 246 865 c 0
 253 837 283 818 320 818 c 0
 359 818 390 837 396 866 c 0
 397 873 401 877 408 877 c 2
 466 877 l 2
 474 877 478 873 478 867 c 0
 472 800 407 751 320 751 c 0
492 0 m 2
 485 0 481 4 479 10 c 2
 449 108 l 2
 448 110 447 112 444 112 c 2
 198 112 l 2
 195 112 194 110 193 108 c 2
 164 10 l 2
 162 4 158 0 151 0 c 2
 24 0 l 2
 16 0 11 5 14 14 c 2
 230 690 l 2
 232 696 236 700 243 700 c 2
 400 700 l 2
 407 700 411 696 413 690 c 2
 629 14 l 2
 632 5 627 0 619 0 c 2
 492 0 l 2
229 227 m 2
 228 223 230 221 233 221 c 2
 409 221 l 2
 412 221 414 223 413 227 c 2
 323 524 l 2
 322 529 318 528 317 524 c 2xee
 229 227 l 2
EndSplineSet
Validated: 1048577
EndChar

StartChar: uni1EB4
Encoding: 7860 7860 11
Width: 643
GlyphClass: 2
Flags: MW
HStem: 0 21G<20 24 24 151 488.5 492 492 619> 112 109<196.5 409 233 409 409 410.5 233 444> 527.38 172.62 680 20G<243 400 400 403.5> 751 67<301.5 339.5 301.5 363.5> 899 83<371 385.5 371 400> 929 88<265.5 282.5>
VStem: 13.17 616.65
AnchorPoint: "Anchor-7" 319 1020 basechar 0
AnchorPoint: "Anchor-6" 322 0 basechar 0
LayerCount: 2
Fore
SplineSet
276 929 m 0xdb
 255 929 241 922 230 912 c 0
 224 906 218 905 213 911 c 2
 179 947 l 2
 174 952 173 958 177 964 c 0
 196 995 229 1017 269 1017 c 0xdb
 296 1017 315 1006 335 997 c 0
 352 988 364 982 378 982 c 0
 393 982 408 987 420 1001 c 0
 426 1007 432 1008 437 1002 c 2
 468 965 l 2
 472 960 473 955 470 949 c 0
 455 920 422 899 378 899 c 0xdd
 351 899 336 907 320 915 c 0
 300 925 289 929 276 929 c 0xdb
320 751 m 0xdd
 234 751 170 799 163 865 c 0
 162 873 166 877 174 877 c 2
 234 876 l 2
 241 876 245 872 246 865 c 0
 253 837 283 818 320 818 c 0
 359 818 390 837 396 866 c 0
 397 873 401 877 408 877 c 2
 466 877 l 2
 474 877 478 873 478 867 c 0
 472 800 407 751 320 751 c 0xdd
492 0 m 2
 485 0 481 4 479 10 c 2
 449 108 l 2
 448 110 447 112 444 112 c 2
 198 112 l 2
 195 112 194 110 193 108 c 2
 164 10 l 2
 162 4 158 0 151 0 c 2
 24 0 l 2
 16 0 11 5 14 14 c 2
 230 690 l 2
 232 696 236 700 243 700 c 2
 400 700 l 2
 407 700 411 696 413 690 c 2
 629 14 l 2
 632 5 627 0 619 0 c 2
 492 0 l 2
229 227 m 2
 228 223 230 221 233 221 c 2
 409 221 l 2
 412 221 414 223 413 227 c 2
 323 524 l 2
 322 529 318 528 317 524 c 2xed
 229 227 l 2
EndSplineSet
Validated: 1048577
EndChar

StartChar: uni01CD
Encoding: 461 461 12
Width: 643
GlyphClass: 2
Flags: MW
HStem: 0 21G<20 24 24 151 488.5 492 492 619> 112 109<196.5 409 233 409 409 410.5 233 444> 527.38 172.62 680 20G<243 400 400 403.5> 757 128<256 259 259 270 270 273 384 392>
VStem: 13.17 616.65
AnchorPoint: "Anchor-7" 320 700 basechar 0
AnchorPoint: "Anchor-6" 322 0 basechar 0
LayerCount: 2
Fore
SplineSet
406 765 m 2xdc
 402 759 398 757 392 757 c 2
 259 757 l 2
 253 757 248 760 245 765 c 2
 172 870 l 2
 167 878 170 885 180 885 c 2
 270 885 l 2
 276 885 281 882 284 877 c 2
 324 816 l 2
 326 812 328 812 330 816 c 2
 370 877 l 2
 373 882 378 885 384 885 c 2
 474 885 l 2
 484 885 488 878 482 870 c 2
 406 765 l 2xdc
492 0 m 2
 485 0 481 4 479 10 c 2
 449 108 l 2
 448 110 447 112 444 112 c 2
 198 112 l 2
 195 112 194 110 193 108 c 2
 164 10 l 2
 162 4 158 0 151 0 c 2
 24 0 l 2
 16 0 11 5 14 14 c 2
 230 690 l 2
 232 696 236 700 243 700 c 2
 400 700 l 2
 407 700 411 696 413 690 c 2
 629 14 l 2
 632 5 627 0 619 0 c 2
 492 0 l 2
229 227 m 2
 228 223 230 221 233 221 c 2
 409 221 l 2
 412 221 414 223 413 227 c 2
 323 524 l 2
 322 529 318 528 317 524 c 2xec
 229 227 l 2
EndSplineSet
Validated: 1048577
Substitution2: "'c2sc' Capitals to Small Capitals in Latin lookup 19 subtable" uni01CE.sc
Substitution2: "'aalt' Access All Alternates in Latin lookup 0 subtable" uni01CE.sc
EndChar

StartChar: Acircumflex
Encoding: 194 194 13
Width: 643
GlyphClass: 2
Flags: MW
HStem: 0 21G<20 24 24 151 488.5 492 492 619> 112 109<196.5 409 233 409 409 410.5 233 444> 527.38 172.62 680 20G<243 400 400 403.5> 758 128<168 385 252 263 374 377 377 385 385 388 252 467>
VStem: 13.17 616.65
AnchorPoint: "Anchor-7" 320 886 basechar 0
AnchorPoint: "Anchor-6" 322 0 basechar 0
LayerCount: 2
Fore
SplineSet
323 827 m 2xdc
 321 831 319 831 317 827 c 2
 277 766 l 2
 274 761 269 758 263 758 c 2
 173 758 l 2
 163 758 160 765 165 773 c 2
 238 878 l 2
 241 883 246 886 252 886 c 2
 385 886 l 2
 391 886 395 884 399 878 c 2
 475 773 l 2
 481 765 477 758 467 758 c 2
 377 758 l 2
 371 758 366 761 363 766 c 2
 323 827 l 2xdc
492 0 m 2
 485 0 481 4 479 10 c 2
 449 108 l 2
 448 110 447 112 444 112 c 2
 198 112 l 2
 195 112 194 110 193 108 c 2
 164 10 l 2
 162 4 158 0 151 0 c 2
 24 0 l 2
 16 0 11 5 14 14 c 2
 230 690 l 2
 232 696 236 700 243 700 c 2
 400 700 l 2
 407 700 411 696 413 690 c 2
 629 14 l 2
 632 5 627 0 619 0 c 2
 492 0 l 2
229 227 m 2
 228 223 230 221 233 221 c 2
 409 221 l 2
 412 221 414 223 413 227 c 2
 323 524 l 2
 322 529 318 528 317 524 c 2xec
 229 227 l 2
EndSplineSet
Validated: 1048577
Substitution2: "'c2sc' Capitals to Small Capitals in Latin lookup 19 subtable" acircumflex.sc
Substitution2: "'aalt' Access All Alternates in Latin lookup 0 subtable" acircumflex.sc
EndChar

StartChar: uni1EA4
Encoding: 7844 7844 14
Width: 643
GlyphClass: 2
Flags: MW
HStem: 0 21G<20 24 24 151 488.5 492 492 619> 112 109<196.5 409 233 409 409 410.5 233 444> 527.38 172.62 680 20G<243 400 400 403.5> 758 128<168 385 252 263 374 377 377 385 385 388 252 467> 837 124<471.5 637 537 560>
VStem: 13.17 634.09
AnchorPoint: "Anchor-7" 564 961 basechar 0
AnchorPoint: "Anchor-6" 322 0 basechar 0
LayerCount: 2
Fore
SplineSet
637 961 m 2xd6
 647 961 650 954 645 946 c 2
 574 845 l 2
 571 840 566 837 560 837 c 2
 476 837 l 2
 467 837 464 843 468 851 c 2
 522 952 l 2
 525 958 531 961 537 961 c 2
 637 961 l 2xd6
323 827 m 2xda
 321 831 319 831 317 827 c 2
 277 766 l 2
 274 761 269 758 263 758 c 2
 173 758 l 2
 163 758 160 765 165 773 c 2
 238 878 l 2
 241 883 246 886 252 886 c 2
 385 886 l 2
 391 886 395 884 399 878 c 2
 475 773 l 2
 481 765 477 758 467 758 c 2
 377 758 l 2
 371 758 366 761 363 766 c 2
 323 827 l 2xda
230 690 m 2
 232 696 236 700 243 700 c 2
 400 700 l 2
 407 700 411 696 413 690 c 2
 629 14 l 2
 632 5 627 0 619 0 c 2
 492 0 l 2
 485 0 481 4 479 10 c 2
 449 108 l 2
 448 110 447 112 444 112 c 2
 198 112 l 2
 195 112 194 110 193 108 c 2
 164 10 l 2
 162 4 158 0 151 0 c 2
 24 0 l 2
 16 0 11 5 14 14 c 2
 230 690 l 2
229 227 m 2
 228 223 230 221 233 221 c 2
 409 221 l 2
 412 221 414 223 413 227 c 2
 323 524 l 2
 322 529 318 528 317 524 c 2xea
 229 227 l 2
EndSplineSet
Validated: 1048577
EndChar

StartChar: uni1EAC
Encoding: 7852 7852 15
Width: 643
GlyphClass: 2
Flags: MW
HStem: -213 150<301 345> 0 21G<20 24 24 151 488.5 492 492 619> 112 109<196.5 409 233 409 409 410.5 233 444> 527.38 172.62 680 20G<243 400 400 403.5> 758 128<168 385 252 263 374 377 377 385 385 388 252 467>
VStem: 248 151<-159.5 -116>
AnchorPoint: "Anchor-7" 320 886 basechar 0
AnchorPoint: "Anchor-6" 321 -216 basechar 0
LayerCount: 2
Fore
SplineSet
323 827 m 2x6e
 321 831 319 831 317 827 c 2
 277 766 l 2
 274 761 269 758 263 758 c 2
 173 758 l 2
 163 758 160 765 165 773 c 2
 238 878 l 2
 241 883 246 886 252 886 c 2
 385 886 l 2
 391 886 395 884 399 878 c 2
 475 773 l 2
 481 765 477 758 467 758 c 2
 377 758 l 2
 371 758 366 761 363 766 c 2
 323 827 l 2x6e
629 14 m 2
 632 5 627 0 619 0 c 2
 492 0 l 2
 485 0 481 4 479 10 c 2
 449 108 l 2
 448 110 447 112 444 112 c 2
 198 112 l 2
 195 112 194 110 193 108 c 2
 164 10 l 2
 162 4 158 0 151 0 c 2
 24 0 l 2
 16 0 11 5 14 14 c 2
 230 690 l 2
 232 696 236 700 243 700 c 2
 400 700 l 2
 407 700 411 696 413 690 c 2
 629 14 l 2
229 227 m 2
 228 223 230 221 233 221 c 2
 409 221 l 2
 412 221 414 223 413 227 c 2
 323 524 l 2
 322 529 318 528 317 524 c 2x76
 229 227 l 2
323 -63 m 0xee
 367 -63 399 -94 399 -138 c 0
 399 -181 367 -213 323 -213 c 0
 279 -213 248 -181 248 -138 c 0
 248 -94 279 -63 323 -63 c 0xee
EndSplineSet
Validated: 1048577
EndChar

StartChar: uni1EA6
Encoding: 7846 7846 16
Width: 643
GlyphClass: 2
Flags: MW
HStem: 0 21G<20 24 24 151 488.5 492 492 619> 112 109<196.5 409 233 409 409 410.5 233 444> 527.38 172.62 680 20G<243 400 400 403.5> 758 128<168 385 252 263 374 377 377 385 385 388 252 467> 880 124<465 468 468 491 491 494 390 551>
VStem: 13.17 616.65
AnchorPoint: "Anchor-7" 458 1004 basechar 0
AnchorPoint: "Anchor-6" 322 0 basechar 0
LayerCount: 2
Fore
SplineSet
559 894 m 2xd6
 563 886 560 880 551 880 c 2
 468 880 l 2
 462 880 457 883 454 888 c 2
 382 989 l 2
 376 997 380 1004 390 1004 c 2
 491 1004 l 2
 497 1004 503 1001 506 995 c 2
 559 894 l 2xd6
323 827 m 2xda
 321 831 319 831 317 827 c 2
 277 766 l 2
 274 761 269 758 263 758 c 2
 173 758 l 2
 163 758 160 765 165 773 c 2
 238 878 l 2
 241 883 246 886 252 886 c 2
 385 886 l 2
 391 886 395 884 399 878 c 2
 475 773 l 2
 481 765 477 758 467 758 c 2
 377 758 l 2
 371 758 366 761 363 766 c 2
 323 827 l 2xda
492 0 m 2
 485 0 481 4 479 10 c 2
 449 108 l 2
 448 110 447 112 444 112 c 2
 198 112 l 2
 195 112 194 110 193 108 c 2
 164 10 l 2
 162 4 158 0 151 0 c 2
 24 0 l 2
 16 0 11 5 14 14 c 2
 230 690 l 2
 232 696 236 700 243 700 c 2
 400 700 l 2
 407 700 411 696 413 690 c 2
 629 14 l 2
 632 5 627 0 619 0 c 2
 492 0 l 2
229 227 m 2
 228 223 230 221 233 221 c 2
 409 221 l 2
 412 221 414 223 413 227 c 2
 323 524 l 2
 322 529 318 528 317 524 c 2xea
 229 227 l 2
EndSplineSet
Validated: 1048577
EndChar

StartChar: uni1EA8
Encoding: 7848 7848 17
Width: 643
GlyphClass: 2
Flags: MW
HStem: 0 21G<20 24 24 151 488.5 492 492 619> 112 109<196.5 409 233 409 409 410.5 233 444> 527.38 172.62 680 20G<243 400 400 403.5> 758 128<168 385 252 263 374 377 377 385 385 388 252 467> 997 68<466 482.5>
VStem: 503 74<954.5 979.5>
AnchorPoint: "Anchor-7" 473 1064 basechar 0
AnchorPoint: "Anchor-6" 322 0 basechar 0
LayerCount: 2
Fore
SplineSet
475 997 m 0xde
 457 997 447 990 429 967 c 0
 424 960 418 959 412 964 c 2
 378 989 l 2
 372 993 371 999 376 1006 c 0
 404 1047 431 1065 479 1065 c 0
 539 1065 577 1029 577 973 c 0
 577 920 533 902 513 867 c 0
 509 861 505 859 498 860 c 2
 460 867 l 2
 451 869 448 874 451 882 c 0
 473 937 503 936 503 973 c 0
 503 986 490 997 475 997 c 0xde
323 827 m 2
 321 831 319 831 317 827 c 2
 277 766 l 2
 274 761 269 758 263 758 c 2
 173 758 l 2
 163 758 160 765 165 773 c 2
 238 878 l 2
 241 883 246 886 252 886 c 2
 385 886 l 2
 391 886 395 884 399 878 c 2
 475 773 l 2
 481 765 477 758 467 758 c 2
 377 758 l 2
 371 758 366 761 363 766 c 2
 323 827 l 2
492 0 m 2
 485 0 481 4 479 10 c 2
 449 108 l 2
 448 110 447 112 444 112 c 2
 198 112 l 2
 195 112 194 110 193 108 c 2
 164 10 l 2
 162 4 158 0 151 0 c 2
 24 0 l 2
 16 0 11 5 14 14 c 2
 230 690 l 2
 232 696 236 700 243 700 c 2
 400 700 l 2
 407 700 411 696 413 690 c 2
 629 14 l 2
 632 5 627 0 619 0 c 2
 492 0 l 2
229 227 m 2
 228 223 230 221 233 221 c 2
 409 221 l 2
 412 221 414 223 413 227 c 2
 323 524 l 2
 322 529 318 528 317 524 c 2xee
 229 227 l 2
EndSplineSet
Validated: 1048577
EndChar

StartChar: uni1EAA
Encoding: 7850 7850 18
Width: 643
GlyphClass: 2
Flags: MW
HStem: 0 21G<20 24 24 151 488.5 492 492 619> 112 109<196.5 409 233 409 409 410.5 233 444> 527.38 172.62 680 20G<243 400 400 403.5> 758 128<168 385 252 263 374 377 377 385 385 388 252 467> 918 95<375.5 393 375.5 409> 953 100<254 274>
VStem: 13.17 616.65
AnchorPoint: "Anchor-7" 316 1057 basechar 0
AnchorPoint: "Anchor-6" 322 0 basechar 0
LayerCount: 2
Fore
SplineSet
266 953 m 0xdb
 242 953 226 944 213 931 c 0
 208 925 201 924 196 930 c 2
 155 974 l 2
 151 979 149 985 153 991 c 0
 175 1027 212 1053 259 1053 c 0xdb
 290 1053 311 1041 334 1030 c 0
 353 1020 367 1013 384 1013 c 0
 402 1013 418 1019 432 1036 c 0
 438 1043 444 1044 449 1037 c 2
 486 992 l 2
 490 987 491 982 488 976 c 0
 472 943 434 918 384 918 c 0xdd
 353 918 335 927 317 936 c 0
 294 947 282 953 266 953 c 0xdb
238 878 m 2
 241 883 246 886 252 886 c 2
 385 886 l 2
 391 886 395 884 399 878 c 2
 475 773 l 2
 481 765 477 758 467 758 c 2
 377 758 l 2
 371 758 366 761 363 766 c 2
 323 827 l 2
 321 831 319 831 317 827 c 2
 277 766 l 2
 274 761 269 758 263 758 c 2
 173 758 l 2
 163 758 160 765 165 773 c 2
 238 878 l 2
492 0 m 2
 485 0 481 4 479 10 c 2
 449 108 l 2
 448 110 447 112 444 112 c 2
 198 112 l 2
 195 112 194 110 193 108 c 2
 164 10 l 2
 162 4 158 0 151 0 c 2
 24 0 l 2
 16 0 11 5 14 14 c 2
 230 690 l 2
 232 696 236 700 243 700 c 2
 400 700 l 2
 407 700 411 696 413 690 c 2
 629 14 l 2
 632 5 627 0 619 0 c 2
 492 0 l 2
229 227 m 2
 228 223 230 221 233 221 c 2
 409 221 l 2
 412 221 414 223 413 227 c 2
 323 524 l 2
 322 529 318 528 317 524 c 2xeb
 229 227 l 2
EndSplineSet
Validated: 1048577
EndChar

StartChar: Adieresis
Encoding: 196 196 19
Width: 643
GlyphClass: 2
Flags: MW
HStem: 0 21G<20 24 24 151 488.5 492 492 619> 112 109<196.5 409 233 409 409 410.5 233 444> 527.38 172.62 680 20G<243 400 400 403.5> 765 157<198 243.5 397 442.5>
VStem: 142 157<820.5 866.5> 341 158<820.5 866.5>
AnchorPoint: "Anchor-7" 320 700 basechar 0
AnchorPoint: "Anchor-6" 322 0 basechar 0
LayerCount: 2
Fore
SplineSet
221 765 m 0xde
 175 765 142 798 142 843 c 0
 142 890 175 922 221 922 c 0
 267 922 299 890 299 843 c 0
 299 798 266 765 221 765 c 0xde
420 765 m 0
 374 765 341 798 341 843 c 0
 341 890 374 922 420 922 c 0
 466 922 499 890 499 843 c 0
 499 798 465 765 420 765 c 0
492 0 m 2
 485 0 481 4 479 10 c 2
 449 108 l 2
 448 110 447 112 444 112 c 2
 198 112 l 2
 195 112 194 110 193 108 c 2
 164 10 l 2
 162 4 158 0 151 0 c 2
 24 0 l 2
 16 0 11 5 14 14 c 2
 230 690 l 2
 232 696 236 700 243 700 c 2
 400 700 l 2
 407 700 411 696 413 690 c 2
 629 14 l 2
 632 5 627 0 619 0 c 2
 492 0 l 2
229 227 m 2
 228 223 230 221 233 221 c 2
 409 221 l 2
 412 221 414 223 413 227 c 2
 323 524 l 2
 322 529 318 528 317 524 c 2xee
 229 227 l 2
EndSplineSet
Validated: 1048577
Substitution2: "'c2sc' Capitals to Small Capitals in Latin lookup 19 subtable" adieresis.sc
Substitution2: "'aalt' Access All Alternates in Latin lookup 0 subtable" adieresis.sc
EndChar

StartChar: uni1EA0
Encoding: 7840 7840 20
Width: 643
GlyphClass: 2
Flags: MW
HStem: -213 150<301 345> 0 21G<20 24 24 151 488.5 492 492 619> 112 109<196.5 409 233 409 409 410.5 233 444> 527.38 172.62 680 20G<243 400 400 403.5>
VStem: 248 151<-159.5 -116>
AnchorPoint: "Anchor-7" 320 700 basechar 0
AnchorPoint: "Anchor-6" 321 -216 basechar 0
LayerCount: 2
Fore
SplineSet
629 14 m 2x6c
 632 5 627 0 619 0 c 2
 492 0 l 2
 485 0 481 4 479 10 c 2
 449 108 l 2
 448 110 447 112 444 112 c 2
 198 112 l 2
 195 112 194 110 193 108 c 2
 164 10 l 2
 162 4 158 0 151 0 c 2
 24 0 l 2
 16 0 11 5 14 14 c 2
 230 690 l 2
 232 696 236 700 243 700 c 2
 400 700 l 2
 407 700 411 696 413 690 c 2
 629 14 l 2x6c
229 227 m 2
 228 223 230 221 233 221 c 2
 409 221 l 2
 412 221 414 223 413 227 c 2
 323 524 l 2
 322 529 318 528 317 524 c 2x74
 229 227 l 2
323 -63 m 0xec
 367 -63 399 -94 399 -138 c 0
 399 -181 367 -213 323 -213 c 0
 279 -213 248 -181 248 -138 c 0
 248 -94 279 -63 323 -63 c 0xec
EndSplineSet
Validated: 1048577
EndChar

StartChar: Agrave
Encoding: 192 192 21
Width: 643
GlyphClass: 2
Flags: MW
HStem: 0 21G<20 24 24 151 488.5 492 492 619> 112 109<196.5 409 233 409 409 410.5 233 444> 527.38 172.62 680 20G<243 400 400 403.5> 762 124<280 283 283 306 306 309 205 367>
VStem: 13.17 616.65
AnchorPoint: "Anchor-7" 273 886 basechar 0
AnchorPoint: "Anchor-6" 322 0 basechar 0
LayerCount: 2
Fore
SplineSet
375 776 m 2xdc
 379 768 376 762 367 762 c 2
 283 762 l 2
 277 762 272 765 269 770 c 2
 197 871 l 2
 191 879 195 886 205 886 c 2
 306 886 l 2
 312 886 318 883 321 877 c 2
 375 776 l 2xdc
492 0 m 2
 485 0 481 4 479 10 c 2
 449 108 l 2
 448 110 447 112 444 112 c 2
 198 112 l 2
 195 112 194 110 193 108 c 2
 164 10 l 2
 162 4 158 0 151 0 c 2
 24 0 l 2
 16 0 11 5 14 14 c 2
 230 690 l 2
 232 696 236 700 243 700 c 2
 400 700 l 2
 407 700 411 696 413 690 c 2
 629 14 l 2
 632 5 627 0 619 0 c 2
 492 0 l 2
229 227 m 2
 228 223 230 221 233 221 c 2
 409 221 l 2
 412 221 414 223 413 227 c 2
 323 524 l 2
 322 529 318 528 317 524 c 2xec
 229 227 l 2
EndSplineSet
Validated: 1048577
Substitution2: "'c2sc' Capitals to Small Capitals in Latin lookup 19 subtable" agrave.sc
Substitution2: "'aalt' Access All Alternates in Latin lookup 0 subtable" agrave.sc
EndChar

StartChar: uni1EA2
Encoding: 7842 7842 22
Width: 643
GlyphClass: 2
Flags: MW
HStem: 0 21G<20 24 24 151 488.5 492 492 619> 112 109<196.5 409 233 409 409 410.5 233 444> 527.38 172.62 680 20G<243 400 400 403.5> 876 68<312 328.5>
VStem: 349 75<833.5 858.5>
AnchorPoint: "Anchor-7" 320 943 basechar 0
AnchorPoint: "Anchor-6" 322 0 basechar 0
LayerCount: 2
Fore
SplineSet
321 876 m 0xdc
 303 876 294 869 276 846 c 0
 271 839 264 838 258 843 c 2
 224 868 l 2
 218 872 217 878 221 885 c 0
 250 927 277 944 325 944 c 0
 385 944 424 909 424 852 c 0
 424 799 380 782 360 747 c 0
 356 740 352 738 345 739 c 2
 306 747 l 2
 298 749 294 754 298 762 c 0
 320 816 349 815 349 852 c 0
 349 865 336 876 321 876 c 0xdc
492 0 m 2
 485 0 481 4 479 10 c 2
 449 108 l 2
 448 110 447 112 444 112 c 2
 198 112 l 2
 195 112 194 110 193 108 c 2
 164 10 l 2
 162 4 158 0 151 0 c 2
 24 0 l 2
 16 0 11 5 14 14 c 2
 230 690 l 2
 232 696 236 700 243 700 c 2
 400 700 l 2
 407 700 411 696 413 690 c 2
 629 14 l 2
 632 5 627 0 619 0 c 2
 492 0 l 2
229 227 m 2
 228 223 230 221 233 221 c 2
 409 221 l 2
 412 221 414 223 413 227 c 2
 323 524 l 2
 322 529 318 528 317 524 c 2xec
 229 227 l 2
EndSplineSet
Validated: 1048577
EndChar

StartChar: Amacron
Encoding: 256 256 23
Width: 643
GlyphClass: 2
Flags: MW
HStem: 0 21G<20 24 24 151 488.5 492 492 619> 112 109<196.5 409 233 409 409 410.5 233 444> 527.38 172.62 680 20G<243 400 400 403.5> 764 95<181.5 455 185 455>
VStem: 13.17 616.65
AnchorPoint: "Anchor-7" 320 700 basechar 0
AnchorPoint: "Anchor-6" 322 0 basechar 0
LayerCount: 2
Fore
SplineSet
455 859 m 2xdc
 462 859 467 854 467 847 c 2
 467 776 l 2
 467 769 462 764 455 764 c 2
 185 764 l 2
 178 764 173 769 173 776 c 2
 173 847 l 2
 173 854 178 859 185 859 c 2
 455 859 l 2xdc
492 0 m 2
 485 0 481 4 479 10 c 2
 449 108 l 2
 448 110 447 112 444 112 c 2
 198 112 l 2
 195 112 194 110 193 108 c 2
 164 10 l 2
 162 4 158 0 151 0 c 2
 24 0 l 2
 16 0 11 5 14 14 c 2
 230 690 l 2
 232 696 236 700 243 700 c 2
 400 700 l 2
 407 700 411 696 413 690 c 2
 629 14 l 2
 632 5 627 0 619 0 c 2
 492 0 l 2
229 227 m 2
 228 223 230 221 233 221 c 2
 409 221 l 2
 412 221 414 223 413 227 c 2
 323 524 l 2
 322 529 318 528 317 524 c 2xec
 229 227 l 2
EndSplineSet
Validated: 1048577
Substitution2: "'c2sc' Capitals to Small Capitals in Latin lookup 19 subtable" amacron.sc
Substitution2: "'aalt' Access All Alternates in Latin lookup 0 subtable" amacron.sc
EndChar

StartChar: Aogonek
Encoding: 260 260 24
Width: 671
GlyphClass: 2
Flags: MW
HStem: -192.82 80.05 0 21G<20 24 24 151 488.5 492 492 541> 112 109<196.5 409 233 409 409 410.5 233 444> 527.38 172.62 680 20G<243 400 400 403.5>
VStem: 13.17 641.83 487.31 164.19
AnchorPoint: "Anchor-7" 320 700 basechar 0
AnchorPoint: "Anchor-6" 322 0 basechar 0
LayerCount: 2
Fore
SplineSet
633 -110 m 0xea
 641 -107 647 -109 648 -118 c 2
 655 -168 l 2
 656 -175 653 -180 646 -182 c 0
 603 -198 511 -207 490 -129 c 0
 480 -88 495 -46 543 -6 c 0
 547 -3 545 0 541 0 c 2
 492 0 l 2
 485 0 481 4 479 10 c 2
 449 108 l 2
 448 110 447 112 444 112 c 2
 198 112 l 2
 195 112 194 110 193 108 c 2
 164 10 l 2
 162 4 158 0 151 0 c 2
 24 0 l 2
 16 0 11 5 14 14 c 2
 230 690 l 2
 232 696 236 700 243 700 c 2
 400 700 l 2
 407 700 411 696 413 690 c 2
 632 3 l 2
 633 0 635 1 636 -1 c 0
 637 -4 634 -9 627 -15 c 0
 593 -41 575 -67 581 -90 c 0
 587 -111 609 -117 633 -110 c 0xea
229 227 m 2
 228 223 230 221 233 221 c 2
 409 221 l 2
 412 221 414 223 413 227 c 2
 323 524 l 2
 322 529 318 528 317 524 c 2xf4
 229 227 l 2
EndSplineSet
Validated: 1048609
Substitution2: "'c2sc' Capitals to Small Capitals in Latin lookup 19 subtable" aogonek.sc
Substitution2: "'aalt' Access All Alternates in Latin lookup 0 subtable" aogonek.sc
EndChar

StartChar: Aring
Encoding: 197 197 25
Width: 643
GlyphClass: 2
Flags: MW
HStem: 0 21G<20 24 24 151 488.5 492 492 619> 112 109<196.5 409 233 409 409 410.5 233 444> 527.38 172.62 680 20G<243 400 400 403.5> 749 74<306 333.5 306 355> 924 73<306 333.5>
VStem: 195 74<859 887.5 859 908> 370 74<859 887.5>
AnchorPoint: "Anchor-7" 320 700 basechar 0
AnchorPoint: "Anchor-6" 322 0 basechar 0
LayerCount: 2
Fore
SplineSet
320 749 m 0xdf
 249 749 195 803 195 873 c 0
 195 943 249 997 320 997 c 0
 390 997 444 943 444 873 c 0
 444 803 390 749 320 749 c 0xdf
320 924 m 0
 292 924 269 902 269 873 c 0
 269 845 292 823 320 823 c 0
 347 823 370 845 370 873 c 0
 370 902 347 924 320 924 c 0
492 0 m 2
 485 0 481 4 479 10 c 2
 449 108 l 2
 448 110 447 112 444 112 c 2
 198 112 l 2
 195 112 194 110 193 108 c 2
 164 10 l 2
 162 4 158 0 151 0 c 2
 24 0 l 2
 16 0 11 5 14 14 c 2
 230 690 l 2
 232 696 236 700 243 700 c 2
 400 700 l 2
 407 700 411 696 413 690 c 2
 629 14 l 2
 632 5 627 0 619 0 c 2
 492 0 l 2
229 227 m 2
 228 223 230 221 233 221 c 2
 409 221 l 2
 412 221 414 223 413 227 c 2
 323 524 l 2
 322 529 318 528 317 524 c 2xef
 229 227 l 2
EndSplineSet
Validated: 1048577
Substitution2: "'c2sc' Capitals to Small Capitals in Latin lookup 19 subtable" aring.sc
Substitution2: "'aalt' Access All Alternates in Latin lookup 0 subtable" aring.sc
EndChar

StartChar: Atilde
Encoding: 195 195 26
Width: 643
GlyphClass: 2
Flags: MW
HStem: 0 21G<20 24 24 151 488.5 492 492 619> 112 109<196.5 409 233 409 409 410.5 233 444> 527.38 172.62 680 20G<243 400 400 403.5> 759 94<375.5 393 375.5 409> 794 100<254 274>
VStem: 13.17 616.65
AnchorPoint: "Anchor-7" 316 898 basechar 0
AnchorPoint: "Anchor-6" 322 0 basechar 0
LayerCount: 2
Fore
SplineSet
266 794 m 0xd6
 242 794 226 785 213 772 c 0
 208 766 201 765 196 771 c 2
 155 815 l 2
 151 820 149 826 153 832 c 0
 174 868 212 894 259 894 c 0xd6
 290 894 311 882 334 871 c 0
 353 861 367 853 384 853 c 0
 402 853 418 859 432 877 c 0
 438 884 444 884 449 878 c 2
 486 833 l 2
 490 828 491 823 488 817 c 0
 472 784 434 759 384 759 c 0xda
 353 759 335 768 317 777 c 0
 294 788 282 794 266 794 c 0xd6
492 0 m 2
 485 0 481 4 479 10 c 2
 449 108 l 2
 448 110 447 112 444 112 c 2
 198 112 l 2
 195 112 194 110 193 108 c 2
 164 10 l 2
 162 4 158 0 151 0 c 2
 24 0 l 2
 16 0 11 5 14 14 c 2
 230 690 l 2
 232 696 236 700 243 700 c 2
 400 700 l 2
 407 700 411 696 413 690 c 2
 629 14 l 2
 632 5 627 0 619 0 c 2
 492 0 l 2
229 227 m 2
 228 223 230 221 233 221 c 2
 409 221 l 2
 412 221 414 223 413 227 c 2
 323 524 l 2
 322 529 318 528 317 524 c 2xe6
 229 227 l 2
EndSplineSet
Validated: 1048577
Substitution2: "'c2sc' Capitals to Small Capitals in Latin lookup 19 subtable" atilde.sc
Substitution2: "'aalt' Access All Alternates in Latin lookup 0 subtable" atilde.sc
EndChar

StartChar: AE
Encoding: 198 198 27
Width: 929
Flags: MW
HStem: 0 121<564 882 564 882> 112 109<209 413 267 413 267 413> 293 121<562.5 770 564 770> 579 121<562.5 564 564 882>
VStem: 418 141<12 126 107 126 226 288 417.5 419 419 527 527 529.5>
LayerCount: 2
Fore
SplineSet
894 591 m 2xb8
 894 584 889 579 882 579 c 2
 564 579 l 2
 561 579 559 577 559 574 c 2
 559 419 l 2
 559 416 561 414 564 414 c 2
 770 414 l 2
 777 414 782 409 782 402 c 2
 782 305 l 2
 782 298 777 293 770 293 c 2
 564 293 l 2
 561 293 559 291 559 288 c 2
 559 126 l 2
 559 123 561 121 564 121 c 2
 882 121 l 2
 889 121 894 116 894 109 c 2
 894 12 l 2
 894 5 889 0 882 0 c 2
 430 0 l 2
 423 0 418 5 418 12 c 2xb8
 418 107 l 2
 418 110 416 112 413 112 c 2
 210 112 l 2
 208 112 205 110 204 108 c 2x78
 155 9 l 2
 152 3 147 0 141 0 c 2
 12 0 l 2
 3 0 -1 5 3 14 c 2
 346 691 l 2
 349 697 354 700 360 700 c 2
 882 700 l 2
 889 700 894 695 894 688 c 2
 894 591 l 2xb8
263 227 m 2
 261 223 264 221 267 221 c 2
 413 221 l 2
 416 221 418 223 418 226 c 2x78
 418 527 l 2
 418 532 414 532 412 528 c 2
 263 227 l 2
EndSplineSet
Validated: 1
Substitution2: "'c2sc' Capitals to Small Capitals in Latin lookup 19 subtable" ae.sc
Substitution2: "'aalt' Access All Alternates in Latin lookup 0 subtable" ae.sc
EndChar

StartChar: B
Encoding: 66 66 28
Width: 609
Flags: MW
HStem: 0 122<212 337 212 337> 298 115<210.5 328 212 328 328 336> 579 121<210.5 212 212 328>
VStem: 66 141<125.5 127 127 293 416.5 418 418 574> 428 138<473.5 521> 435 141<182.5 234 128 237.5>
LayerCount: 2
Fore
SplineSet
480 365 m 0xf8
 476 363 476 361 480 359 c 0
 544 326 576 272 576 196 c 0xf4
 576 60 471 0 337 0 c 2
 78 0 l 2
 71 0 66 5 66 12 c 2
 66 688 l 2
 66 695 71 700 78 700 c 2
 328 700 l 2
 477 700 566 644 566 508 c 0
 566 439 536 393 480 365 c 0xf8
212 579 m 2
 209 579 207 577 207 574 c 2
 207 418 l 2
 207 415 209 413 212 413 c 2
 328 413 l 2
 391 413 428 444 428 495 c 0
 428 547 391 579 328 579 c 2
 212 579 l 2
337 122 m 2xf4
 399 122 435 155 435 210 c 0
 435 265 398 298 336 298 c 2
 212 298 l 2
 209 298 207 296 207 293 c 2
 207 127 l 2
 207 124 209 122 212 122 c 2
 337 122 l 2xf4
EndSplineSet
Validated: 1
Substitution2: "'c2sc' Capitals to Small Capitals in Latin lookup 19 subtable" b.sc
Substitution2: "'aalt' Access All Alternates in Latin lookup 0 subtable" b.sc
EndChar

StartChar: C
Encoding: 67 67 29
Width: 583
GlyphClass: 2
Flags: MW
HStem: -8 121<263.5 335 263.5 377> 587 121<263.5 335>
VStem: 40 141<235 466 466 470> 418 141<194.5 228 155 232.5 474 505>
AnchorPoint: "Anchor-7" 299 700 basechar 0
AnchorPoint: "Anchor-6" 275 -8 basechar 0
LayerCount: 2
Fore
SplineSet
299 -8 m 0
 143 -8 40 89 40 235 c 2
 40 466 l 2
 40 612 143 708 299 708 c 0
 455 708 559 616 559 477 c 0
 559 471 555 467 547 466 c 2
 430 459 l 2
 422 458 418 462 418 470 c 0
 418 540 371 587 299 587 c 0
 228 587 181 540 181 470 c 2
 181 229 l 2
 181 160 228 113 299 113 c 0
 371 113 418 160 418 229 c 0
 418 236 422 240 430 240 c 2
 547 235 l 2
 554 235 559 231 559 225 c 0
 559 85 455 -8 299 -8 c 0
EndSplineSet
Validated: 1048577
Substitution2: "'c2sc' Capitals to Small Capitals in Latin lookup 19 subtable" c.sc
Substitution2: "'aalt' Access All Alternates in Latin lookup 0 subtable" c.sc
EndChar

StartChar: Cacute
Encoding: 262 262 30
Width: 583
GlyphClass: 2
Flags: MW
HStem: -8 121<263.5 335 263.5 377> 587 121<263.5 335> 762 124<238.5 404 304 327>
VStem: 40 141<235 466 466 470> 418 141<194.5 228 155 232.5 474 505>
AnchorPoint: "Anchor-7" 331 886 basechar 0
AnchorPoint: "Anchor-6" 275 -8 basechar 0
LayerCount: 2
Fore
SplineSet
243 762 m 2
 234 762 231 768 235 776 c 2
 289 877 l 2
 292 883 298 886 304 886 c 2
 404 886 l 2
 414 886 417 879 412 871 c 2
 341 770 l 2
 338 765 333 762 327 762 c 2
 243 762 l 2
299 -8 m 0
 143 -8 40 89 40 235 c 2
 40 466 l 2
 40 612 143 708 299 708 c 0
 455 708 559 616 559 477 c 0
 559 471 555 467 547 466 c 2
 430 459 l 2
 422 458 418 462 418 470 c 0
 418 540 371 587 299 587 c 0
 228 587 181 540 181 470 c 2
 181 229 l 2
 181 160 228 113 299 113 c 0
 371 113 418 160 418 229 c 0
 418 236 422 240 430 240 c 2
 547 235 l 2
 554 235 559 231 559 225 c 0
 559 85 455 -8 299 -8 c 0
EndSplineSet
Validated: 1048577
Substitution2: "'c2sc' Capitals to Small Capitals in Latin lookup 19 subtable" cacute.sc
Substitution2: "'aalt' Access All Alternates in Latin lookup 0 subtable" cacute.sc
EndChar

StartChar: Ccaron
Encoding: 268 268 31
Width: 583
GlyphClass: 2
Flags: MW
HStem: -8 121<263.5 335 263.5 377> 587 121<263.5 335> 758 128<235 238 238 249 249 252 363 371>
VStem: 40 141<235 466 466 470> 418 141<194.5 228 155 232.5 474 505>
AnchorPoint: "Anchor-7" 299 700 basechar 0
AnchorPoint: "Anchor-6" 275 -8 basechar 0
LayerCount: 2
Fore
SplineSet
151 871 m 2
 146 879 149 886 159 886 c 2
 249 886 l 2
 255 886 260 883 263 878 c 2
 303 817 l 2
 305 813 307 813 309 817 c 2
 349 878 l 2
 352 883 357 886 363 886 c 2
 453 886 l 2
 463 886 467 879 461 871 c 2
 385 765 l 2
 381 759 377 758 371 758 c 2
 238 758 l 2
 232 758 227 761 224 766 c 2
 151 871 l 2
299 -8 m 0
 143 -8 40 89 40 235 c 2
 40 466 l 2
 40 612 143 708 299 708 c 0
 455 708 559 616 559 477 c 0
 559 471 555 467 547 466 c 2
 430 459 l 2
 422 458 418 462 418 470 c 0
 418 540 371 587 299 587 c 0
 228 587 181 540 181 470 c 2
 181 229 l 2
 181 160 228 113 299 113 c 0
 371 113 418 160 418 229 c 0
 418 236 422 240 430 240 c 2
 547 235 l 2
 554 235 559 231 559 225 c 0
 559 85 455 -8 299 -8 c 0
EndSplineSet
Validated: 1048577
Substitution2: "'c2sc' Capitals to Small Capitals in Latin lookup 19 subtable" ccaron.sc
Substitution2: "'aalt' Access All Alternates in Latin lookup 0 subtable" ccaron.sc
EndChar

StartChar: Ccedilla
Encoding: 199 199 32
Width: 583
GlyphClass: 2
Flags: MW
HStem: -185.82 80.47 587 121<263.5 335>
VStem: 40 141<235 466 466 470> 281 94.34 418 141<194.5 228 161 232.5 470.5 472 472 477>
AnchorPoint: "Anchor-7" 299 700 basechar 0
AnchorPoint: "Anchor-6" 275 -8 basechar 0
LayerCount: 2
Fore
SplineSet
559 472 m 2
 559 469 555 467 547 466 c 2
 430 459 l 2
 422 458 418 462 418 470 c 0
 418 540 371 587 299 587 c 0
 228 587 181 540 181 470 c 2
 181 229 l 2
 181 160 228 113 299 113 c 0
 371 113 418 160 418 229 c 0
 418 236 422 240 430 240 c 2
 547 235 l 2
 554 235 559 231 559 225 c 0
 559 97 471 7 336 -6 c 0
 332 -7 331 -9 334 -13 c 0
 370 -48 382 -86 372 -122 c 0
 351 -200 259 -191 216 -175 c 0
 209 -173 206 -168 207 -161 c 2
 214 -111 l 2
 215 -102 221 -100 229 -102 c 0
 253 -110 276 -104 281 -83 c 0
 287 -59 266 -30 228 -2 c 0
 226 0 224 0 222 1 c 0
 110 28 40 115 40 235 c 2
 40 466 l 2
 40 612 143 708 299 708 c 0
 455 708 559 616 559 477 c 2
 559 472 l 2
EndSplineSet
Validated: 1048609
Substitution2: "'c2sc' Capitals to Small Capitals in Latin lookup 19 subtable" ccedilla.sc
Substitution2: "'aalt' Access All Alternates in Latin lookup 0 subtable" ccedilla.sc
EndChar

StartChar: Ccircumflex
Encoding: 264 264 33
Width: 583
GlyphClass: 2
Flags: MW
HStem: -8 121<263.5 335 263.5 377> 587 121<263.5 335> 758 128<148 365 232 243 354 357 357 365 365 368 232 447>
VStem: 40 141<235 466 466 470> 418 141<194.5 228 155 232.5 474 505>
AnchorPoint: "Anchor-7" 300 886 basechar 0
AnchorPoint: "Anchor-6" 275 -8 basechar 0
LayerCount: 2
Fore
SplineSet
153 758 m 2
 143 758 140 765 145 773 c 2
 218 878 l 2
 221 883 226 886 232 886 c 2
 365 886 l 2
 371 886 375 884 379 878 c 2
 455 773 l 2
 461 765 457 758 447 758 c 2
 357 758 l 2
 351 758 346 761 343 766 c 2
 303 827 l 2
 301 831 299 831 297 827 c 2
 257 766 l 2
 254 761 249 758 243 758 c 2
 153 758 l 2
299 -8 m 0
 143 -8 40 89 40 235 c 2
 40 466 l 2
 40 612 143 708 299 708 c 0
 455 708 559 616 559 477 c 0
 559 471 555 467 547 466 c 2
 430 459 l 2
 422 458 418 462 418 470 c 0
 418 540 371 587 299 587 c 0
 228 587 181 540 181 470 c 2
 181 229 l 2
 181 160 228 113 299 113 c 0
 371 113 418 160 418 229 c 0
 418 236 422 240 430 240 c 2
 547 235 l 2
 554 235 559 231 559 225 c 0
 559 85 455 -8 299 -8 c 0
EndSplineSet
Validated: 1048577
EndChar

StartChar: Cdotaccent
Encoding: 266 266 34
Width: 583
GlyphClass: 2
Flags: MW
HStem: -8 121<263.5 335 263.5 377> 587 121<263.5 335> 758 158<276 321.5>
VStem: 40 141<235 466 466 470> 220 158<814.5 860.5> 418 141<194.5 228 155 232.5 474 505>
AnchorPoint: "Anchor-7" 299 700 basechar 0
AnchorPoint: "Anchor-6" 275 -8 basechar 0
LayerCount: 2
Fore
SplineSet
299 758 m 0
 253 758 220 792 220 837 c 0
 220 884 253 916 299 916 c 0
 345 916 378 884 378 837 c 0
 378 792 344 758 299 758 c 0
299 -8 m 0
 143 -8 40 89 40 235 c 2
 40 466 l 2
 40 612 143 708 299 708 c 0
 455 708 559 616 559 477 c 0
 559 471 555 467 547 466 c 2
 430 459 l 2
 422 458 418 462 418 470 c 0
 418 540 371 587 299 587 c 0
 228 587 181 540 181 470 c 2
 181 229 l 2
 181 160 228 113 299 113 c 0
 371 113 418 160 418 229 c 0
 418 236 422 240 430 240 c 2
 547 235 l 2
 554 235 559 231 559 225 c 0
 559 85 455 -8 299 -8 c 0
EndSplineSet
Validated: 1048577
Substitution2: "'c2sc' Capitals to Small Capitals in Latin lookup 19 subtable" cdotaccent.sc
Substitution2: "'aalt' Access All Alternates in Latin lookup 0 subtable" cdotaccent.sc
EndChar

StartChar: D
Encoding: 68 68 35
Width: 618
GlyphClass: 2
Flags: MW
HStem: 0 121<212 327> 579 121<210.5 212 212 327 327 332>
VStem: 66 141<124.5 126 126 574> 437 141<235 465 465 488>
AnchorPoint: "Anchor-7" 305 700 basechar 0
LayerCount: 2
Fore
SplineSet
78 0 m 2
 71 0 66 5 66 12 c 2
 66 688 l 2
 66 695 71 700 78 700 c 2
 327 700 l 2
 478 700 578 616 578 488 c 2
 578 212 l 2
 578 84 478 0 327 0 c 2
 78 0 l 2
207 126 m 2
 207 123 209 121 212 121 c 2
 333 121 l 2
 394 121 435 166 437 235 c 2
 437 465 l 2
 437 534 396 579 332 579 c 2
 212 579 l 2
 209 579 207 577 207 574 c 2
 207 126 l 2
EndSplineSet
Validated: 1048577
Substitution2: "'c2sc' Capitals to Small Capitals in Latin lookup 19 subtable" d.sc
Substitution2: "'aalt' Access All Alternates in Latin lookup 0 subtable" d.sc
EndChar

StartChar: Eth
Encoding: 208 208 36
Width: 629
GlyphClass: 2
Flags: MW
HStem: 0 121<223 338> 313 96<29.5 72 33 72 223 298> 579 121<221.5 223 223 338 338 343>
VStem: 77 141<124.5 126 126 308 414 574> 448 141<235 465 465 488>
AnchorPoint: "Anchor-7" 316 700 basechar 0
LayerCount: 2
Fore
SplineSet
338 700 m 2
 490 700 589 616 589 488 c 2
 589 212 l 2
 589 84 490 0 338 0 c 2
 89 0 l 2
 82 0 77 5 77 12 c 2
 77 308 l 2
 77 311 75 313 72 313 c 2
 33 313 l 2
 26 313 21 318 21 325 c 2
 21 397 l 2
 21 404 26 409 33 409 c 2
 72 409 l 2
 75 409 77 411 77 414 c 2
 77 688 l 2
 77 695 82 700 89 700 c 2
 338 700 l 2
448 235 m 2
 448 465 l 2
 448 534 407 579 343 579 c 2
 223 579 l 2
 220 579 218 577 218 574 c 2
 218 414 l 2
 218 411 220 409 223 409 c 2
 298 409 l 2
 305 409 310 404 310 397 c 2
 310 325 l 2
 310 318 305 313 298 313 c 2
 223 313 l 2
 220 313 218 311 218 308 c 2
 218 126 l 2
 218 123 220 121 223 121 c 2
 344 121 l 2
 406 121 447 166 448 235 c 2
EndSplineSet
Validated: 1048577
Substitution2: "'c2sc' Capitals to Small Capitals in Latin lookup 19 subtable" eth.sc
Substitution2: "'aalt' Access All Alternates in Latin lookup 0 subtable" eth.sc
EndChar

StartChar: Dcaron
Encoding: 270 270 37
Width: 618
GlyphClass: 2
Flags: MW
HStem: 0 121<212 327> 579 121<210.5 212 212 327 327 332> 757 128<240 243 243 254 254 257 368 376>
VStem: 66 141<124.5 126 126 574> 437 141<235 465 465 488>
AnchorPoint: "Anchor-7" 305 700 basechar 0
LayerCount: 2
Fore
SplineSet
156 870 m 2
 151 878 154 885 164 885 c 2
 254 885 l 2
 260 885 265 882 268 877 c 2
 308 816 l 2
 310 812 312 812 314 816 c 2
 354 877 l 2
 357 882 362 885 368 885 c 2
 458 885 l 2
 468 885 472 878 466 870 c 2
 390 764 l 2
 386 758 382 757 376 757 c 2
 243 757 l 2
 237 757 232 760 229 765 c 2
 156 870 l 2
78 0 m 2
 71 0 66 5 66 12 c 2
 66 688 l 2
 66 695 71 700 78 700 c 2
 327 700 l 2
 478 700 578 616 578 488 c 2
 578 212 l 2
 578 84 478 0 327 0 c 2
 78 0 l 2
207 126 m 2
 207 123 209 121 212 121 c 2
 333 121 l 2
 394 121 435 166 437 235 c 2
 437 465 l 2
 437 534 396 579 332 579 c 2
 212 579 l 2
 209 579 207 577 207 574 c 2
 207 126 l 2
EndSplineSet
Validated: 1048577
Substitution2: "'c2sc' Capitals to Small Capitals in Latin lookup 19 subtable" dcaron.sc
Substitution2: "'aalt' Access All Alternates in Latin lookup 0 subtable" dcaron.sc
EndChar

StartChar: Dcroat
Encoding: 272 272 38
Width: 629
GlyphClass: 2
Flags: MW
HStem: 0 121<223 338> 313 96<29.5 72 33 72 223 298> 579 121<221.5 223 223 338 338 343>
VStem: 77 141<124.5 126 126 308 414 574> 448 141<235 465 465 488>
AnchorPoint: "Anchor-7" 316 700 basechar 0
LayerCount: 2
Fore
SplineSet
338 700 m 2
 490 700 589 616 589 488 c 2
 589 212 l 2
 589 84 490 0 338 0 c 2
 89 0 l 2
 82 0 77 5 77 12 c 2
 77 308 l 2
 77 311 75 313 72 313 c 2
 33 313 l 2
 26 313 21 318 21 325 c 2
 21 397 l 2
 21 404 26 409 33 409 c 2
 72 409 l 2
 75 409 77 411 77 414 c 2
 77 688 l 2
 77 695 82 700 89 700 c 2
 338 700 l 2
448 235 m 2
 448 465 l 2
 448 534 407 579 343 579 c 2
 223 579 l 2
 220 579 218 577 218 574 c 2
 218 414 l 2
 218 411 220 409 223 409 c 2
 298 409 l 2
 305 409 310 404 310 397 c 2
 310 325 l 2
 310 318 305 313 298 313 c 2
 223 313 l 2
 220 313 218 311 218 308 c 2
 218 126 l 2
 218 123 220 121 223 121 c 2
 344 121 l 2
 406 121 447 166 448 235 c 2
EndSplineSet
Validated: 1048577
Substitution2: "'c2sc' Capitals to Small Capitals in Latin lookup 19 subtable" dcroat.sc
Substitution2: "'aalt' Access All Alternates in Latin lookup 0 subtable" dcroat.sc
EndChar

StartChar: E
Encoding: 69 69 39
Width: 586
GlyphClass: 2
Flags: MW
HStem: 0 121<212 539 212 539> 293 121<210.5 426 212 426> 579 121<210.5 212 212 539>
VStem: 66 141<124.5 126 126 288 417.5 419 419 574>
AnchorPoint: "Anchor-7" 306 700 basechar 0
AnchorPoint: "Anchor-6" 313 0 basechar 0
LayerCount: 2
Fore
SplineSet
551 591 m 2
 551 584 546 579 539 579 c 2
 212 579 l 2
 209 579 207 577 207 574 c 2
 207 419 l 2
 207 416 209 414 212 414 c 2
 426 414 l 2
 433 414 438 409 438 402 c 2
 438 305 l 2
 438 298 433 293 426 293 c 2
 212 293 l 2
 209 293 207 291 207 288 c 2
 207 126 l 2
 207 123 209 121 212 121 c 2
 539 121 l 2
 546 121 551 116 551 109 c 2
 551 12 l 2
 551 5 546 0 539 0 c 2
 78 0 l 2
 71 0 66 5 66 12 c 2
 66 688 l 2
 66 695 71 700 78 700 c 2
 539 700 l 2
 546 700 551 695 551 688 c 2
 551 591 l 2
EndSplineSet
Validated: 1048577
Substitution2: "'c2sc' Capitals to Small Capitals in Latin lookup 19 subtable" e.sc
Substitution2: "'aalt' Access All Alternates in Latin lookup 0 subtable" e.sc
EndChar

StartChar: Eacute
Encoding: 201 201 40
Width: 586
GlyphClass: 2
Flags: MW
HStem: 0 121<212 539 212 539> 293 121<210.5 426 212 426> 579 121<210.5 212 212 539> 762 124<244.5 410 310 333>
VStem: 66 141<124.5 126 126 288 417.5 419 419 574>
AnchorPoint: "Anchor-7" 337 886 basechar 0
AnchorPoint: "Anchor-6" 313 0 basechar 0
LayerCount: 2
Fore
SplineSet
410 886 m 2
 420 886 423 879 418 871 c 2
 347 770 l 2
 344 765 339 762 333 762 c 2
 249 762 l 2
 240 762 237 768 241 776 c 2
 295 877 l 2
 298 883 304 886 310 886 c 2
 410 886 l 2
551 591 m 2
 551 584 546 579 539 579 c 2
 212 579 l 2
 209 579 207 577 207 574 c 2
 207 419 l 2
 207 416 209 414 212 414 c 2
 426 414 l 2
 433 414 438 409 438 402 c 2
 438 305 l 2
 438 298 433 293 426 293 c 2
 212 293 l 2
 209 293 207 291 207 288 c 2
 207 126 l 2
 207 123 209 121 212 121 c 2
 539 121 l 2
 546 121 551 116 551 109 c 2
 551 12 l 2
 551 5 546 0 539 0 c 2
 78 0 l 2
 71 0 66 5 66 12 c 2
 66 688 l 2
 66 695 71 700 78 700 c 2
 539 700 l 2
 546 700 551 695 551 688 c 2
 551 591 l 2
EndSplineSet
Validated: 1048577
Substitution2: "'c2sc' Capitals to Small Capitals in Latin lookup 19 subtable" eacute.sc
Substitution2: "'aalt' Access All Alternates in Latin lookup 0 subtable" eacute.sc
EndChar

StartChar: Ecaron
Encoding: 282 282 41
Width: 586
GlyphClass: 2
Flags: MW
HStem: 0 121<212 539 212 539> 293 121<210.5 426 212 426> 579 121<210.5 212 212 539> 758 128<241 244 244 255 255 258 369 377>
VStem: 66 141<124.5 126 126 288 417.5 419 419 574>
AnchorPoint: "Anchor-7" 306 700 basechar 0
AnchorPoint: "Anchor-6" 313 0 basechar 0
LayerCount: 2
Fore
SplineSet
391 766 m 2
 387 760 383 758 377 758 c 2
 244 758 l 2
 238 758 233 761 230 766 c 2
 157 871 l 2
 152 879 155 886 165 886 c 2
 255 886 l 2
 261 886 266 883 269 878 c 2
 309 817 l 2
 311 813 313 813 315 817 c 2
 355 878 l 2
 358 883 363 886 369 886 c 2
 459 886 l 2
 469 886 473 879 467 871 c 2
 391 766 l 2
551 591 m 2
 551 584 546 579 539 579 c 2
 212 579 l 2
 209 579 207 577 207 574 c 2
 207 419 l 2
 207 416 209 414 212 414 c 2
 426 414 l 2
 433 414 438 409 438 402 c 2
 438 305 l 2
 438 298 433 293 426 293 c 2
 212 293 l 2
 209 293 207 291 207 288 c 2
 207 126 l 2
 207 123 209 121 212 121 c 2
 539 121 l 2
 546 121 551 116 551 109 c 2
 551 12 l 2
 551 5 546 0 539 0 c 2
 78 0 l 2
 71 0 66 5 66 12 c 2
 66 688 l 2
 66 695 71 700 78 700 c 2
 539 700 l 2
 546 700 551 695 551 688 c 2
 551 591 l 2
EndSplineSet
Validated: 1048577
Substitution2: "'c2sc' Capitals to Small Capitals in Latin lookup 19 subtable" ecaron.sc
Substitution2: "'aalt' Access All Alternates in Latin lookup 0 subtable" ecaron.sc
EndChar

StartChar: uni0228
Encoding: 552 552 42
Width: 586
GlyphClass: 2
Flags: MW
HStem: -177.82 80.47 0 121<212 271 375 377 377 539> 293 121<210.5 426 212 426> 579 121<210.5 212 212 539>
VStem: 66 141<124.5 126 126 288 417.5 419 419 574> 319 94.37
AnchorPoint: "Anchor-7" 306 700 basechar 0
AnchorPoint: "Anchor-6" 313 0 basechar 0
LayerCount: 2
Fore
SplineSet
551 591 m 2
 551 584 546 579 539 579 c 2
 212 579 l 2
 209 579 207 577 207 574 c 2
 207 419 l 2
 207 416 209 414 212 414 c 2
 426 414 l 2
 433 414 438 409 438 402 c 2
 438 305 l 2
 438 298 433 293 426 293 c 2
 212 293 l 2
 209 293 207 291 207 288 c 2
 207 126 l 2
 207 123 209 121 212 121 c 2
 539 121 l 2
 546 121 551 116 551 109 c 2
 551 12 l 2
 551 5 546 0 539 0 c 2
 377 0 l 2
 373 0 371 -3 374 -6 c 0
 408 -41 420 -78 410 -114 c 0
 389 -192 297 -183 254 -167 c 0
 247 -165 244 -160 245 -153 c 2
 252 -103 l 2
 253 -94 259 -92 267 -94 c 0
 291 -102 314 -96 319 -75 c 0
 325 -53 308 -27 277 -2 c 0
 275 -1 273 0 271 0 c 2
 78 0 l 2
 71 0 66 5 66 12 c 2
 66 688 l 2
 66 695 71 700 78 700 c 2
 539 700 l 2
 546 700 551 695 551 688 c 2
 551 591 l 2
EndSplineSet
Validated: 1048609
Substitution2: "'c2sc' Capitals to Small Capitals in Latin lookup 19 subtable" uni0229.sc
Substitution2: "'aalt' Access All Alternates in Latin lookup 0 subtable" uni0229.sc
EndChar

StartChar: Ecircumflex
Encoding: 202 202 43
Width: 586
GlyphClass: 2
Flags: MW
HStem: 0 121<212 539 212 539> 293 121<210.5 426 212 426> 579 121<210.5 212 212 539> 758 128<154 371 238 249 360 363 363 371 371 374 238 453>
VStem: 66 141<124.5 126 126 288 417.5 419 419 574>
AnchorPoint: "Anchor-7" 306 886 basechar 0
AnchorPoint: "Anchor-6" 313 0 basechar 0
LayerCount: 2
Fore
SplineSet
309 827 m 2
 307 831 305 831 303 827 c 2
 263 766 l 2
 260 761 255 758 249 758 c 2
 159 758 l 2
 149 758 146 765 151 773 c 2
 224 878 l 2
 227 883 232 886 238 886 c 2
 371 886 l 2
 377 886 381 884 385 878 c 2
 461 773 l 2
 467 765 463 758 453 758 c 2
 363 758 l 2
 357 758 352 761 349 766 c 2
 309 827 l 2
551 591 m 2
 551 584 546 579 539 579 c 2
 212 579 l 2
 209 579 207 577 207 574 c 2
 207 419 l 2
 207 416 209 414 212 414 c 2
 426 414 l 2
 433 414 438 409 438 402 c 2
 438 305 l 2
 438 298 433 293 426 293 c 2
 212 293 l 2
 209 293 207 291 207 288 c 2
 207 126 l 2
 207 123 209 121 212 121 c 2
 539 121 l 2
 546 121 551 116 551 109 c 2
 551 12 l 2
 551 5 546 0 539 0 c 2
 78 0 l 2
 71 0 66 5 66 12 c 2
 66 688 l 2
 66 695 71 700 78 700 c 2
 539 700 l 2
 546 700 551 695 551 688 c 2
 551 591 l 2
EndSplineSet
Validated: 1048577
Substitution2: "'c2sc' Capitals to Small Capitals in Latin lookup 19 subtable" ecircumflex.sc
Substitution2: "'aalt' Access All Alternates in Latin lookup 0 subtable" ecircumflex.sc
EndChar

StartChar: uni1EBE
Encoding: 7870 7870 44
Width: 586
GlyphClass: 2
Flags: MW
HStem: 0 121<212 539 212 539> 293 121<210.5 426 212 426> 579 121<210.5 212 212 539> 758 128<154 371 238 249 360 363 363 371 371 374 238 453> 837 124<457.5 623 523 546>
VStem: 66 141<124.5 126 126 288 417.5 419 419 574>
AnchorPoint: "Anchor-7" 550 961 basechar 0
AnchorPoint: "Anchor-6" 313 0 basechar 0
LayerCount: 2
Fore
SplineSet
508 953 m 2xec
 511 959 517 961 523 961 c 2
 623 961 l 2
 633 961 636 954 631 946 c 2
 560 845 l 2
 557 840 552 837 546 837 c 2
 462 837 l 2
 453 837 450 843 454 851 c 2
 508 953 l 2xec
309 827 m 2xf4
 307 831 305 831 303 827 c 2
 263 766 l 2
 260 761 255 758 249 758 c 2
 159 758 l 2
 149 758 146 765 151 773 c 2
 224 878 l 2
 227 883 232 886 238 886 c 2
 371 886 l 2
 377 886 381 884 385 878 c 2
 461 773 l 2
 467 765 463 758 453 758 c 2
 363 758 l 2
 357 758 352 761 349 766 c 2
 309 827 l 2xf4
78 0 m 2
 71 0 66 5 66 12 c 2
 66 688 l 2
 66 695 71 700 78 700 c 2
 539 700 l 2
 546 700 551 695 551 688 c 2
 551 591 l 2
 551 584 546 579 539 579 c 2
 212 579 l 2
 209 579 207 577 207 574 c 2
 207 419 l 2
 207 416 209 414 212 414 c 2
 426 414 l 2
 433 414 438 409 438 402 c 2
 438 305 l 2
 438 298 433 293 426 293 c 2
 212 293 l 2
 209 293 207 291 207 288 c 2
 207 126 l 2
 207 123 209 121 212 121 c 2
 539 121 l 2
 546 121 551 116 551 109 c 2
 551 12 l 2
 551 5 546 0 539 0 c 2
 78 0 l 2
EndSplineSet
Validated: 1048577
EndChar

StartChar: uni1EC6
Encoding: 7878 7878 45
Width: 586
GlyphClass: 2
Flags: MW
HStem: -213 150<293 337> 0 121<212 539 212 539> 293 121<210.5 426 212 426> 579 121<210.5 212 212 539> 758 128<154 371 238 249 360 363 363 371 371 374 238 453>
VStem: 66 141<124.5 126 126 288 417.5 419 419 574> 240 151<-159.5 -116>
AnchorPoint: "Anchor-7" 306 886 basechar 0
AnchorPoint: "Anchor-6" 313 -216 basechar 0
LayerCount: 2
Fore
SplineSet
309 827 m 2
 307 831 305 831 303 827 c 2
 263 766 l 2
 260 761 255 758 249 758 c 2
 159 758 l 2
 149 758 146 765 151 773 c 2
 224 878 l 2
 227 883 232 886 238 886 c 2
 371 886 l 2
 377 886 381 884 385 878 c 2
 461 773 l 2
 467 765 463 758 453 758 c 2
 363 758 l 2
 357 758 352 761 349 766 c 2
 309 827 l 2
551 591 m 2
 551 584 546 579 539 579 c 2
 212 579 l 2
 209 579 207 577 207 574 c 2
 207 419 l 2
 207 416 209 414 212 414 c 2
 426 414 l 2
 433 414 438 409 438 402 c 2
 438 305 l 2
 438 298 433 293 426 293 c 2
 212 293 l 2
 209 293 207 291 207 288 c 2
 207 126 l 2
 207 123 209 121 212 121 c 2
 539 121 l 2
 546 121 551 116 551 109 c 2
 551 12 l 2
 551 5 546 0 539 0 c 2
 78 0 l 2
 71 0 66 5 66 12 c 2
 66 688 l 2
 66 695 71 700 78 700 c 2
 539 700 l 2
 546 700 551 695 551 688 c 2
 551 591 l 2
315 -63 m 0
 359 -63 391 -94 391 -138 c 0
 391 -181 359 -213 315 -213 c 0
 271 -213 240 -181 240 -138 c 0
 240 -94 271 -63 315 -63 c 0
EndSplineSet
Validated: 1048577
EndChar

StartChar: uni1EC0
Encoding: 7872 7872 46
Width: 586
GlyphClass: 2
Flags: MW
HStem: 0 121<212 539 212 539> 293 121<210.5 426 212 426> 579 121<210.5 212 212 539> 758 128<154 371 238 249 360 363 363 371 371 374 238 453> 880 124<451 454 454 477 477 480 376 537>
VStem: 66 141<124.5 126 126 288 417.5 419 419 574>
AnchorPoint: "Anchor-7" 444 1004 basechar 0
AnchorPoint: "Anchor-6" 313 0 basechar 0
LayerCount: 2
Fore
SplineSet
545 894 m 2xec
 549 886 546 880 537 880 c 2
 454 880 l 2
 448 880 443 883 440 888 c 2
 368 989 l 2
 362 997 366 1004 376 1004 c 2
 477 1004 l 2
 483 1004 489 1001 492 995 c 2
 545 894 l 2xec
309 827 m 2xf4
 307 831 305 831 303 827 c 2
 263 766 l 2
 260 761 255 758 249 758 c 2
 159 758 l 2
 149 758 146 765 151 773 c 2
 224 878 l 2
 227 883 232 886 238 886 c 2
 371 886 l 2
 377 886 381 884 385 878 c 2
 461 773 l 2
 467 765 463 758 453 758 c 2
 363 758 l 2
 357 758 352 761 349 766 c 2
 309 827 l 2xf4
78 0 m 2
 71 0 66 5 66 12 c 2
 66 688 l 2
 66 695 71 700 78 700 c 2
 539 700 l 2
 546 700 551 695 551 688 c 2
 551 591 l 2
 551 584 546 579 539 579 c 2
 212 579 l 2
 209 579 207 577 207 574 c 2
 207 419 l 2
 207 416 209 414 212 414 c 2
 426 414 l 2
 433 414 438 409 438 402 c 2
 438 305 l 2
 438 298 433 293 426 293 c 2
 212 293 l 2
 209 293 207 291 207 288 c 2
 207 126 l 2
 207 123 209 121 212 121 c 2
 539 121 l 2
 546 121 551 116 551 109 c 2
 551 12 l 2
 551 5 546 0 539 0 c 2
 78 0 l 2
EndSplineSet
Validated: 1048577
EndChar

StartChar: uni1EC2
Encoding: 7874 7874 47
Width: 586
GlyphClass: 2
Flags: MW
HStem: 0 121<212 539 212 539> 293 121<210.5 426 212 426> 579 121<210.5 212 212 539> 758 128<154 371 238 249 360 363 363 371 371 374 238 453> 997 68<452 468.5>
VStem: 66 141<124.5 126 126 288 417.5 419 419 574> 489 74<954.5 979.5>
AnchorPoint: "Anchor-7" 459 1064 basechar 0
AnchorPoint: "Anchor-6" 313 0 basechar 0
LayerCount: 2
Fore
SplineSet
461 997 m 0
 443 997 433 990 415 967 c 0
 410 960 404 959 398 964 c 2
 364 989 l 2
 358 993 357 999 362 1006 c 0
 390 1047 417 1065 465 1065 c 0
 525 1065 563 1029 563 973 c 0
 563 920 519 902 499 867 c 0
 495 861 491 859 484 860 c 2
 446 867 l 2
 437 869 434 874 437 882 c 0
 459 937 489 936 489 973 c 0
 489 986 476 997 461 997 c 0
309 827 m 2
 307 831 305 831 303 827 c 2
 263 766 l 2
 260 761 255 758 249 758 c 2
 159 758 l 2
 149 758 146 765 151 773 c 2
 224 878 l 2
 227 883 232 886 238 886 c 2
 371 886 l 2
 377 886 381 884 385 878 c 2
 461 773 l 2
 467 765 463 758 453 758 c 2
 363 758 l 2
 357 758 352 761 349 766 c 2
 309 827 l 2
78 0 m 2
 71 0 66 5 66 12 c 2
 66 688 l 2
 66 695 71 700 78 700 c 2
 539 700 l 2
 546 700 551 695 551 688 c 2
 551 591 l 2
 551 584 546 579 539 579 c 2
 212 579 l 2
 209 579 207 577 207 574 c 2
 207 419 l 2
 207 416 209 414 212 414 c 2
 426 414 l 2
 433 414 438 409 438 402 c 2
 438 305 l 2
 438 298 433 293 426 293 c 2
 212 293 l 2
 209 293 207 291 207 288 c 2
 207 126 l 2
 207 123 209 121 212 121 c 2
 539 121 l 2
 546 121 551 116 551 109 c 2
 551 12 l 2
 551 5 546 0 539 0 c 2
 78 0 l 2
EndSplineSet
Validated: 1048577
EndChar

StartChar: uni1EC4
Encoding: 7876 7876 48
Width: 586
GlyphClass: 2
Flags: MW
HStem: 0 121<212 539 212 539> 293 121<210.5 426 212 426> 579 121<210.5 212 212 539> 758 128<154 371 238 249 360 363 363 371 371 374 238 453> 918 95<361.5 379 361.5 395> 953 100<240 260>
VStem: 66 141<124.5 126 126 288 417.5 419 419 574>
AnchorPoint: "Anchor-7" 302 1057 basechar 0
AnchorPoint: "Anchor-6" 313 0 basechar 0
LayerCount: 2
Fore
SplineSet
252 953 m 0xf6
 228 953 212 944 199 931 c 0
 194 925 187 924 182 930 c 2
 141 974 l 2
 137 979 135 985 139 991 c 0
 161 1027 198 1053 245 1053 c 0xf6
 276 1053 297 1041 320 1030 c 0
 339 1020 353 1013 370 1013 c 0
 388 1013 404 1019 418 1036 c 0
 424 1043 430 1044 435 1037 c 2
 472 992 l 2
 476 987 477 982 474 976 c 0
 458 943 420 918 370 918 c 0xfa
 339 918 321 927 303 936 c 0
 280 947 268 953 252 953 c 0xf6
224 878 m 2
 227 883 232 886 238 886 c 2
 371 886 l 2
 377 886 381 884 385 878 c 2
 461 773 l 2
 467 765 463 758 453 758 c 2
 363 758 l 2
 357 758 352 761 349 766 c 2
 309 827 l 2
 307 831 305 831 303 827 c 2
 263 766 l 2
 260 761 255 758 249 758 c 2
 159 758 l 2
 149 758 146 765 151 773 c 2
 224 878 l 2
551 591 m 2
 551 584 546 579 539 579 c 2
 212 579 l 2
 209 579 207 577 207 574 c 2
 207 419 l 2
 207 416 209 414 212 414 c 2
 426 414 l 2
 433 414 438 409 438 402 c 2
 438 305 l 2
 438 298 433 293 426 293 c 2
 212 293 l 2
 209 293 207 291 207 288 c 2
 207 126 l 2
 207 123 209 121 212 121 c 2
 539 121 l 2
 546 121 551 116 551 109 c 2
 551 12 l 2
 551 5 546 0 539 0 c 2
 78 0 l 2
 71 0 66 5 66 12 c 2
 66 688 l 2
 66 695 71 700 78 700 c 2
 539 700 l 2
 546 700 551 695 551 688 c 2
 551 591 l 2
EndSplineSet
Validated: 1048577
EndChar

StartChar: Edieresis
Encoding: 203 203 49
Width: 586
GlyphClass: 2
Flags: MW
HStem: 0 121<212 539 212 539> 293 121<210.5 426 212 426> 579 121<210.5 212 212 539> 765 157<183 228.5 382 427.5>
VStem: 66 141<124.5 126 126 288 417.5 419 419 574> 127 157<820.5 866.5> 326 158<820.5 866.5>
AnchorPoint: "Anchor-7" 306 700 basechar 0
AnchorPoint: "Anchor-6" 313 0 basechar 0
LayerCount: 2
Fore
SplineSet
206 765 m 0xf6
 160 765 127 798 127 843 c 0
 127 890 160 922 206 922 c 0
 252 922 284 890 284 843 c 0
 284 798 251 765 206 765 c 0xf6
405 765 m 0
 359 765 326 798 326 843 c 0
 326 890 359 922 405 922 c 0
 451 922 484 890 484 843 c 0
 484 798 450 765 405 765 c 0
551 591 m 2
 551 584 546 579 539 579 c 2
 212 579 l 2
 209 579 207 577 207 574 c 2
 207 419 l 2
 207 416 209 414 212 414 c 2
 426 414 l 2
 433 414 438 409 438 402 c 2
 438 305 l 2
 438 298 433 293 426 293 c 2
 212 293 l 2
 209 293 207 291 207 288 c 2
 207 126 l 2
 207 123 209 121 212 121 c 2
 539 121 l 2
 546 121 551 116 551 109 c 2
 551 12 l 2
 551 5 546 0 539 0 c 2
 78 0 l 2
 71 0 66 5 66 12 c 2
 66 688 l 2
 66 695 71 700 78 700 c 2xe8
 539 700 l 2
 546 700 551 695 551 688 c 2
 551 591 l 2
EndSplineSet
Validated: 1048577
Substitution2: "'c2sc' Capitals to Small Capitals in Latin lookup 19 subtable" edieresis.sc
Substitution2: "'aalt' Access All Alternates in Latin lookup 0 subtable" edieresis.sc
EndChar

StartChar: Edotaccent
Encoding: 278 278 50
Width: 586
GlyphClass: 2
Flags: MW
HStem: 0 121<212 539 212 539> 293 121<210.5 426 212 426> 579 121<210.5 212 212 539> 758 158<282 327.5>
VStem: 66 141<124.5 126 126 288 417.5 419 419 574> 226 158<814.5 860.5>
AnchorPoint: "Anchor-7" 306 700 basechar 0
AnchorPoint: "Anchor-6" 313 0 basechar 0
LayerCount: 2
Fore
SplineSet
305 758 m 0
 259 758 226 792 226 837 c 0
 226 884 259 916 305 916 c 0
 351 916 384 884 384 837 c 0
 384 792 350 758 305 758 c 0
551 591 m 2
 551 584 546 579 539 579 c 2
 212 579 l 2
 209 579 207 577 207 574 c 2
 207 419 l 2
 207 416 209 414 212 414 c 2
 426 414 l 2
 433 414 438 409 438 402 c 2
 438 305 l 2
 438 298 433 293 426 293 c 2
 212 293 l 2
 209 293 207 291 207 288 c 2
 207 126 l 2
 207 123 209 121 212 121 c 2
 539 121 l 2
 546 121 551 116 551 109 c 2
 551 12 l 2
 551 5 546 0 539 0 c 2
 78 0 l 2
 71 0 66 5 66 12 c 2
 66 688 l 2
 66 695 71 700 78 700 c 2xe8
 539 700 l 2
 546 700 551 695 551 688 c 2
 551 591 l 2
EndSplineSet
Validated: 1048577
Substitution2: "'c2sc' Capitals to Small Capitals in Latin lookup 19 subtable" edotaccent.sc
Substitution2: "'aalt' Access All Alternates in Latin lookup 0 subtable" edotaccent.sc
EndChar

StartChar: uni1EB8
Encoding: 7864 7864 51
Width: 586
GlyphClass: 2
Flags: MW
HStem: -213 150<293 337> 0 121<212 539 212 539> 293 121<210.5 426 212 426> 579 121<210.5 212 212 539>
VStem: 66 141<124.5 126 126 288 417.5 419 419 574> 240 151<-159.5 -116>
AnchorPoint: "Anchor-7" 306 700 basechar 0
AnchorPoint: "Anchor-6" 313 -216 basechar 0
LayerCount: 2
Fore
SplineSet
551 591 m 2
 551 584 546 579 539 579 c 2
 212 579 l 2
 209 579 207 577 207 574 c 2
 207 419 l 2
 207 416 209 414 212 414 c 2
 426 414 l 2
 433 414 438 409 438 402 c 2
 438 305 l 2
 438 298 433 293 426 293 c 2
 212 293 l 2
 209 293 207 291 207 288 c 2
 207 126 l 2
 207 123 209 121 212 121 c 2
 539 121 l 2
 546 121 551 116 551 109 c 2
 551 12 l 2
 551 5 546 0 539 0 c 2
 78 0 l 2
 71 0 66 5 66 12 c 2
 66 688 l 2
 66 695 71 700 78 700 c 2
 539 700 l 2
 546 700 551 695 551 688 c 2
 551 591 l 2
315 -63 m 0
 359 -63 391 -94 391 -138 c 0
 391 -181 359 -213 315 -213 c 0
 271 -213 240 -181 240 -138 c 0
 240 -94 271 -63 315 -63 c 0
EndSplineSet
Validated: 1048577
EndChar

StartChar: Egrave
Encoding: 200 200 52
Width: 586
GlyphClass: 2
Flags: MW
HStem: 0 121<212 539 212 539> 293 121<210.5 426 212 426> 579 121<210.5 212 212 539> 762 124<266 269 269 292 292 295 191 353>
VStem: 66 141<124.5 126 126 288 417.5 419 419 574>
AnchorPoint: "Anchor-7" 259 886 basechar 0
AnchorPoint: "Anchor-6" 313 0 basechar 0
LayerCount: 2
Fore
SplineSet
361 776 m 2
 365 768 362 762 353 762 c 2
 269 762 l 2
 263 762 258 765 255 770 c 2
 183 871 l 2
 177 879 181 886 191 886 c 2
 292 886 l 2
 298 886 304 883 307 877 c 2
 361 776 l 2
551 591 m 2
 551 584 546 579 539 579 c 2
 212 579 l 2
 209 579 207 577 207 574 c 2
 207 419 l 2
 207 416 209 414 212 414 c 2
 426 414 l 2
 433 414 438 409 438 402 c 2
 438 305 l 2
 438 298 433 293 426 293 c 2
 212 293 l 2
 209 293 207 291 207 288 c 2
 207 126 l 2
 207 123 209 121 212 121 c 2
 539 121 l 2
 546 121 551 116 551 109 c 2
 551 12 l 2
 551 5 546 0 539 0 c 2
 78 0 l 2
 71 0 66 5 66 12 c 2
 66 688 l 2
 66 695 71 700 78 700 c 2
 539 700 l 2
 546 700 551 695 551 688 c 2
 551 591 l 2
EndSplineSet
Validated: 1048577
Substitution2: "'c2sc' Capitals to Small Capitals in Latin lookup 19 subtable" egrave.sc
Substitution2: "'aalt' Access All Alternates in Latin lookup 0 subtable" egrave.sc
EndChar

StartChar: uni1EBA
Encoding: 7866 7866 53
Width: 586
GlyphClass: 2
Flags: MW
HStem: 0 121<212 539 212 539> 293 121<210.5 426 212 426> 579 121<210.5 212 212 539> 876 68<298 314.5>
VStem: 66 141<124.5 126 126 288 417.5 419 419 574> 335 75<833.5 858.5>
AnchorPoint: "Anchor-7" 306 943 basechar 0
AnchorPoint: "Anchor-6" 313 0 basechar 0
LayerCount: 2
Fore
SplineSet
307 876 m 0
 289 876 280 869 262 846 c 0
 257 839 250 838 244 843 c 2
 210 868 l 2
 204 872 203 878 207 885 c 0
 236 927 263 944 311 944 c 0
 371 944 410 909 410 852 c 0
 410 799 366 782 346 747 c 0
 342 740 338 738 331 739 c 2
 292 747 l 2
 284 749 280 754 284 762 c 0
 306 816 335 815 335 852 c 0
 335 865 322 876 307 876 c 0
551 591 m 2
 551 584 546 579 539 579 c 2
 212 579 l 2
 209 579 207 577 207 574 c 2
 207 419 l 2
 207 416 209 414 212 414 c 2
 426 414 l 2
 433 414 438 409 438 402 c 2
 438 305 l 2
 438 298 433 293 426 293 c 2
 212 293 l 2
 209 293 207 291 207 288 c 2
 207 126 l 2
 207 123 209 121 212 121 c 2
 539 121 l 2
 546 121 551 116 551 109 c 2
 551 12 l 2
 551 5 546 0 539 0 c 2
 78 0 l 2
 71 0 66 5 66 12 c 2
 66 688 l 2
 66 695 71 700 78 700 c 2
 539 700 l 2
 546 700 551 695 551 688 c 2
 551 591 l 2
EndSplineSet
Validated: 1048577
EndChar

StartChar: Emacron
Encoding: 274 274 54
Width: 586
GlyphClass: 2
Flags: MW
HStem: 0 121<212 539 212 539> 293 121<210.5 426 212 426> 579 121<210.5 212 212 539> 764 95<167.5 441 171 441>
VStem: 66 141<124.5 126 126 288 417.5 419 419 574>
AnchorPoint: "Anchor-7" 306 700 basechar 0
AnchorPoint: "Anchor-6" 313 0 basechar 0
LayerCount: 2
Fore
SplineSet
441 859 m 2
 448 859 453 854 453 847 c 2
 453 776 l 2
 453 769 448 764 441 764 c 2
 171 764 l 2
 164 764 159 769 159 776 c 2
 159 847 l 2
 159 854 164 859 171 859 c 2
 441 859 l 2
551 591 m 2
 551 584 546 579 539 579 c 2
 212 579 l 2
 209 579 207 577 207 574 c 2
 207 419 l 2
 207 416 209 414 212 414 c 2
 426 414 l 2
 433 414 438 409 438 402 c 2
 438 305 l 2
 438 298 433 293 426 293 c 2
 212 293 l 2
 209 293 207 291 207 288 c 2
 207 126 l 2
 207 123 209 121 212 121 c 2
 539 121 l 2
 546 121 551 116 551 109 c 2
 551 12 l 2
 551 5 546 0 539 0 c 2
 78 0 l 2
 71 0 66 5 66 12 c 2
 66 688 l 2
 66 695 71 700 78 700 c 2
 539 700 l 2
 546 700 551 695 551 688 c 2
 551 591 l 2
EndSplineSet
Validated: 1048577
Substitution2: "'c2sc' Capitals to Small Capitals in Latin lookup 19 subtable" emacron.sc
Substitution2: "'aalt' Access All Alternates in Latin lookup 0 subtable" emacron.sc
EndChar

StartChar: Eogonek
Encoding: 280 280 55
Width: 586
GlyphClass: 2
Flags: MW
HStem: -178.82 80.05 0 121<212 252 357 358 358 539> 293 121<210.5 426 212 426> 579 121<210.5 212 212 539>
VStem: 66 141<124.5 126 126 288 417.5 419 419 574> 214.06 164.44
AnchorPoint: "Anchor-7" 306 700 basechar 0
AnchorPoint: "Anchor-6" 313 0 basechar 0
LayerCount: 2
Fore
SplineSet
551 591 m 2
 551 584 546 579 539 579 c 2
 212 579 l 2
 209 579 207 577 207 574 c 2
 207 419 l 2
 207 416 209 414 212 414 c 2
 426 414 l 2
 433 414 438 409 438 402 c 2
 438 305 l 2
 438 298 433 293 426 293 c 2
 212 293 l 2
 209 293 207 291 207 288 c 2
 207 126 l 2
 207 123 209 121 212 121 c 2xf8
 539 121 l 2
 546 121 551 116 551 109 c 2
 551 12 l 2
 551 5 546 0 539 0 c 2
 358 0 l 2
 356 0 354 -1 352 -2 c 0
 320 -27 302 -54 308 -76 c 0
 314 -97 336 -103 360 -96 c 0
 368 -93 374 -95 375 -104 c 2
 382 -154 l 2
 383 -161 380 -166 373 -168 c 0
 330 -184 238 -193 217 -115 c 0
 208 -79 219 -41 254 -6 c 0
 258 -3 256 0 252 0 c 2xf4
 78 0 l 2
 71 0 66 5 66 12 c 2
 66 688 l 2
 66 695 71 700 78 700 c 2
 539 700 l 2
 546 700 551 695 551 688 c 2
 551 591 l 2
EndSplineSet
Validated: 1048609
Substitution2: "'c2sc' Capitals to Small Capitals in Latin lookup 19 subtable" eogonek.sc
Substitution2: "'aalt' Access All Alternates in Latin lookup 0 subtable" eogonek.sc
EndChar

StartChar: uni1EBC
Encoding: 7868 7868 56
Width: 586
GlyphClass: 2
Flags: MW
HStem: 0 121<212 539 212 539> 293 121<210.5 426 212 426> 579 121<210.5 212 212 539> 759 94<361.5 379 361.5 395> 794 100<240 260>
VStem: 66 141<124.5 126 126 288 417.5 419 419 574>
AnchorPoint: "Anchor-7" 302 898 basechar 0
AnchorPoint: "Anchor-6" 313 0 basechar 0
LayerCount: 2
Fore
SplineSet
252 794 m 0xec
 228 794 212 785 199 772 c 0
 194 766 187 765 182 771 c 2
 141 815 l 2
 137 820 135 826 139 832 c 0
 160 868 198 894 245 894 c 0xec
 276 894 297 882 320 871 c 0
 339 861 353 853 370 853 c 0
 388 853 404 859 418 877 c 0
 424 884 430 884 435 878 c 2
 472 833 l 2
 476 828 477 823 474 817 c 0
 458 784 420 759 370 759 c 0xf4
 339 759 321 768 303 777 c 0
 280 788 268 794 252 794 c 0xec
551 591 m 2
 551 584 546 579 539 579 c 2
 212 579 l 2
 209 579 207 577 207 574 c 2
 207 419 l 2
 207 416 209 414 212 414 c 2
 426 414 l 2
 433 414 438 409 438 402 c 2
 438 305 l 2
 438 298 433 293 426 293 c 2
 212 293 l 2
 209 293 207 291 207 288 c 2
 207 126 l 2
 207 123 209 121 212 121 c 2
 539 121 l 2
 546 121 551 116 551 109 c 2
 551 12 l 2
 551 5 546 0 539 0 c 2
 78 0 l 2
 71 0 66 5 66 12 c 2
 66 688 l 2
 66 695 71 700 78 700 c 2
 539 700 l 2
 546 700 551 695 551 688 c 2
 551 591 l 2
EndSplineSet
Validated: 1048577
EndChar

StartChar: F
Encoding: 70 70 57
Width: 571
Flags: MW
HStem: 0 21G<74.5 78 78 195> 293 121<210.5 426 212 426> 579 121<210.5 212 212 538>
VStem: 66 141<12 288 417.5 419 419 574>
LayerCount: 2
Fore
SplineSet
550 591 m 2
 550 584 545 579 538 579 c 2
 212 579 l 2
 209 579 207 577 207 574 c 2
 207 419 l 2
 207 416 209 414 212 414 c 2
 426 414 l 2
 433 414 438 409 438 402 c 2
 438 305 l 2
 438 298 433 293 426 293 c 2
 212 293 l 2
 209 293 207 291 207 288 c 2
 207 12 l 2
 207 5 202 0 195 0 c 2
 78 0 l 2
 71 0 66 5 66 12 c 2
 66 688 l 2
 66 695 71 700 78 700 c 2
 538 700 l 2
 545 700 550 695 550 688 c 2
 550 591 l 2
EndSplineSet
Validated: 1
Substitution2: "'c2sc' Capitals to Small Capitals in Latin lookup 19 subtable" f.sc
Substitution2: "'aalt' Access All Alternates in Latin lookup 0 subtable" f.sc
EndChar

StartChar: G
Encoding: 71 71 58
Width: 595
GlyphClass: 2
Flags: MW
HStem: -8 121<268 338 268 376> 267 116<297.5 545 301 413> 587 121<262.5 335>
VStem: 39 141<238 462 462 466> 418 139<217 239 239 262 262 263.5>
AnchorPoint: "Anchor-7" 298 704 basechar 0
AnchorPoint: "Anchor-6" 298 -8 basechar 0
LayerCount: 2
Fore
SplineSet
298 -8 m 0
 142 -8 39 91 39 238 c 2
 39 462 l 2
 39 610 142 708 298 708 c 0
 454 708 557 609 557 482 c 2
 557 475 l 2
 557 468 552 463 545 463 c 2
 428 463 l 2
 421 463 416 468 416 475 c 2
 416 478 l 2
 416 538 372 587 298 587 c 0
 227 587 180 538 180 466 c 2
 180 234 l 2
 180 162 232 113 304 113 c 0
 372 113 418 151 418 217 c 2
 418 262 l 2
 418 265 416 267 413 267 c 2
 301 267 l 2
 294 267 289 272 289 279 c 2
 289 371 l 2
 289 378 294 383 301 383 c 2
 545 383 l 2
 552 383 557 378 557 371 c 2
 557 239 l 2
 557 85 454 -8 298 -8 c 0
EndSplineSet
Validated: 1048577
Substitution2: "'c2sc' Capitals to Small Capitals in Latin lookup 19 subtable" g.sc
Substitution2: "'aalt' Access All Alternates in Latin lookup 0 subtable" g.sc
EndChar

StartChar: Gbreve
Encoding: 286 286 59
Width: 595
GlyphClass: 2
Flags: MW
HStem: -8 121<268 338 268 376> 267 116<297.5 545 301 413> 587 121<262.5 335> 747 73<279.5 314.5 279.5 340.5>
VStem: 39 141<238 462 462 466> 418 139<217 239 239 262 262 263.5>
AnchorPoint: "Anchor-7" 298 704 basechar 0
AnchorPoint: "Anchor-6" 298 -8 basechar 0
LayerCount: 2
Fore
SplineSet
297 747 m 0
 211 747 146 796 140 866 c 0
 139 874 143 878 151 878 c 2
 218 878 l 2
 225 878 229 874 230 867 c 0
 236 839 262 820 297 820 c 0
 332 820 359 839 365 867 c 0
 366 874 370 878 377 878 c 2
 443 878 l 2
 451 878 455 874 455 868 c 0
 449 797 384 747 297 747 c 0
298 -8 m 0
 142 -8 39 91 39 238 c 2
 39 462 l 2
 39 610 142 708 298 708 c 0
 454 708 557 609 557 482 c 2
 557 475 l 2
 557 468 552 463 545 463 c 2
 428 463 l 2
 421 463 416 468 416 475 c 2
 416 478 l 2
 416 538 372 587 298 587 c 0
 227 587 180 538 180 466 c 2
 180 234 l 2
 180 162 232 113 304 113 c 0
 372 113 418 151 418 217 c 2
 418 262 l 2
 418 265 416 267 413 267 c 2
 301 267 l 2
 294 267 289 272 289 279 c 2
 289 371 l 2
 289 378 294 383 301 383 c 2
 545 383 l 2
 552 383 557 378 557 371 c 2
 557 239 l 2
 557 85 454 -8 298 -8 c 0
EndSplineSet
Validated: 1048577
Substitution2: "'c2sc' Capitals to Small Capitals in Latin lookup 19 subtable" gbreve.sc
Substitution2: "'aalt' Access All Alternates in Latin lookup 0 subtable" gbreve.sc
EndChar

StartChar: Gcircumflex
Encoding: 284 284 60
Width: 595
GlyphClass: 2
Flags: MW
HStem: -8 121<268 338 268 376> 267 116<297.5 545 301 413> 587 121<262.5 335> 761 128<146 363 230 241 352 355 355 363 363 366 230 445>
VStem: 39 141<238 462 462 466> 418 139<217 239 239 262 262 263.5>
AnchorPoint: "Anchor-7" 298 889 basechar 0
AnchorPoint: "Anchor-6" 298 -8 basechar 0
LayerCount: 2
Fore
SplineSet
151 761 m 2
 141 761 138 768 143 776 c 2
 216 881 l 2
 219 886 224 889 230 889 c 2
 363 889 l 2
 369 889 373 887 377 881 c 2
 453 776 l 2
 459 768 455 761 445 761 c 2
 355 761 l 2
 349 761 344 764 341 769 c 2
 301 830 l 2
 299 834 297 834 295 830 c 2
 255 769 l 2
 252 764 247 761 241 761 c 2
 151 761 l 2
298 -8 m 0
 142 -8 39 91 39 238 c 2
 39 462 l 2
 39 610 142 708 298 708 c 0
 454 708 557 609 557 482 c 2
 557 475 l 2
 557 468 552 463 545 463 c 2
 428 463 l 2
 421 463 416 468 416 475 c 2
 416 478 l 2
 416 538 372 587 298 587 c 0
 227 587 180 538 180 466 c 2
 180 234 l 2
 180 162 232 113 304 113 c 0
 372 113 418 151 418 217 c 2
 418 262 l 2
 418 265 416 267 413 267 c 2
 301 267 l 2
 294 267 289 272 289 279 c 2
 289 371 l 2
 289 378 294 383 301 383 c 2
 545 383 l 2
 552 383 557 378 557 371 c 2
 557 239 l 2
 557 85 454 -8 298 -8 c 0
EndSplineSet
Validated: 1048577
EndChar

StartChar: Gdotaccent
Encoding: 288 288 61
Width: 595
GlyphClass: 2
Flags: MW
HStem: -8 121<268 338 268 376> 267 116<297.5 545 301 413> 587 121<262.5 335> 761 158<274 319.5>
VStem: 39 141<238 462 462 466> 218 158<817.5 863.5> 418 139<217 239 239 262 262 263.5>
AnchorPoint: "Anchor-7" 298 704 basechar 0
AnchorPoint: "Anchor-6" 298 -8 basechar 0
LayerCount: 2
Fore
SplineSet
297 761 m 0
 251 761 218 795 218 840 c 0
 218 887 251 919 297 919 c 0
 343 919 376 887 376 840 c 0
 376 795 342 761 297 761 c 0
298 -8 m 0
 142 -8 39 91 39 238 c 2
 39 462 l 2
 39 610 142 708 298 708 c 0
 454 708 557 609 557 482 c 2
 557 475 l 2
 557 468 552 463 545 463 c 2
 428 463 l 2
 421 463 416 468 416 475 c 2
 416 478 l 2
 416 538 372 587 298 587 c 0
 227 587 180 538 180 466 c 2
 180 234 l 2
 180 162 232 113 304 113 c 0
 372 113 418 151 418 217 c 2
 418 262 l 2
 418 265 416 267 413 267 c 2
 301 267 l 2
 294 267 289 272 289 279 c 2
 289 371 l 2
 289 378 294 383 301 383 c 2
 545 383 l 2
 552 383 557 378 557 371 c 2
 557 239 l 2
 557 85 454 -8 298 -8 c 0
EndSplineSet
Validated: 1048577
Substitution2: "'c2sc' Capitals to Small Capitals in Latin lookup 19 subtable" gdotaccent.sc
Substitution2: "'aalt' Access All Alternates in Latin lookup 0 subtable" gdotaccent.sc
EndChar

StartChar: H
Encoding: 72 72 62
Width: 644
GlyphClass: 2
Flags: MW
HStem: 0 21G<74.5 78 78 195 445.5 449 449 566> 293 121<210.5 432 212 432> 680 20G<78 195 195 198.5 449 566 566 569.5>
VStem: 66 141<12 288 417.5 419 419 688> 437 141<12 288 288 289.5 419 688>
AnchorPoint: "Anchor-8" 322 507 basechar 0
AnchorPoint: "Anchor-7" 323 701 basechar 0
LayerCount: 2
Fore
SplineSet
437 688 m 2
 437 695 442 700 449 700 c 2
 566 700 l 2
 573 700 578 695 578 688 c 2
 578 12 l 2
 578 5 573 0 566 0 c 2
 449 0 l 2
 442 0 437 5 437 12 c 2
 437 288 l 2
 437 291 435 293 432 293 c 2
 212 293 l 2
 209 293 207 291 207 288 c 2
 207 12 l 2
 207 5 202 0 195 0 c 2
 78 0 l 2
 71 0 66 5 66 12 c 2
 66 688 l 2
 66 695 71 700 78 700 c 2
 195 700 l 2
 202 700 207 695 207 688 c 2
 207 419 l 2
 207 416 209 414 212 414 c 2
 432 414 l 2
 435 414 437 416 437 419 c 2
 437 688 l 2
EndSplineSet
Validated: 1048577
Substitution2: "'c2sc' Capitals to Small Capitals in Latin lookup 19 subtable" h.sc
Substitution2: "'aalt' Access All Alternates in Latin lookup 0 subtable" h.sc
EndChar

StartChar: Hbar
Encoding: 294 294 63
Width: 644
GlyphClass: 2
Flags: MW
HStem: 0 21G<74.5 78 78 195 445.5 449 449 566> 293 121<210.5 432 212 432> 507 96<16.5 61 20 61 212 432 583 625> 507 193<16.5 195 20 195 78 212 78 432>
VStem: 66 141<12 288 417.5 419 419 502 608 688> 437 141<12 288 288 289.5 419 502 608 688>
AnchorPoint: "Anchor-8" 322 507 basechar 0
AnchorPoint: "Anchor-7" 323 701 basechar 0
LayerCount: 2
Fore
SplineSet
625 603 m 2xec
 632 603 637 598 637 591 c 2
 637 519 l 2
 637 512 632 507 625 507 c 2
 583 507 l 2
 580 507 578 505 578 502 c 2
 578 12 l 2
 578 5 573 0 566 0 c 2
 449 0 l 2
 442 0 437 5 437 12 c 2
 437 288 l 2
 437 291 435 293 432 293 c 2
 212 293 l 2
 209 293 207 291 207 288 c 2
 207 12 l 2
 207 5 202 0 195 0 c 2
 78 0 l 2
 71 0 66 5 66 12 c 2
 66 502 l 2
 66 505 64 507 61 507 c 2
 20 507 l 2
 13 507 8 512 8 519 c 2
 8 591 l 2
 8 598 13 603 20 603 c 2
 61 603 l 2
 64 603 66 605 66 608 c 2xec
 66 688 l 2
 66 695 71 700 78 700 c 2
 195 700 l 2
 202 700 207 695 207 688 c 2xdc
 207 608 l 2
 207 605 209 603 212 603 c 2
 432 603 l 2
 435 603 437 605 437 608 c 2xec
 437 688 l 2
 437 695 442 700 449 700 c 2
 566 700 l 2
 573 700 578 695 578 688 c 2xdc
 578 608 l 2
 578 605 580 603 583 603 c 2
 625 603 l 2xec
432 414 m 2
 435 414 437 416 437 419 c 2
 437 502 l 2
 437 505 435 507 432 507 c 2
 212 507 l 2
 209 507 207 505 207 502 c 2
 207 419 l 2
 207 416 209 414 212 414 c 2
 432 414 l 2
EndSplineSet
Validated: 1048577
Substitution2: "'c2sc' Capitals to Small Capitals in Latin lookup 19 subtable" hbar.sc
Substitution2: "'aalt' Access All Alternates in Latin lookup 0 subtable" hbar.sc
EndChar

StartChar: Hcircumflex
Encoding: 292 292 64
Width: 644
GlyphClass: 2
Flags: MW
HStem: 0 21G<74.5 78 78 195 445.5 449 449 566> 293 121<210.5 432 212 432> 680 20G<78 195 195 198.5 449 566 566 569.5> 759 128<172 389 256 267 378 381 381 389 389 392 256 471>
VStem: 66 141<12 288 417.5 419 419 688> 437 141<12 288 288 289.5 419 688>
AnchorPoint: "Anchor-8" 322 507 basechar 0
AnchorPoint: "Anchor-7" 324 887 basechar 0
LayerCount: 2
Fore
SplineSet
327 828 m 2
 325 832 323 832 321 828 c 2
 281 767 l 2
 278 762 273 759 267 759 c 2
 177 759 l 2
 167 759 164 766 169 774 c 2
 242 879 l 2
 245 884 250 887 256 887 c 2
 389 887 l 2
 395 887 399 885 403 879 c 2
 479 774 l 2
 485 766 481 759 471 759 c 2
 381 759 l 2
 375 759 370 762 367 767 c 2
 327 828 l 2
437 688 m 2
 437 695 442 700 449 700 c 2
 566 700 l 2
 573 700 578 695 578 688 c 2
 578 12 l 2
 578 5 573 0 566 0 c 2
 449 0 l 2
 442 0 437 5 437 12 c 2
 437 288 l 2
 437 291 435 293 432 293 c 2
 212 293 l 2
 209 293 207 291 207 288 c 2
 207 12 l 2
 207 5 202 0 195 0 c 2
 78 0 l 2
 71 0 66 5 66 12 c 2
 66 688 l 2
 66 695 71 700 78 700 c 2
 195 700 l 2
 202 700 207 695 207 688 c 2
 207 419 l 2
 207 416 209 414 212 414 c 2
 432 414 l 2
 435 414 437 416 437 419 c 2
 437 688 l 2
EndSplineSet
Validated: 1048577
EndChar

StartChar: I
Encoding: 73 73 65
Width: 272
GlyphClass: 2
Flags: MW
HStem: 0 21G<74.5 78 78 195> 680 20G<78 195 195 198.5>
VStem: 66 141<12 688>
AnchorPoint: "Anchor-7" 136 700 basechar 0
AnchorPoint: "Anchor-6" 136 0 basechar 0
LayerCount: 2
Fore
SplineSet
78 0 m 2
 71 0 66 5 66 12 c 2
 66 688 l 2
 66 695 71 700 78 700 c 2
 195 700 l 2
 202 700 207 695 207 688 c 2
 207 12 l 2
 207 5 202 0 195 0 c 2
 78 0 l 2
EndSplineSet
Validated: 1048577
Substitution2: "'c2sc' Capitals to Small Capitals in Latin lookup 19 subtable" i.sc
Substitution2: "'aalt' Access All Alternates in Latin lookup 0 subtable" i.sc
EndChar

StartChar: Iacute
Encoding: 205 205 66
Width: 272
GlyphClass: 2
Flags: MW
HStem: 0 21G<74.5 78 78 195> 680 20G<78 195 195 198.5> 762 124<75.5 241 141 164>
VStem: 66 141<12 688>
AnchorPoint: "Anchor-7" 168 886 basechar 0
AnchorPoint: "Anchor-6" 136 0 basechar 0
LayerCount: 2
Fore
SplineSet
80 762 m 2
 71 762 68 768 72 776 c 2
 126 877 l 2
 129 883 135 886 141 886 c 2
 241 886 l 2
 251 886 254 879 249 871 c 2
 178 770 l 2
 175 765 170 762 164 762 c 2
 80 762 l 2
78 0 m 2
 71 0 66 5 66 12 c 2
 66 688 l 2
 66 695 71 700 78 700 c 2
 195 700 l 2
 202 700 207 695 207 688 c 2
 207 12 l 2
 207 5 202 0 195 0 c 2
 78 0 l 2
EndSplineSet
Validated: 1048577
Substitution2: "'c2sc' Capitals to Small Capitals in Latin lookup 19 subtable" iacute.sc
Substitution2: "'aalt' Access All Alternates in Latin lookup 0 subtable" iacute.sc
EndChar

StartChar: Icircumflex
Encoding: 206 206 67
Width: 272
GlyphClass: 2
Flags: MW
HStem: 0 21G<74.5 78 78 195> 680 20G<78 195 195 198.5> 758 128<-16 201 68 79 190 193 193 201 201 204 68 283>
VStem: 66 141<12 688>
AnchorPoint: "Anchor-7" 136 886 basechar 0
AnchorPoint: "Anchor-6" 136 0 basechar 0
LayerCount: 2
Fore
SplineSet
-11 758 m 2
 -21 758 -24 765 -19 773 c 2
 54 878 l 2
 57 883 62 886 68 886 c 2
 201 886 l 2
 207 886 211 884 215 878 c 2
 291 773 l 2
 297 765 293 758 283 758 c 2
 193 758 l 2
 187 758 182 761 179 766 c 2
 139 827 l 2
 137 831 135 831 133 827 c 2
 93 766 l 2
 90 761 85 758 79 758 c 2
 -11 758 l 2
78 0 m 2
 71 0 66 5 66 12 c 2
 66 688 l 2
 66 695 71 700 78 700 c 2
 195 700 l 2
 202 700 207 695 207 688 c 2
 207 12 l 2
 207 5 202 0 195 0 c 2
 78 0 l 2
EndSplineSet
Validated: 1048577
Substitution2: "'c2sc' Capitals to Small Capitals in Latin lookup 19 subtable" icircumflex.sc
Substitution2: "'aalt' Access All Alternates in Latin lookup 0 subtable" icircumflex.sc
EndChar

StartChar: Idieresis
Encoding: 207 207 68
Width: 272
GlyphClass: 2
Flags: MW
HStem: 0 21G<74.5 78 78 195> 680 20G<78 195 195 198.5> 765 157<14 59.5 213 258.5>
VStem: -42 157<820.5 866.5> 66 141<12 688> 157 158<820.5 866.5>
AnchorPoint: "Anchor-7" 136 700 basechar 0
AnchorPoint: "Anchor-6" 136 0 basechar 0
LayerCount: 2
Fore
SplineSet
37 765 m 0xf4
 -9 765 -42 798 -42 843 c 0
 -42 890 -9 922 37 922 c 0
 83 922 115 890 115 843 c 0
 115 798 82 765 37 765 c 0xf4
236 765 m 0
 190 765 157 798 157 843 c 0
 157 890 190 922 236 922 c 0
 282 922 315 890 315 843 c 0
 315 798 281 765 236 765 c 0
78 0 m 2xe8
 71 0 66 5 66 12 c 2
 66 688 l 2
 66 695 71 700 78 700 c 2
 195 700 l 2
 202 700 207 695 207 688 c 2
 207 12 l 2
 207 5 202 0 195 0 c 2
 78 0 l 2xe8
EndSplineSet
Validated: 1048577
Substitution2: "'c2sc' Capitals to Small Capitals in Latin lookup 19 subtable" idieresis.sc
Substitution2: "'aalt' Access All Alternates in Latin lookup 0 subtable" idieresis.sc
EndChar

StartChar: Idotaccent
Encoding: 304 304 69
Width: 272
GlyphClass: 2
Flags: MW
HStem: 0 21G<74.5 78 78 195> 680 20G<78 195 195 198.5> 758 158<113 158.5>
VStem: 57 158<814.5 860.5> 66 141<12 688>
AnchorPoint: "Anchor-7" 136 700 basechar 0
AnchorPoint: "Anchor-6" 136 0 basechar 0
LayerCount: 2
Fore
SplineSet
136 758 m 0xf0
 90 758 57 792 57 837 c 0
 57 884 90 916 136 916 c 0
 182 916 215 884 215 837 c 0
 215 792 181 758 136 758 c 0xf0
78 0 m 2xe8
 71 0 66 5 66 12 c 2
 66 688 l 2
 66 695 71 700 78 700 c 2
 195 700 l 2
 202 700 207 695 207 688 c 2
 207 12 l 2
 207 5 202 0 195 0 c 2
 78 0 l 2xe8
EndSplineSet
Validated: 1048577
Substitution2: "'c2sc' Capitals to Small Capitals in Latin lookup 19 subtable" i.sc.loclTRK
Substitution2: "'aalt' Access All Alternates in Latin lookup 0 subtable" i.sc.loclTRK
EndChar

StartChar: uni1ECA
Encoding: 7882 7882 70
Width: 272
GlyphClass: 2
Flags: MW
HStem: -213 150<116 160> 0 21G<74.5 78 78 195> 680 20G<78 195 195 198.5>
VStem: 63 151<-159.5 -116> 66 141<12 688>
AnchorPoint: "Anchor-7" 136 700 basechar 0
AnchorPoint: "Anchor-6" 136 -216 basechar 0
LayerCount: 2
Fore
SplineSet
78 0 m 2xe8
 71 0 66 5 66 12 c 2
 66 688 l 2
 66 695 71 700 78 700 c 2
 195 700 l 2
 202 700 207 695 207 688 c 2
 207 12 l 2
 207 5 202 0 195 0 c 2
 78 0 l 2xe8
138 -213 m 0xf0
 94 -213 63 -181 63 -138 c 0
 63 -94 94 -63 138 -63 c 0
 182 -63 214 -94 214 -138 c 0
 214 -181 182 -213 138 -213 c 0xf0
EndSplineSet
Validated: 1048577
EndChar

StartChar: Igrave
Encoding: 204 204 71
Width: 272
GlyphClass: 2
Flags: MW
HStem: 0 21G<74.5 78 78 195> 680 20G<78 195 195 198.5> 762 124<96 99 99 122 122 125 21 183>
VStem: 66 141<12 688>
AnchorPoint: "Anchor-7" 89 886 basechar 0
AnchorPoint: "Anchor-6" 136 0 basechar 0
LayerCount: 2
Fore
SplineSet
191 776 m 2
 195 768 192 762 183 762 c 2
 99 762 l 2
 93 762 88 765 85 770 c 2
 13 871 l 2
 7 879 11 886 21 886 c 2
 122 886 l 2
 128 886 134 883 137 877 c 2
 191 776 l 2
78 0 m 2
 71 0 66 5 66 12 c 2
 66 688 l 2
 66 695 71 700 78 700 c 2
 195 700 l 2
 202 700 207 695 207 688 c 2
 207 12 l 2
 207 5 202 0 195 0 c 2
 78 0 l 2
EndSplineSet
Validated: 1048577
Substitution2: "'c2sc' Capitals to Small Capitals in Latin lookup 19 subtable" igrave.sc
Substitution2: "'aalt' Access All Alternates in Latin lookup 0 subtable" igrave.sc
EndChar

StartChar: uni1EC8
Encoding: 7880 7880 72
Width: 272
GlyphClass: 2
Flags: MW
HStem: 0 21G<74.5 78 78 195> 680 20G<78 195 195 198.5> 876 68<129 145.5>
VStem: 66 141<12 688> 166 75<833.5 858.5>
AnchorPoint: "Anchor-7" 137 943 basechar 0
AnchorPoint: "Anchor-6" 136 0 basechar 0
LayerCount: 2
Fore
SplineSet
123 747 m 2xf0
 115 749 111 754 115 762 c 0
 137 816 166 815 166 852 c 0
 166 865 153 876 138 876 c 0
 120 876 111 869 93 846 c 0
 88 839 81 838 75 843 c 2
 41 868 l 2
 35 872 34 878 38 885 c 0
 67 927 94 944 142 944 c 0
 202 944 241 909 241 852 c 0
 241 799 197 782 177 747 c 0
 173 740 169 737 162 739 c 2xe8
 123 747 l 2xf0
78 0 m 2
 71 0 66 5 66 12 c 2
 66 688 l 2
 66 695 71 700 78 700 c 2
 195 700 l 2
 202 700 207 695 207 688 c 2
 207 12 l 2
 207 5 202 0 195 0 c 2
 78 0 l 2
EndSplineSet
Validated: 1048577
EndChar

StartChar: Imacron
Encoding: 298 298 73
Width: 272
GlyphClass: 2
Flags: MW
HStem: 0 21G<74.5 78 78 195> 680 20G<78 195 195 198.5> 764 95<-1.5 272 2 272>
VStem: 66 141<12 688>
AnchorPoint: "Anchor-7" 136 700 basechar 0
AnchorPoint: "Anchor-6" 136 0 basechar 0
LayerCount: 2
Fore
SplineSet
2 764 m 2
 -5 764 -10 769 -10 776 c 2
 -10 847 l 2
 -10 854 -5 859 2 859 c 2
 272 859 l 2
 279 859 284 854 284 847 c 2
 284 776 l 2
 284 769 279 764 272 764 c 2
 2 764 l 2
78 0 m 2
 71 0 66 5 66 12 c 2
 66 688 l 2
 66 695 71 700 78 700 c 2
 195 700 l 2
 202 700 207 695 207 688 c 2
 207 12 l 2
 207 5 202 0 195 0 c 2
 78 0 l 2
EndSplineSet
Validated: 1048577
Substitution2: "'c2sc' Capitals to Small Capitals in Latin lookup 19 subtable" imacron.sc
Substitution2: "'aalt' Access All Alternates in Latin lookup 0 subtable" imacron.sc
EndChar

StartChar: Iogonek
Encoding: 302 302 74
Width: 254
GlyphClass: 2
Flags: MW
HStem: -192.82 80.47 0 21G<69.5 73 73 90 199 200.5> 680 20G<73 190 190 193.5>
VStem: 36.87 94.13 61 141<12 688>
AnchorPoint: "Anchor-7" 132 700 basechar 0
AnchorPoint: "Anchor-6" 132 0 basechar 0
LayerCount: 2
Fore
SplineSet
183 -109 m 0xf0
 191 -107 197 -109 198 -118 c 2
 205 -168 l 2
 206 -175 203 -180 196 -182 c 0xf0
 153 -198 61 -207 40 -129 c 0
 29 -88 45 -46 92 -6 c 0
 96 -3 94 0 90 0 c 2
 73 0 l 2
 66 0 61 5 61 12 c 2
 61 688 l 2
 61 695 66 700 73 700 c 2
 190 700 l 2
 197 700 202 695 202 688 c 2
 202 12 l 2
 202 5 201 0 200 0 c 0
 198 0 196 -1 194 -2 c 0xe8
 150 -32 123 -64 131 -90 c 0
 136 -111 159 -117 183 -109 c 0xf0
EndSplineSet
Validated: 1048609
Substitution2: "'c2sc' Capitals to Small Capitals in Latin lookup 19 subtable" iogonek.sc
Substitution2: "'aalt' Access All Alternates in Latin lookup 0 subtable" iogonek.sc
EndChar

StartChar: Itilde
Encoding: 296 296 75
Width: 272
GlyphClass: 2
Flags: MW
HStem: 0 21G<74.5 78 78 195> 680 20G<78 195 195 198.5> 759 94<191.5 209 191.5 225.5> 794 100<70 90>
VStem: 66 141<12 688>
AnchorPoint: "Anchor-7" 132 898 basechar 0
AnchorPoint: "Anchor-6" 136 0 basechar 0
LayerCount: 2
Fore
SplineSet
200 759 m 0xe8
 169 759 151 768 133 777 c 0
 110 788 98 794 82 794 c 0
 58 794 42 785 29 772 c 0
 24 766 17 765 12 771 c 2
 -29 815 l 2
 -33 820 -35 826 -31 832 c 0
 -10 868 28 894 75 894 c 0xd8
 106 894 127 882 150 871 c 0
 169 861 183 853 200 853 c 0
 218 853 234 859 248 877 c 0
 254 884 260 884 265 878 c 2
 302 833 l 2
 306 828 307 824 305 819 c 0
 289 785 251 759 200 759 c 0xe8
78 0 m 2
 71 0 66 5 66 12 c 2
 66 688 l 2
 66 695 71 700 78 700 c 2
 195 700 l 2
 202 700 207 695 207 688 c 2
 207 12 l 2
 207 5 202 0 195 0 c 2
 78 0 l 2
EndSplineSet
Validated: 1048577
EndChar

StartChar: J
Encoding: 74 74 76
Width: 588
GlyphClass: 2
Flags: MW
HStem: -8 121<241 307.5 241 349.5> 680 20G<399 515 515 518.5>
VStem: 24 141<220 283 188 286.5> 387 140<220 688>
AnchorPoint: "Anchor-7" 458 701 basechar 0
LayerCount: 2
Fore
SplineSet
275 -8 m 0
 122 -8 24 83 24 220 c 2
 24 283 l 2
 24 290 29 295 36 295 c 2
 153 295 l 2
 160 295 165 290 165 283 c 2
 165 220 l 2
 165 156 207 113 275 113 c 0
 340 113 387 156 387 220 c 2
 387 688 l 2
 387 695 392 700 399 700 c 2
 515 700 l 2
 522 700 527 695 527 688 c 2
 527 220 l 2
 527 83 424 -8 275 -8 c 0
EndSplineSet
Validated: 1048577
Substitution2: "'c2sc' Capitals to Small Capitals in Latin lookup 19 subtable" j.sc
Substitution2: "'aalt' Access All Alternates in Latin lookup 0 subtable" j.sc
EndChar

StartChar: Jcircumflex
Encoding: 308 308 77
Width: 588
GlyphClass: 2
Flags: MW
HStem: -8 121<241 307.5 241 349.5> 680 20G<399 515 515 518.5> 759 128<306 523 390 401 512 515 515 523 523 526 390 605>
VStem: 24 141<220 283 188 286.5> 387 140<220 688>
AnchorPoint: "Anchor-7" 458 887 basechar 0
LayerCount: 2
Fore
SplineSet
311 759 m 2
 301 759 298 766 303 774 c 2
 376 879 l 2
 379 884 384 887 390 887 c 2
 523 887 l 2
 529 887 533 885 537 879 c 2
 613 774 l 2
 619 766 615 759 605 759 c 2
 515 759 l 2
 509 759 504 762 501 767 c 2
 461 828 l 2
 459 832 457 832 455 828 c 2
 415 767 l 2
 412 762 407 759 401 759 c 2
 311 759 l 2
275 -8 m 0
 122 -8 24 83 24 220 c 2
 24 283 l 2
 24 290 29 295 36 295 c 2
 153 295 l 2
 160 295 165 290 165 283 c 2
 165 220 l 2
 165 156 207 113 275 113 c 0
 340 113 387 156 387 220 c 2
 387 688 l 2
 387 695 392 700 399 700 c 2
 515 700 l 2
 522 700 527 695 527 688 c 2
 527 220 l 2
 527 83 424 -8 275 -8 c 0
EndSplineSet
Validated: 1048577
EndChar

StartChar: K
Encoding: 75 75 78
Width: 617
GlyphClass: 2
Flags: MW
HStem: 0 21G<74.5 78 78 195 467 470 470 603> 680 20G<78 195 195 198.5 458 590 590 595>
VStem: 66 141<12 211 406 408 408 688>
AnchorPoint: "Anchor-6" 316 0 basechar 0
LayerCount: 2
Fore
SplineSet
78 0 m 2
 71 0 66 5 66 12 c 2
 66 688 l 2
 66 695 71 700 78 700 c 2
 195 700 l 2
 202 700 207 695 207 688 c 2
 207 408 l 2
 207 404 210 403 213 406 c 2
 443 693 l 2
 447 698 452 700 458 700 c 2
 590 700 l 2
 600 700 604 693 598 685 c 2
 376 400 l 2
 374 397 374 395 375 393 c 2
 611 14 l 2
 616 5 612 0 603 0 c 2
 470 0 l 2
 464 0 459 2 456 8 c 2
 279 296 l 2
 277 299 274 299 272 296 c 2
 209 217 l 2
 208 215 207 213 207 211 c 2
 207 12 l 2
 207 5 202 0 195 0 c 2
 78 0 l 2
EndSplineSet
Validated: 1048577
Substitution2: "'c2sc' Capitals to Small Capitals in Latin lookup 19 subtable" k.sc
Substitution2: "'aalt' Access All Alternates in Latin lookup 0 subtable" k.sc
EndChar

StartChar: L
Encoding: 76 76 79
Width: 569
GlyphClass: 2
Flags: MW
HStem: 0 121<212 539 212 539> 680 20G<78 195 195 198.5>
VStem: 66 141<124.5 126 126 688>
AnchorPoint: "Anchor-7" 135 700 basechar 0
AnchorPoint: "Anchor-6" 284 0 basechar 0
LayerCount: 2
Fore
SplineSet
78 0 m 2
 71 0 66 5 66 12 c 2
 66 688 l 2
 66 695 71 700 78 700 c 2
 195 700 l 2
 202 700 207 695 207 688 c 2
 207 126 l 2
 207 123 209 121 212 121 c 2
 539 121 l 2
 546 121 551 116 551 109 c 2
 551 12 l 2
 551 5 546 0 539 0 c 2
 78 0 l 2
EndSplineSet
Validated: 1048577
Substitution2: "'c2sc' Capitals to Small Capitals in Latin lookup 19 subtable" l.sc
Substitution2: "'aalt' Access All Alternates in Latin lookup 0 subtable" l.sc
EndChar

StartChar: Lacute
Encoding: 313 313 80
Width: 580
GlyphClass: 2
Flags: MW
HStem: 0 121<212 539 212 539> 680 20G<78 195 195 198.5> 762 124<79.5 245 145 168>
VStem: 66 141<124.5 126 126 688>
AnchorPoint: "Anchor-7" 172 886 basechar 0
AnchorPoint: "Anchor-6" 284 0 basechar 0
LayerCount: 2
Fore
SplineSet
84 762 m 2
 75 762 72 768 76 776 c 2
 130 877 l 2
 133 883 139 886 145 886 c 2
 245 886 l 2
 255 886 258 879 253 871 c 2
 182 770 l 2
 179 765 174 762 168 762 c 2
 84 762 l 2
78 0 m 2
 71 0 66 5 66 12 c 2
 66 688 l 2
 66 695 71 700 78 700 c 2
 195 700 l 2
 202 700 207 695 207 688 c 2
 207 126 l 2
 207 123 209 121 212 121 c 2
 539 121 l 2
 546 121 551 116 551 109 c 2
 551 12 l 2
 551 5 546 0 539 0 c 2
 78 0 l 2
EndSplineSet
Validated: 1048577
Substitution2: "'c2sc' Capitals to Small Capitals in Latin lookup 19 subtable" lacute.sc
Substitution2: "'aalt' Access All Alternates in Latin lookup 0 subtable" lacute.sc
EndChar

StartChar: Lcaron
Encoding: 317 317 81
Width: 580
GlyphClass: 2
Flags: MW
HStem: 0 121<212 539 212 539> 576 124<78 272 333 356>
VStem: 66 141<124.5 126 126 688>
AnchorPoint: "Anchor-7" 360 700 basechar 0
AnchorPoint: "Anchor-6" 284 0 basechar 0
LayerCount: 2
Fore
SplineSet
78 0 m 2
 71 0 66 5 66 12 c 2
 66 688 l 2
 66 695 71 700 78 700 c 2
 195 700 l 2
 202 700 207 695 207 688 c 2
 207 126 l 2
 207 123 209 121 212 121 c 2
 539 121 l 2
 546 121 551 116 551 109 c 2
 551 12 l 2
 551 5 546 0 539 0 c 2
 78 0 l 2
272 576 m 2
 263 576 260 582 264 590 c 2
 318 691 l 2
 321 697 327 700 333 700 c 2
 433 700 l 2
 443 700 446 693 441 685 c 2
 370 584 l 2
 367 579 362 576 356 576 c 2
 272 576 l 2
EndSplineSet
Validated: 1048577
Substitution2: "'c2sc' Capitals to Small Capitals in Latin lookup 19 subtable" lcaron.sc
Substitution2: "'aalt' Access All Alternates in Latin lookup 0 subtable" lcaron.sc
EndChar

StartChar: uni013B
Encoding: 315 315 82
Width: 580
GlyphClass: 2
Flags: MW
HStem: -174 124<182.5 348 248 271> 0 121<212 539 212 539> 680 20G<78 195 195 198.5>
VStem: 66 141<124.5 126 126 688>
AnchorPoint: "Anchor-7" 135 700 basechar 0
AnchorPoint: "Anchor-6" 284 0 basechar 0
LayerCount: 2
Fore
SplineSet
78 0 m 2
 71 0 66 5 66 12 c 2
 66 688 l 2
 66 695 71 700 78 700 c 2
 195 700 l 2
 202 700 207 695 207 688 c 2
 207 126 l 2
 207 123 209 121 212 121 c 2
 539 121 l 2
 546 121 551 116 551 109 c 2
 551 12 l 2
 551 5 546 0 539 0 c 2
 78 0 l 2
187 -174 m 2
 178 -174 175 -168 179 -160 c 2
 233 -59 l 2
 236 -53 242 -50 248 -50 c 2
 348 -50 l 2
 358 -50 361 -57 356 -65 c 2
 285 -166 l 2
 282 -171 277 -174 271 -174 c 2
 187 -174 l 2
EndSplineSet
Validated: 1048577
Substitution2: "'c2sc' Capitals to Small Capitals in Latin lookup 19 subtable" uni013C.sc
Substitution2: "'aalt' Access All Alternates in Latin lookup 0 subtable" uni013C.sc
EndChar

StartChar: Lslash
Encoding: 321 321 83
Width: 646
GlyphClass: 2
Flags: MW
HStem: 0 121<286 613 286 613> 680 20G<152 269 269 272.5>
VStem: 140 141<124.5 126 126 197 197 199 467 469 469 688>
AnchorPoint: "Anchor-7" 210 700 basechar 0
AnchorPoint: "Anchor-6" 358 0 basechar 0
LayerCount: 2
Fore
SplineSet
281 126 m 2
 281 123 283 121 286 121 c 2
 613 121 l 2
 620 121 625 116 625 109 c 2
 625 12 l 2
 625 5 620 0 613 0 c 2
 152 0 l 2
 145 0 140 5 140 12 c 2
 140 197 l 2
 140 201 137 203 134 200 c 2
 55 134 l 2
 49 129 43 129 38 135 c 2
 -15 198 l 2
 -20 204 -20 210 -14 215 c 2
 137 341 l 2
 139 342 140 345 140 347 c 2
 140 688 l 2
 140 695 145 700 152 700 c 2
 269 700 l 2
 276 700 281 695 281 688 c 2
 281 469 l 2
 281 465 284 463 287 466 c 2
 466 615 l 2
 472 620 478 620 483 614 c 2
 536 551 l 2
 541 545 541 539 535 534 c 2
 284 324 l 2
 282 323 281 320 281 318 c 2
 281 126 l 2
EndSplineSet
Validated: 1048577
Substitution2: "'c2sc' Capitals to Small Capitals in Latin lookup 19 subtable" lslash.sc
Substitution2: "'aalt' Access All Alternates in Latin lookup 0 subtable" lslash.sc
EndChar

StartChar: M
Encoding: 77 77 84
Width: 723
Flags: MW
HStem: 0 21G<73.5 77 77 194 525.5 529 529 646> 271 180<333 517> 680 20G<77 194 194 197 529 646 646 649.5>
VStem: 65 141<12 450> 517 141<12 451 451 453.5>
LayerCount: 2
Fore
SplineSet
515 692 m 2
 518 698 523 700 529 700 c 2
 646 700 l 2
 653 700 658 695 658 688 c 2
 658 12 l 2
 658 5 653 0 646 0 c 2
 529 0 l 2
 522 0 517 5 517 12 c 2
 517 451 l 2
 517 456 513 457 511 453 c 2
 405 279 l 2
 402 273 397 271 391 271 c 2
 333 271 l 2
 327 271 322 273 319 279 c 2
 212 452 l 2
 210 456 206 455 206 450 c 2
 206 12 l 2
 206 5 201 0 194 0 c 2
 77 0 l 2
 70 0 65 5 65 12 c 2
 65 688 l 2
 65 695 70 700 77 700 c 2
 194 700 l 2
 200 700 205 698 208 692 c 2
 359 454 l 2
 361 450 363 450 365 454 c 2
 515 692 l 2
EndSplineSet
Validated: 1
Substitution2: "'c2sc' Capitals to Small Capitals in Latin lookup 19 subtable" m.sc
Substitution2: "'aalt' Access All Alternates in Latin lookup 0 subtable" m.sc
EndChar

StartChar: N
Encoding: 78 78 85
Width: 674
GlyphClass: 2
Flags: MW
HStem: 0 21G<73.5 77 77 194 468 471 471 597> 680 20G<77 204 204 207 480 597 597 600.5>
VStem: 65 141<8.5 688> 468 141<270 688>
AnchorPoint: "Anchor-7" 330 700 basechar 0
AnchorPoint: "Anchor-6" 338 0 basechar 0
LayerCount: 2
Fore
SplineSet
468 688 m 2
 468 695 473 700 480 700 c 2
 597 700 l 2
 604 700 609 695 609 688 c 2
 609 12 l 2
 609 5 604 0 597 0 c 2
 471 0 l 2
 465 0 459 2 456 8 c 2
 211 432 l 2
 209 436 205 435 205 430 c 2
 206 12 l 2
 206 5 201 0 194 0 c 2
 77 0 l 2
 70 0 65 5 65 12 c 2
 65 688 l 2
 65 695 70 700 77 700 c 2
 204 700 l 2
 210 700 216 697 219 692 c 2
 462 268 l 2
 464 264 468 265 468 270 c 2
 468 688 l 2
EndSplineSet
Validated: 1048577
Substitution2: "'c2sc' Capitals to Small Capitals in Latin lookup 19 subtable" n.sc
Substitution2: "'aalt' Access All Alternates in Latin lookup 0 subtable" n.sc
EndChar

StartChar: Nacute
Encoding: 323 323 86
Width: 684
GlyphClass: 2
Flags: MW
HStem: 0 21G<73.5 77 77 194 468 471 471 597> 680 20G<77 204 204 207 480 597 597 600.5> 762 124<274.5 440 339 362>
VStem: 65 141<8.5 688> 468 141<270 688>
AnchorPoint: "Anchor-7" 366 886 basechar 0
AnchorPoint: "Anchor-6" 338 0 basechar 0
LayerCount: 2
Fore
SplineSet
440 886 m 2
 450 886 453 879 448 871 c 2
 376 770 l 2
 373 765 368 762 362 762 c 2
 279 762 l 2
 270 762 267 768 271 776 c 2
 324 877 l 2
 327 883 333 886 339 886 c 2
 440 886 l 2
468 688 m 2
 468 695 473 700 480 700 c 2
 597 700 l 2
 604 700 609 695 609 688 c 2
 609 12 l 2
 609 5 604 0 597 0 c 2
 471 0 l 2
 465 0 459 2 456 8 c 2
 211 432 l 2
 209 436 205 435 205 430 c 2
 206 12 l 2
 206 5 201 0 194 0 c 2
 77 0 l 2
 70 0 65 5 65 12 c 2
 65 688 l 2
 65 695 70 700 77 700 c 2
 204 700 l 2
 210 700 216 697 219 692 c 2
 462 268 l 2
 464 264 468 265 468 270 c 2
 468 688 l 2
EndSplineSet
Validated: 1048577
Substitution2: "'c2sc' Capitals to Small Capitals in Latin lookup 19 subtable" nacute.sc
Substitution2: "'aalt' Access All Alternates in Latin lookup 0 subtable" nacute.sc
EndChar

StartChar: Ncaron
Encoding: 327 327 87
Width: 684
GlyphClass: 2
Flags: MW
HStem: 0 21G<73.5 77 77 194 468 471 471 597> 680 20G<77 204 204 207 480 597 597 600.5> 758 128<271 274 274 284 284 287 399 406>
VStem: 65 141<8.5 688> 468 141<270 688>
AnchorPoint: "Anchor-7" 330 700 basechar 0
AnchorPoint: "Anchor-6" 338 0 basechar 0
LayerCount: 2
Fore
SplineSet
420 766 m 2
 416 760 412 758 406 758 c 2
 274 758 l 2
 268 758 263 761 260 766 c 2
 186 871 l 2
 181 879 184 886 194 886 c 2
 284 886 l 2
 290 886 295 883 298 878 c 2
 338 816 l 2
 340 812 343 812 345 816 c 2
 385 878 l 2
 388 883 393 886 399 886 c 2
 488 886 l 2
 498 886 502 879 496 871 c 2
 420 766 l 2
468 688 m 2
 468 695 473 700 480 700 c 2
 597 700 l 2
 604 700 609 695 609 688 c 2
 609 12 l 2
 609 5 604 0 597 0 c 2
 471 0 l 2
 465 0 459 2 456 8 c 2
 211 432 l 2
 209 436 205 435 205 430 c 2
 206 12 l 2
 206 5 201 0 194 0 c 2
 77 0 l 2
 70 0 65 5 65 12 c 2
 65 688 l 2
 65 695 70 700 77 700 c 2
 204 700 l 2
 210 700 216 697 219 692 c 2
 462 268 l 2
 464 264 468 265 468 270 c 2
 468 688 l 2
EndSplineSet
Validated: 1048577
Substitution2: "'c2sc' Capitals to Small Capitals in Latin lookup 19 subtable" ncaron.sc
Substitution2: "'aalt' Access All Alternates in Latin lookup 0 subtable" ncaron.sc
EndChar

StartChar: Eng
Encoding: 330 330 88
Width: 679
GlyphClass: 2
Flags: MW
HStem: -183 117<363 363> 0 21G<73.5 77 77 194 461 462 461 461 606 607.5> 680 20G<77 204 204 207 480 597 597 600.5>
VStem: 65 141<8.5 688> 463 146<279 523 523 526.5>
AnchorPoint: "Anchor-7" 330 700 basechar 0
AnchorPoint: "Anchor-6" 338 0 basechar 0
LayerCount: 2
Fore
SplineSet
597 700 m 2
 604 700 609 695 609 688 c 2
 609 12 l 2
 609 5 608 0 607 0 c 0
 605 0 604 -2 604 -5 c 0
 598 -143 542 -187 363 -183 c 0
 355 -183 351 -178 351 -171 c 2
 351 -77 l 2
 351 -69 356 -65 364 -66 c 0
 431 -68 457 -50 462 -3 c 0
 462 -1 462 0 462 0 c 1
 461 0 l 1
 211 432 l 2
 209 436 205 435 205 430 c 2
 206 12 l 2
 206 5 201 0 194 0 c 2
 77 0 l 2
 70 0 65 5 65 12 c 2
 65 688 l 2
 65 695 70 700 77 700 c 2
 204 700 l 2
 210 700 216 698 219 692 c 2
 457 277 l 2
 459 273 463 274 463 279 c 2
 463 523 l 2
 463 530 465 535 466 535 c 0
 467 535 468 537 468 540 c 2
 468 688 l 2
 468 695 473 700 480 700 c 2
 597 700 l 2
EndSplineSet
Validated: 1048609
Substitution2: "'c2sc' Capitals to Small Capitals in Latin lookup 19 subtable" eng.sc
Substitution2: "'aalt' Access All Alternates in Latin lookup 0 subtable" eng.sc
EndChar

StartChar: Ntilde
Encoding: 209 209 89
Width: 684
GlyphClass: 2
Flags: MW
HStem: 0 21G<73.5 77 77 194 468 471 471 597> 680 20G<77 204 204 207 480 597 597 600.5> 759 94<389.5 407 389.5 423> 793 100<269 289>
VStem: 65 141<8.5 688> 468 141<270 688>
AnchorPoint: "Anchor-7" 331 897 basechar 0
AnchorPoint: "Anchor-6" 338 0 basechar 0
LayerCount: 2
Fore
SplineSet
281 793 m 0xdc
 257 793 240 785 228 772 c 0
 222 766 216 765 211 771 c 2
 170 815 l 2
 165 820 164 825 168 831 c 0
 189 868 227 893 273 893 c 0xdc
 305 893 325 881 348 870 c 0
 368 861 381 853 398 853 c 0
 416 853 432 859 446 876 c 0
 452 883 458 884 463 878 c 2
 501 833 l 2
 505 828 506 823 503 817 c 0
 486 784 448 759 398 759 c 0xec
 367 759 349 768 331 777 c 0
 308 788 297 793 281 793 c 0xdc
468 688 m 2xec
 468 695 473 700 480 700 c 2
 597 700 l 2
 604 700 609 695 609 688 c 2
 609 12 l 2
 609 5 604 0 597 0 c 2
 471 0 l 2
 465 0 459 2 456 8 c 2
 211 432 l 2
 209 436 205 435 205 430 c 2
 206 12 l 2
 206 5 201 0 194 0 c 2
 77 0 l 2
 70 0 65 5 65 12 c 2
 65 688 l 2
 65 695 70 700 77 700 c 2
 204 700 l 2
 210 700 216 697 219 692 c 2
 462 268 l 2
 464 264 468 265 468 270 c 2
 468 688 l 2xec
EndSplineSet
Validated: 1048577
Substitution2: "'c2sc' Capitals to Small Capitals in Latin lookup 19 subtable" ntilde.sc
Substitution2: "'aalt' Access All Alternates in Latin lookup 0 subtable" ntilde.sc
EndChar

StartChar: O
Encoding: 79 79 90
Width: 607
GlyphClass: 2
Flags: MW
HStem: -11 121<266.5 340 266.5 382> 587 121<266.5 340>
VStem: 40 141<243 457 457 458> 426 141<238 243 243 457>
AnchorPoint: "Anchor-9" 506 700 basechar 0
AnchorPoint: "Anchor-7" 303 700 basechar 0
AnchorPoint: "Anchor-6" 304 0 basechar 0
LayerCount: 2
Fore
SplineSet
303 -11 m 0
 145 -11 40 91 40 243 c 2
 40 457 l 2
 40 607 145 708 303 708 c 0
 461 708 567 607 567 457 c 2
 567 243 l 2
 567 91 461 -11 303 -11 c 0
303 110 m 0
 377 110 426 161 426 238 c 2
 426 458 l 2
 426 536 377 587 303 587 c 0
 230 587 181 536 181 458 c 2
 181 238 l 2
 181 161 230 110 303 110 c 0
EndSplineSet
Validated: 1048577
Substitution2: "Single Substitution lookup 25 subtable" ordmasculine
Substitution2: "'c2sc' Capitals to Small Capitals in Latin lookup 19 subtable" o.sc
AlternateSubs2: "'aalt' Access All Alternates in Latin lookup 1 subtable" ordmasculine o.sc
EndChar

StartChar: Oacute
Encoding: 211 211 91
Width: 618
GlyphClass: 2
Flags: MW
HStem: -11 121<266.5 340 266.5 382> 587 121<266.5 340> 762 124<248.5 414 313 336>
VStem: 40 141<243 457 457 458> 426 141<238 243 243 457>
AnchorPoint: "Anchor-9" 506 700 basechar 0
AnchorPoint: "Anchor-7" 340 886 basechar 0
AnchorPoint: "Anchor-6" 304 0 basechar 0
LayerCount: 2
Fore
SplineSet
253 762 m 2
 244 762 241 768 245 776 c 2
 298 877 l 2
 301 883 307 886 313 886 c 2
 414 886 l 2
 424 886 427 879 422 871 c 2
 350 770 l 2
 347 765 342 762 336 762 c 2
 253 762 l 2
303 -11 m 0
 145 -11 40 91 40 243 c 2
 40 457 l 2
 40 607 145 708 303 708 c 0
 461 708 567 607 567 457 c 2
 567 243 l 2
 567 91 461 -11 303 -11 c 0
303 110 m 0
 377 110 426 161 426 238 c 2
 426 458 l 2
 426 536 377 587 303 587 c 0
 230 587 181 536 181 458 c 2
 181 238 l 2
 181 161 230 110 303 110 c 0
EndSplineSet
Validated: 1048577
Substitution2: "'c2sc' Capitals to Small Capitals in Latin lookup 19 subtable" oacute.sc
Substitution2: "'aalt' Access All Alternates in Latin lookup 0 subtable" oacute.sc
EndChar

StartChar: Ocircumflex
Encoding: 212 212 92
Width: 618
GlyphClass: 2
Flags: MW
HStem: -11 121<266.5 340 266.5 382> 587 121<266.5 340> 758 128<157 374 241 252 363 366 366 374 374 377 241 456>
VStem: 40 141<243 457 457 458> 426 141<238 243 243 457>
AnchorPoint: "Anchor-9" 506 700 basechar 0
AnchorPoint: "Anchor-7" 309 886 basechar 0
AnchorPoint: "Anchor-6" 304 0 basechar 0
LayerCount: 2
Fore
SplineSet
162 758 m 2
 152 758 149 765 154 773 c 2
 227 878 l 2
 230 883 235 886 241 886 c 2
 374 886 l 2
 380 886 384 884 388 878 c 2
 464 773 l 2
 470 765 466 758 456 758 c 2
 366 758 l 2
 360 758 355 761 352 766 c 2
 312 827 l 2
 310 831 308 831 306 827 c 2
 266 766 l 2
 263 761 258 758 252 758 c 2
 162 758 l 2
303 -11 m 0
 145 -11 40 91 40 243 c 2
 40 457 l 2
 40 607 145 708 303 708 c 0
 461 708 567 607 567 457 c 2
 567 243 l 2
 567 91 461 -11 303 -11 c 0
303 110 m 0
 377 110 426 161 426 238 c 2
 426 458 l 2
 426 536 377 587 303 587 c 0
 230 587 181 536 181 458 c 2
 181 238 l 2
 181 161 230 110 303 110 c 0
EndSplineSet
Validated: 1048577
Substitution2: "'c2sc' Capitals to Small Capitals in Latin lookup 19 subtable" ocircumflex.sc
Substitution2: "'aalt' Access All Alternates in Latin lookup 0 subtable" ocircumflex.sc
EndChar

StartChar: uni1ED0
Encoding: 7888 7888 93
Width: 607
GlyphClass: 2
Flags: MW
HStem: -11 121<266.5 340 266.5 382> 587 121<266.5 340> 758 128<151 368 235 246 357 360 360 368 368 371 235 450> 837 124<454.5 620 520 543>
VStem: 40 141<243 457 457 458> 426 141<238 243 243 457>
AnchorPoint: "Anchor-9" 506 700 basechar 0
AnchorPoint: "Anchor-7" 547 961 basechar 0
AnchorPoint: "Anchor-6" 304 0 basechar 0
LayerCount: 2
Fore
SplineSet
459 837 m 2xdc
 450 837 447 843 451 851 c 2
 505 952 l 2
 508 958 514 961 520 961 c 2
 620 961 l 2
 630 961 633 954 628 946 c 2
 557 845 l 2
 554 840 549 837 543 837 c 2
 459 837 l 2xdc
156 758 m 2xec
 146 758 143 765 148 773 c 2
 221 878 l 2
 224 883 229 886 235 886 c 2
 368 886 l 2
 374 886 378 884 382 878 c 2
 458 773 l 2
 464 765 460 758 450 758 c 2
 360 758 l 2
 354 758 349 761 346 766 c 2
 306 827 l 2
 304 831 302 831 300 827 c 2
 260 766 l 2
 257 761 252 758 246 758 c 2
 156 758 l 2xec
303 -11 m 0
 145 -11 40 91 40 243 c 2
 40 457 l 2
 40 607 145 708 303 708 c 0
 461 708 567 607 567 457 c 2
 567 243 l 2
 567 91 461 -11 303 -11 c 0
303 110 m 0
 377 110 426 161 426 238 c 2
 426 458 l 2
 426 536 377 587 303 587 c 0
 230 587 181 536 181 458 c 2
 181 238 l 2
 181 161 230 110 303 110 c 0
EndSplineSet
Validated: 1048577
EndChar

StartChar: uni1ED8
Encoding: 7896 7896 94
Width: 607
GlyphClass: 2
Flags: MW
HStem: -213 150<283 327> -11 121<266.5 340 266.5 382> 587 121<266.5 340> 758 128<151 368 235 246 357 360 360 368 368 371 235 450>
VStem: 40 141<243 457 457 458> 230 151<-159.5 -116> 426 141<238 243 243 457>
AnchorPoint: "Anchor-9" 506 700 basechar 0
AnchorPoint: "Anchor-7" 303 886 basechar 0
AnchorPoint: "Anchor-6" 303 -216 basechar 0
LayerCount: 2
Fore
SplineSet
156 758 m 2
 146 758 143 765 148 773 c 2
 221 878 l 2
 224 883 229 886 235 886 c 2
 368 886 l 2
 374 886 378 884 382 878 c 2
 458 773 l 2
 464 765 460 758 450 758 c 2
 360 758 l 2
 354 758 349 761 346 766 c 2
 306 827 l 2
 304 831 302 831 300 827 c 2
 260 766 l 2
 257 761 252 758 246 758 c 2
 156 758 l 2
303 -11 m 0
 145 -11 40 91 40 243 c 2
 40 457 l 2
 40 607 145 708 303 708 c 0
 461 708 567 607 567 457 c 2
 567 243 l 2
 567 91 461 -11 303 -11 c 0
303 110 m 0
 377 110 426 161 426 238 c 2
 426 458 l 2
 426 536 377 587 303 587 c 0
 230 587 181 536 181 458 c 2
 181 238 l 2
 181 161 230 110 303 110 c 0
305 -213 m 0
 261 -213 230 -181 230 -138 c 0
 230 -94 261 -63 305 -63 c 0
 349 -63 381 -94 381 -138 c 0
 381 -181 349 -213 305 -213 c 0
EndSplineSet
Validated: 1048577
EndChar

StartChar: uni1ED2
Encoding: 7890 7890 95
Width: 607
GlyphClass: 2
Flags: MW
HStem: -11 121<266.5 340 266.5 382> 587 121<266.5 340> 758 128<151 368 235 246 357 360 360 368 368 371 235 450> 880 124<448 451 451 474 474 477 373 534>
VStem: 40 141<243 457 457 458> 426 141<238 243 243 457>
AnchorPoint: "Anchor-9" 506 700 basechar 0
AnchorPoint: "Anchor-7" 441 1004 basechar 0
AnchorPoint: "Anchor-6" 304 0 basechar 0
LayerCount: 2
Fore
SplineSet
542 894 m 2xdc
 546 886 543 880 534 880 c 2
 451 880 l 2
 445 880 440 883 437 888 c 2
 365 989 l 2
 359 997 363 1004 373 1004 c 2
 474 1004 l 2
 480 1004 486 1001 489 995 c 2
 542 894 l 2xdc
156 758 m 2xec
 146 758 143 765 148 773 c 2
 221 878 l 2
 224 883 229 886 235 886 c 2
 368 886 l 2
 374 886 378 884 382 878 c 2
 458 773 l 2
 464 765 460 758 450 758 c 2
 360 758 l 2
 354 758 349 761 346 766 c 2
 306 827 l 2
 304 831 302 831 300 827 c 2
 260 766 l 2
 257 761 252 758 246 758 c 2
 156 758 l 2xec
303 -11 m 0
 145 -11 40 91 40 243 c 2
 40 457 l 2
 40 607 145 708 303 708 c 0
 461 708 567 607 567 457 c 2
 567 243 l 2
 567 91 461 -11 303 -11 c 0
303 110 m 0
 377 110 426 161 426 238 c 2
 426 458 l 2
 426 536 377 587 303 587 c 0
 230 587 181 536 181 458 c 2
 181 238 l 2
 181 161 230 110 303 110 c 0
EndSplineSet
Validated: 1048577
EndChar

StartChar: uni1ED4
Encoding: 7892 7892 96
Width: 607
GlyphClass: 2
Flags: MW
HStem: -11 121<266.5 340 266.5 382> 587 121<266.5 340> 758 128<151 368 235 246 357 360 360 368 368 371 235 450> 997 68<449 465.5>
VStem: 40 141<243 457 457 458> 426 141<238 243 243 457> 486 74<954.5 979.5>
AnchorPoint: "Anchor-9" 506 700 basechar 0
AnchorPoint: "Anchor-7" 456 1064 basechar 0
AnchorPoint: "Anchor-6" 304 0 basechar 0
LayerCount: 2
Fore
SplineSet
443 867 m 2xfc
 434 869 431 874 434 882 c 0
 456 937 486 936 486 973 c 0
 486 986 473 997 458 997 c 0
 440 997 430 990 412 967 c 0
 407 960 401 959 395 964 c 2
 361 989 l 2
 355 993 354 999 359 1006 c 0
 387 1047 414 1065 462 1065 c 0
 522 1065 560 1029 560 973 c 0
 560 920 516 902 496 867 c 0
 492 861 488 859 481 860 c 2xfa
 443 867 l 2xfc
156 758 m 2
 146 758 143 765 148 773 c 2
 221 878 l 2
 224 883 229 886 235 886 c 2
 368 886 l 2
 374 886 378 884 382 878 c 2
 458 773 l 2
 464 765 460 758 450 758 c 2
 360 758 l 2
 354 758 349 761 346 766 c 2
 306 827 l 2
 304 831 302 831 300 827 c 2
 260 766 l 2
 257 761 252 758 246 758 c 2
 156 758 l 2
303 -11 m 0
 145 -11 40 91 40 243 c 2
 40 457 l 2
 40 607 145 708 303 708 c 0
 461 708 567 607 567 457 c 2
 567 243 l 2
 567 91 461 -11 303 -11 c 0
303 110 m 0
 377 110 426 161 426 238 c 2
 426 458 l 2
 426 536 377 587 303 587 c 0
 230 587 181 536 181 458 c 2
 181 238 l 2
 181 161 230 110 303 110 c 0
EndSplineSet
Validated: 1048577
EndChar

StartChar: uni1ED6
Encoding: 7894 7894 97
Width: 607
GlyphClass: 2
Flags: MW
HStem: -11 121<266.5 340 266.5 382> 587 121<266.5 340> 758 128<151 368 235 246 357 360 360 368 368 371 235 450> 918 95<358.5 376 358.5 392.5> 953 100<237 257>
VStem: 40 141<243 457 457 458> 426 141<238 243 243 457>
AnchorPoint: "Anchor-9" 506 700 basechar 0
AnchorPoint: "Anchor-7" 299 1057 basechar 0
AnchorPoint: "Anchor-6" 304 0 basechar 0
LayerCount: 2
Fore
SplineSet
367 918 m 0xf6
 336 918 318 927 300 936 c 0
 277 947 265 953 249 953 c 0
 225 953 209 944 196 931 c 0
 191 925 184 924 179 930 c 2
 138 974 l 2
 134 979 132 985 136 991 c 0
 158 1027 195 1053 242 1053 c 0xee
 273 1053 294 1041 317 1030 c 0
 336 1020 350 1013 367 1013 c 0
 385 1013 401 1019 415 1036 c 0
 421 1043 427 1044 432 1037 c 2
 469 992 l 2
 473 987 474 983 472 978 c 0
 456 944 418 918 367 918 c 0xf6
156 758 m 2
 146 758 143 765 148 773 c 2
 221 878 l 2
 224 883 229 886 235 886 c 2
 368 886 l 2
 374 886 378 884 382 878 c 2
 458 773 l 2
 464 765 460 758 450 758 c 2
 360 758 l 2
 354 758 349 761 346 766 c 2
 306 827 l 2
 304 831 302 831 300 827 c 2
 260 766 l 2
 257 761 252 758 246 758 c 2
 156 758 l 2
303 -11 m 0
 145 -11 40 91 40 243 c 2
 40 457 l 2
 40 607 145 708 303 708 c 0
 461 708 567 607 567 457 c 2
 567 243 l 2
 567 91 461 -11 303 -11 c 0
303 110 m 0
 377 110 426 161 426 238 c 2
 426 458 l 2
 426 536 377 587 303 587 c 0
 230 587 181 536 181 458 c 2
 181 238 l 2
 181 161 230 110 303 110 c 0
EndSplineSet
Validated: 1048577
EndChar

StartChar: Odieresis
Encoding: 214 214 98
Width: 618
GlyphClass: 2
Flags: MW
HStem: -11 121<266.5 340 266.5 382> 587 121<266.5 340> 764 158<186 231.5 385 430.5>
VStem: 40 141<243 457 457 458> 130 158<820.5 866.5> 330 157<820.5 866.5> 426 141<238 243 243 457>
AnchorPoint: "Anchor-9" 506 700 basechar 0
AnchorPoint: "Anchor-7" 303 700 basechar 0
AnchorPoint: "Anchor-6" 304 0 basechar 0
LayerCount: 2
Fore
SplineSet
209 764 m 0xec
 163 764 130 798 130 843 c 0
 130 890 163 922 209 922 c 0
 255 922 288 890 288 843 c 0
 288 798 254 764 209 764 c 0xec
408 764 m 0
 362 764 330 798 330 843 c 0
 330 890 362 922 408 922 c 0
 454 922 487 890 487 843 c 0
 487 798 453 764 408 764 c 0
303 -11 m 0xf2
 145 -11 40 91 40 243 c 2
 40 457 l 2
 40 607 145 708 303 708 c 0
 461 708 567 607 567 457 c 2
 567 243 l 2
 567 91 461 -11 303 -11 c 0xf2
303 110 m 0
 377 110 426 161 426 238 c 2
 426 458 l 2
 426 536 377 587 303 587 c 0
 230 587 181 536 181 458 c 2
 181 238 l 2
 181 161 230 110 303 110 c 0
EndSplineSet
Validated: 1048577
Substitution2: "'c2sc' Capitals to Small Capitals in Latin lookup 19 subtable" odieresis.sc
Substitution2: "'aalt' Access All Alternates in Latin lookup 0 subtable" odieresis.sc
EndChar

StartChar: uni1ECC
Encoding: 7884 7884 99
Width: 607
GlyphClass: 2
Flags: MW
HStem: -213 150<283 327> -11 121<266.5 340 266.5 382> 587 121<266.5 340>
VStem: 40 141<243 457 457 458> 230 151<-159.5 -116> 426 141<238 243 243 457>
AnchorPoint: "Anchor-9" 506 700 basechar 0
AnchorPoint: "Anchor-7" 303 700 basechar 0
AnchorPoint: "Anchor-6" 303 -216 basechar 0
LayerCount: 2
Fore
SplineSet
303 -11 m 0
 145 -11 40 91 40 243 c 2
 40 457 l 2
 40 607 145 708 303 708 c 0
 461 708 567 607 567 457 c 2
 567 243 l 2
 567 91 461 -11 303 -11 c 0
303 110 m 0
 377 110 426 161 426 238 c 2
 426 458 l 2
 426 536 377 587 303 587 c 0
 230 587 181 536 181 458 c 2
 181 238 l 2
 181 161 230 110 303 110 c 0
305 -213 m 0
 261 -213 230 -181 230 -138 c 0
 230 -94 261 -63 305 -63 c 0
 349 -63 381 -94 381 -138 c 0
 381 -181 349 -213 305 -213 c 0
EndSplineSet
Validated: 1048577
EndChar

StartChar: Ograve
Encoding: 210 210 100
Width: 618
GlyphClass: 2
Flags: MW
HStem: -11 121<266.5 340 266.5 382> 587 121<266.5 340> 762 124<269 272 272 295 295 298 194 356>
VStem: 40 141<243 457 457 458> 426 141<238 243 243 457>
AnchorPoint: "Anchor-9" 506 700 basechar 0
AnchorPoint: "Anchor-7" 262 886 basechar 0
AnchorPoint: "Anchor-6" 304 0 basechar 0
LayerCount: 2
Fore
SplineSet
364 776 m 2
 368 768 365 762 356 762 c 2
 272 762 l 2
 266 762 261 765 258 770 c 2
 186 871 l 2
 180 879 184 886 194 886 c 2
 295 886 l 2
 301 886 307 883 310 877 c 2
 364 776 l 2
303 -11 m 0
 145 -11 40 91 40 243 c 2
 40 457 l 2
 40 607 145 708 303 708 c 0
 461 708 567 607 567 457 c 2
 567 243 l 2
 567 91 461 -11 303 -11 c 0
303 110 m 0
 377 110 426 161 426 238 c 2
 426 458 l 2
 426 536 377 587 303 587 c 0
 230 587 181 536 181 458 c 2
 181 238 l 2
 181 161 230 110 303 110 c 0
EndSplineSet
Validated: 1048577
Substitution2: "'c2sc' Capitals to Small Capitals in Latin lookup 19 subtable" ograve.sc
Substitution2: "'aalt' Access All Alternates in Latin lookup 0 subtable" ograve.sc
EndChar

StartChar: uni1ECE
Encoding: 7886 7886 101
Width: 607
GlyphClass: 2
Flags: MW
HStem: -11 121<266.5 340 266.5 382> 587 121<266.5 340> 876 68<295 311.5>
VStem: 40 141<243 457 457 458> 332 75<833.5 858.5> 426 141<238 243 243 457>
AnchorPoint: "Anchor-9" 506 700 basechar 0
AnchorPoint: "Anchor-7" 303 943 basechar 0
AnchorPoint: "Anchor-6" 304 0 basechar 0
LayerCount: 2
Fore
SplineSet
289 747 m 2
 281 749 277 754 281 762 c 0
 303 816 332 815 332 852 c 0
 332 865 319 876 304 876 c 0
 286 876 277 869 259 846 c 0
 254 839 247 838 241 843 c 2
 207 868 l 2
 201 872 200 878 204 885 c 0
 233 927 260 944 308 944 c 0
 368 944 407 909 407 852 c 0
 407 799 363 782 343 747 c 0
 339 740 335 737 328 739 c 2xfc
 289 747 l 2
303 -11 m 0
 145 -11 40 91 40 243 c 2
 40 457 l 2
 40 607 145 708 303 708 c 0
 461 708 567 607 567 457 c 2
 567 243 l 2
 567 91 461 -11 303 -11 c 0
303 110 m 0
 377 110 426 161 426 238 c 2
 426 458 l 2
 426 536 377 587 303 587 c 0
 230 587 181 536 181 458 c 2
 181 238 l 2
 181 161 230 110 303 110 c 0
EndSplineSet
Validated: 1048577
EndChar

StartChar: Ohorn
Encoding: 416 416 102
Width: 607
GlyphClass: 2
Flags: MW
HStem: -11 121<266.5 340 266.5 382> 587 121<266.5 323 224 340>
VStem: 40 141<243 457 457 458> 426 141<238 243 243 457>
AnchorPoint: "Anchor-9" 480 687 basechar 0
AnchorPoint: "Anchor-7" 303 700 basechar 0
AnchorPoint: "Anchor-6" 304 0 basechar 0
LayerCount: 2
Fore
SplineSet
498 643 m 0
 495 641 495 639 497 636 c 0
 542 592 567 531 567 457 c 2
 567 243 l 2
 567 91 461 -11 303 -11 c 0
 145 -11 40 91 40 243 c 2
 40 457 l 2
 40 607 145 708 303 708 c 0
 343 708 379 701 411 690 c 0
 413 689 415 689 417 690 c 0
 443 695 473 712 478 763 c 0
 478 771 483 775 490 775 c 2
 552 775 l 2
 559 775 564 769 563 758 c 0
 559 703 532 665 498 643 c 0
426 238 m 2
 426 458 l 2
 426 536 377 587 303 587 c 0
 230 587 181 536 181 458 c 2
 181 238 l 2
 181 161 230 110 303 110 c 0
 377 110 426 161 426 238 c 2
EndSplineSet
Validated: 1048577
EndChar

StartChar: uni1EDA
Encoding: 7898 7898 103
Width: 607
GlyphClass: 2
Flags: MW
HStem: -11 121<266.5 340 266.5 382> 587 121<266.5 323 224 340> 762 124<241.5 407 307 330>
VStem: 40 141<243 457 457 458> 426 141<238 243 243 457>
AnchorPoint: "Anchor-9" 480 687 basechar 0
AnchorPoint: "Anchor-7" 334 886 basechar 0
AnchorPoint: "Anchor-6" 304 0 basechar 0
LayerCount: 2
Fore
SplineSet
407 886 m 2
 417 886 420 879 415 871 c 2
 344 770 l 2
 341 765 336 762 330 762 c 2
 246 762 l 2
 237 762 234 768 238 776 c 2
 292 877 l 2
 295 883 301 886 307 886 c 2
 407 886 l 2
498 643 m 0
 495 641 495 639 497 636 c 0
 542 592 567 531 567 457 c 2
 567 243 l 2
 567 91 461 -11 303 -11 c 0
 145 -11 40 91 40 243 c 2
 40 457 l 2
 40 607 145 708 303 708 c 0
 343 708 379 701 411 690 c 0
 413 689 415 689 417 690 c 0
 443 695 473 712 478 763 c 0
 478 771 483 775 490 775 c 2
 552 775 l 2
 559 775 564 769 563 758 c 0
 559 703 532 665 498 643 c 0
426 238 m 2
 426 458 l 2
 426 536 377 587 303 587 c 0
 230 587 181 536 181 458 c 2
 181 238 l 2
 181 161 230 110 303 110 c 0
 377 110 426 161 426 238 c 2
EndSplineSet
Validated: 1048577
EndChar

StartChar: uni1EE2
Encoding: 7906 7906 104
Width: 607
GlyphClass: 2
Flags: MW
HStem: -213 150<283 327> -11 121<266.5 340 266.5 382> 587 121<266.5 323 224 340>
VStem: 40 141<243 457 457 458> 230 151<-159.5 -116> 426 141<238 243 243 457>
AnchorPoint: "Anchor-9" 480 687 basechar 0
AnchorPoint: "Anchor-7" 303 700 basechar 0
AnchorPoint: "Anchor-6" 303 -216 basechar 0
LayerCount: 2
Fore
SplineSet
498 643 m 0
 495 641 495 639 497 636 c 0
 542 592 567 531 567 457 c 2
 567 243 l 2
 567 91 461 -11 303 -11 c 0
 145 -11 40 91 40 243 c 2
 40 457 l 2
 40 607 145 708 303 708 c 0
 343 708 379 701 411 690 c 0
 413 689 415 689 417 690 c 0
 443 695 473 712 478 763 c 0
 478 771 483 775 490 775 c 2
 552 775 l 2
 559 775 564 769 563 758 c 0
 559 703 532 665 498 643 c 0
426 238 m 2
 426 458 l 2
 426 536 377 587 303 587 c 0
 230 587 181 536 181 458 c 2
 181 238 l 2
 181 161 230 110 303 110 c 0
 377 110 426 161 426 238 c 2
305 -63 m 0
 349 -63 381 -94 381 -138 c 0
 381 -181 349 -213 305 -213 c 0
 261 -213 230 -181 230 -138 c 0
 230 -94 261 -63 305 -63 c 0
EndSplineSet
Validated: 1048577
EndChar

StartChar: uni1EDC
Encoding: 7900 7900 105
Width: 607
GlyphClass: 2
Flags: MW
HStem: -11 121<266.5 340 266.5 382> 587 121<266.5 323 224 340> 762 124<263 266 266 289 289 292 188 350>
VStem: 40 141<243 457 457 458> 426 141<238 243 243 457>
AnchorPoint: "Anchor-9" 480 687 basechar 0
AnchorPoint: "Anchor-7" 256 886 basechar 0
AnchorPoint: "Anchor-6" 304 0 basechar 0
LayerCount: 2
Fore
SplineSet
358 776 m 2
 362 768 359 762 350 762 c 2
 266 762 l 2
 260 762 255 765 252 770 c 2
 180 871 l 2
 174 879 178 886 188 886 c 2
 289 886 l 2
 295 886 301 883 304 877 c 2
 358 776 l 2
498 643 m 0
 495 641 495 639 497 636 c 0
 542 592 567 531 567 457 c 2
 567 243 l 2
 567 91 461 -11 303 -11 c 0
 145 -11 40 91 40 243 c 2
 40 457 l 2
 40 607 145 708 303 708 c 0
 343 708 379 701 411 690 c 0
 413 689 415 689 417 690 c 0
 443 695 473 712 478 763 c 0
 478 771 483 775 490 775 c 2
 552 775 l 2
 559 775 564 769 563 758 c 0
 559 703 532 665 498 643 c 0
426 238 m 2
 426 458 l 2
 426 536 377 587 303 587 c 0
 230 587 181 536 181 458 c 2
 181 238 l 2
 181 161 230 110 303 110 c 0
 377 110 426 161 426 238 c 2
EndSplineSet
Validated: 1048577
EndChar

StartChar: uni1EDE
Encoding: 7902 7902 106
Width: 607
GlyphClass: 2
Flags: MW
HStem: -11 121<266.5 340 266.5 382> 587 121<266.5 323 224 340> 876 68<295 311.5>
VStem: 40 141<243 457 457 458> 332 75<833.5 858.5> 426 141<238 243 243 457>
AnchorPoint: "Anchor-9" 480 687 basechar 0
AnchorPoint: "Anchor-7" 303 943 basechar 0
AnchorPoint: "Anchor-6" 304 0 basechar 0
LayerCount: 2
Fore
SplineSet
304 876 m 0
 286 876 277 869 259 846 c 0
 254 839 247 838 241 843 c 2
 207 868 l 2
 201 872 200 878 204 885 c 0
 233 927 260 944 308 944 c 0
 368 944 407 909 407 852 c 0
 407 799 363 782 343 747 c 0
 339 740 335 738 328 739 c 2
 289 747 l 2
 281 749 277 754 281 762 c 0
 303 816 332 815 332 852 c 0
 332 865 319 876 304 876 c 0
498 643 m 0
 495 641 495 639 497 636 c 0
 542 592 567 531 567 457 c 2
 567 243 l 2xf4
 567 91 461 -11 303 -11 c 0
 145 -11 40 91 40 243 c 2
 40 457 l 2
 40 607 145 708 303 708 c 0
 343 708 379 701 411 690 c 0
 413 689 415 689 417 690 c 0
 443 695 473 712 478 763 c 0
 478 771 483 775 490 775 c 2
 552 775 l 2
 559 775 564 769 563 758 c 0
 559 703 532 665 498 643 c 0
426 238 m 2xf4
 426 458 l 2
 426 536 377 587 303 587 c 0
 230 587 181 536 181 458 c 2
 181 238 l 2
 181 161 230 110 303 110 c 0
 377 110 426 161 426 238 c 2xf4
EndSplineSet
Validated: 1048577
EndChar

StartChar: uni1EE0
Encoding: 7904 7904 107
Width: 607
GlyphClass: 2
Flags: MW
HStem: -11 121<266.5 340 266.5 382> 587 121<266.5 323 224 340> 780 95<338.5 356 338.5 372> 815 100<217.5 237.5>
VStem: 40 141<243 457 457 458> 426 141<238 243 243 457>
AnchorPoint: "Anchor-9" 480 687 basechar 0
AnchorPoint: "Anchor-7" 279 919 basechar 0
AnchorPoint: "Anchor-6" 304 0 basechar 0
LayerCount: 2
Fore
SplineSet
230 815 m 0xdc
 205 815 189 807 177 794 c 0
 171 788 165 787 160 793 c 2
 119 837 l 2
 114 842 113 847 117 853 c 0
 138 889 175 915 222 915 c 0xdc
 253 915 274 903 297 892 c 0
 316 882 330 875 347 875 c 0
 365 875 381 881 395 898 c 0
 401 905 407 905 412 899 c 2
 450 854 l 2
 454 849 455 844 452 838 c 0
 435 805 397 780 347 780 c 0xec
 316 780 298 790 280 799 c 0
 257 810 245 815 230 815 c 0xdc
498 643 m 0
 495 641 495 639 497 636 c 0
 542 592 567 531 567 457 c 2
 567 243 l 2
 567 91 461 -11 303 -11 c 0
 145 -11 40 91 40 243 c 2
 40 457 l 2
 40 607 145 708 303 708 c 0
 343 708 379 701 411 690 c 0
 413 689 415 689 417 690 c 0
 443 695 473 712 478 763 c 0
 478 771 483 775 490 775 c 2
 552 775 l 2
 559 775 564 769 563 758 c 0
 559 703 532 665 498 643 c 0
426 238 m 2
 426 458 l 2
 426 536 377 587 303 587 c 0
 230 587 181 536 181 458 c 2
 181 238 l 2
 181 161 230 110 303 110 c 0
 377 110 426 161 426 238 c 2
EndSplineSet
Validated: 1048577
EndChar

StartChar: Ohungarumlaut
Encoding: 336 336 108
Width: 618
GlyphClass: 2
Flags: MW
HStem: -11 121<266.5 340 266.5 382> 587 121<266.5 340> 762 124<172.5 331 228 272 228 354 414 449>
VStem: 40 141<243 457 457 458> 426 141<238 243 243 457>
AnchorPoint: "Anchor-9" 506 700 basechar 0
AnchorPoint: "Anchor-7" 303 700 basechar 0
AnchorPoint: "Anchor-6" 304 0 basechar 0
LayerCount: 2
Fore
SplineSet
177 762 m 2
 168 762 163 767 167 776 c 2
 214 877 l 2
 217 884 222 886 228 886 c 2
 331 886 l 2
 340 886 344 880 340 872 c 2
 287 771 l 2
 284 765 278 762 272 762 c 2
 177 762 l 2
354 762 m 2
 345 762 342 768 346 776 c 2
 399 877 l 2
 402 883 408 886 414 886 c 2
 510 886 l 2
 519 886 522 880 518 872 c 2
 464 771 l 2
 461 765 455 762 449 762 c 2
 354 762 l 2
303 -11 m 0
 145 -11 40 91 40 243 c 2
 40 457 l 2
 40 607 145 708 303 708 c 0
 461 708 567 607 567 457 c 2
 567 243 l 2
 567 91 461 -11 303 -11 c 0
303 110 m 0
 377 110 426 161 426 238 c 2
 426 458 l 2
 426 536 377 587 303 587 c 0
 230 587 181 536 181 458 c 2
 181 238 l 2
 181 161 230 110 303 110 c 0
EndSplineSet
Validated: 1048577
Substitution2: "'c2sc' Capitals to Small Capitals in Latin lookup 19 subtable" ohungarumlaut.sc
Substitution2: "'aalt' Access All Alternates in Latin lookup 0 subtable" ohungarumlaut.sc
EndChar

StartChar: Omacron
Encoding: 332 332 109
Width: 618
GlyphClass: 2
Flags: MW
HStem: -11 121<266.5 340 266.5 382> 587 121<266.5 340> 763 96<170.5 444 174 444>
VStem: 40 141<243 457 457 458> 426 141<238 243 243 457>
AnchorPoint: "Anchor-9" 506 700 basechar 0
AnchorPoint: "Anchor-7" 303 700 basechar 0
AnchorPoint: "Anchor-6" 304 0 basechar 0
LayerCount: 2
Fore
SplineSet
174 763 m 2
 167 763 162 768 162 775 c 2
 162 847 l 2
 162 854 167 859 174 859 c 2
 444 859 l 2
 451 859 456 854 456 847 c 2
 456 775 l 2
 456 768 451 763 444 763 c 2
 174 763 l 2
303 -11 m 0
 145 -11 40 91 40 243 c 2
 40 457 l 2
 40 607 145 708 303 708 c 0
 461 708 567 607 567 457 c 2
 567 243 l 2
 567 91 461 -11 303 -11 c 0
303 110 m 0
 377 110 426 161 426 238 c 2
 426 458 l 2
 426 536 377 587 303 587 c 0
 230 587 181 536 181 458 c 2
 181 238 l 2
 181 161 230 110 303 110 c 0
EndSplineSet
Validated: 1048577
Substitution2: "'c2sc' Capitals to Small Capitals in Latin lookup 19 subtable" omacron.sc
Substitution2: "'aalt' Access All Alternates in Latin lookup 0 subtable" omacron.sc
EndChar

StartChar: Oslash
Encoding: 216 216 110
Width: 618
GlyphClass: 2
Flags: MW
HStem: -11 121<288 340 288 382> 587 121<266.5 321>
VStem: 40 141<243 457 457 458> 426 141<238 243 243 435 435 437>
AnchorPoint: "Anchor-9" 506 700 basechar 0
AnchorPoint: "Anchor-7" 303 700 basechar 0
AnchorPoint: "Anchor-6" 304 0 basechar 0
LayerCount: 2
Fore
SplineSet
570 688 m 2
 576 684 577 678 573 671 c 2
 528 603 l 2
 527 601 527 599 528 597 c 0
 554 558 567 510 567 457 c 2
 567 243 l 2
 567 91 461 -11 303 -11 c 0
 247 -11 197 2 157 26 c 0
 154 27 152 26 150 24 c 2
 120 -22 l 2
 116 -29 110 -30 104 -26 c 2
 53 6 l 2
 47 10 46 15 50 22 c 2
 88 80 l 2
 89 82 89 85 87 87 c 0
 57 129 40 182 40 243 c 2
 40 457 l 2
 40 607 145 708 303 708 c 0
 365 708 419 692 462 665 c 0
 465 663 467 664 469 666 c 2
 504 721 l 2
 508 728 515 729 521 724 c 2
 570 688 l 2
181 236 m 2
 181 232 185 230 187 234 c 2
 391 546 l 2
 392 548 392 551 390 553 c 0
 369 575 339 587 303 587 c 0
 230 587 181 536 181 458 c 2
 181 236 l 2
426 238 m 2
 426 435 l 2
 426 439 422 441 420 437 c 2
 227 141 l 2
 226 139 225 136 228 134 c 0
 247 119 273 110 303 110 c 0
 377 110 426 161 426 238 c 2
EndSplineSet
Validated: 1048577
Substitution2: "'c2sc' Capitals to Small Capitals in Latin lookup 19 subtable" oslash.sc
Substitution2: "'aalt' Access All Alternates in Latin lookup 0 subtable" oslash.sc
EndChar

StartChar: Otilde
Encoding: 213 213 111
Width: 618
GlyphClass: 2
Flags: MW
HStem: -11 121<266.5 340 266.5 382> 587 121<266.5 340> 759 94<363.5 381 363.5 397.5> 793 100<243 262.5>
VStem: 40 141<243 457 457 458> 426 141<238 243 243 457>
AnchorPoint: "Anchor-9" 506 700 basechar 0
AnchorPoint: "Anchor-7" 304 897 basechar 0
AnchorPoint: "Anchor-6" 304 0 basechar 0
LayerCount: 2
Fore
SplineSet
372 759 m 0xec
 341 759 323 768 305 777 c 0
 282 788 270 793 255 793 c 0
 231 793 214 785 202 772 c 0
 196 766 190 765 185 771 c 2
 144 815 l 2
 139 820 138 825 142 831 c 0
 163 868 201 893 247 893 c 0xdc
 278 893 299 881 322 870 c 0
 342 861 355 853 372 853 c 0
 390 853 406 859 420 876 c 0
 426 883 432 884 437 878 c 2
 475 833 l 2
 479 828 480 824 478 819 c 0
 461 785 423 759 372 759 c 0xec
303 -11 m 0
 145 -11 40 91 40 243 c 2
 40 457 l 2
 40 607 145 708 303 708 c 0
 461 708 567 607 567 457 c 2
 567 243 l 2
 567 91 461 -11 303 -11 c 0
303 110 m 0
 377 110 426 161 426 238 c 2
 426 458 l 2
 426 536 377 587 303 587 c 0
 230 587 181 536 181 458 c 2
 181 238 l 2
 181 161 230 110 303 110 c 0
EndSplineSet
Validated: 1048577
Substitution2: "'c2sc' Capitals to Small Capitals in Latin lookup 19 subtable" otilde.sc
Substitution2: "'aalt' Access All Alternates in Latin lookup 0 subtable" otilde.sc
EndChar

StartChar: OE
Encoding: 338 338 112
Width: 929
GlyphClass: 2
Flags: MW
HStem: -11 121<271 296.5> 0 110<271 435 271 882> 0 121<569 882 569 882> 293 121<567.5 769 569 769> 579 121<567.5 569 569 882> 587 121<271 296.5 209 341.5>
VStem: 48 141<237 462 462 464> 423 141<12 126 33 126 233 288 417.5 419 419 464 464 500>
AnchorPoint: "Anchor-7" 484 700 basechar 0
LayerCount: 2
Fore
SplineSet
894 591 m 2x3b
 894 584 889 579 882 579 c 2
 569 579 l 2
 566 579 564 577 564 574 c 2
 564 419 l 2
 564 416 566 414 569 414 c 2
 769 414 l 2
 776 414 781 409 781 402 c 2
 781 305 l 2
 781 298 776 293 769 293 c 2
 569 293 l 2
 566 293 564 291 564 288 c 2
 564 126 l 2
 564 123 566 121 569 121 c 2
 882 121 l 2
 889 121 894 116 894 109 c 2
 894 12 l 2
 894 5 889 0 882 0 c 2
 435 0 l 2
 428 0 423 5 423 12 c 2x3b
 423 33 l 2
 423 37 420 38 417 36 c 0
 375 6 323 -11 270 -11 c 0
 148 -11 48 90 48 237 c 2
 48 462 l 2
 48 608 148 708 270 708 c 0
 323 708 375 692 417 662 c 0
 420 660 423 661 423 665 c 2x97
 423 688 l 2
 423 695 428 700 435 700 c 2
 882 700 l 2
 889 700 894 695 894 688 c 2
 894 591 l 2x3b
306 110 m 0x57
 377 110 423 161 423 233 c 2
 423 464 l 2
 423 536 377 587 306 587 c 0
 236 587 189 536 189 464 c 2
 189 233 l 2
 189 161 236 110 306 110 c 0x57
EndSplineSet
Validated: 1048577
Substitution2: "'c2sc' Capitals to Small Capitals in Latin lookup 19 subtable" oe.sc
Substitution2: "'aalt' Access All Alternates in Latin lookup 0 subtable" oe.sc
EndChar

StartChar: P
Encoding: 80 80 113
Width: 605
Flags: MW
HStem: 0 21G<74.5 78 78 195> 272 113<210.5 338 212 338 338 353> 579 122<210.5 212 212 338>
VStem: 66 141<12 267 388.5 390 390 574> 440 140<452.5 510.5>
LayerCount: 2
Fore
SplineSet
359 701 m 2
 492 701 580 614 580 484 c 0
 580 357 489 272 353 272 c 2
 212 272 l 2
 209 272 207 270 207 267 c 2
 207 12 l 2
 207 5 202 0 195 0 c 2
 78 0 l 2
 71 0 66 5 66 12 c 2
 66 689 l 2
 66 696 71 701 78 701 c 2
 359 701 l 2
338 385 m 2
 399 385 440 424 440 481 c 0
 440 540 399 579 338 579 c 2
 212 579 l 2
 209 579 207 577 207 574 c 2
 207 390 l 2
 207 387 209 385 212 385 c 2
 338 385 l 2
EndSplineSet
Validated: 1
Substitution2: "'c2sc' Capitals to Small Capitals in Latin lookup 19 subtable" p.sc
Substitution2: "'aalt' Access All Alternates in Latin lookup 0 subtable" p.sc
EndChar

StartChar: Thorn
Encoding: 222 222 114
Width: 597
Flags: MW
HStem: 0 21G<74.5 78 78 195> 139 114<210.5 322 212 322 322 337> 440 121<210.5 344 212 322> 680 20G<78 195 195 198.5>
VStem: 66 141<12 134 256.5 258 258 435 564.5 566 566 688> 425 140<315.5 375.5>
LayerCount: 2
Fore
SplineSet
344 561 m 2
 476 561 565 474 565 348 c 0
 565 222 465 139 337 139 c 2
 212 139 l 2
 209 139 207 137 207 134 c 2
 207 12 l 2
 207 5 202 0 195 0 c 2
 78 0 l 2
 71 0 66 5 66 12 c 2
 66 688 l 2
 66 695 71 700 78 700 c 2
 195 700 l 2
 202 700 207 695 207 688 c 2
 207 566 l 2
 207 563 209 561 212 561 c 2
 344 561 l 2
322 253 m 2
 383 253 425 286 425 345 c 0
 425 406 383 440 322 440 c 2
 212 440 l 2
 209 440 207 438 207 435 c 2
 207 258 l 2
 207 255 209 253 212 253 c 2
 322 253 l 2
EndSplineSet
Validated: 1
Substitution2: "'c2sc' Capitals to Small Capitals in Latin lookup 19 subtable" thorn.sc
Substitution2: "'aalt' Access All Alternates in Latin lookup 0 subtable" thorn.sc
EndChar

StartChar: Q
Encoding: 81 81 115
Width: 590
Flags: MW
HStem: -98 211<233.5 329 261 329 261 354> 587 121<261 329>
VStem: 40 141<233 236 236 457 457 464> 225 141<-86 -5 -5 -4 -89.5 -3.5> 409 141<236 457>
LayerCount: 2
Fore
SplineSet
295 708 m 0
 448 708 550 608 550 457 c 2
 550 233 l 2
 550 114 481 27 370 1 c 0
 367 0 366 -1 366 -4 c 2
 366 -86 l 2
 366 -93 361 -98 354 -98 c 2
 237 -98 l 2
 230 -98 225 -93 225 -86 c 2
 225 -5 l 2
 225 -2 224 -1 221 0 c 0
 110 26 40 113 40 233 c 2
 40 457 l 2
 40 608 142 708 295 708 c 0
409 236 m 2
 409 464 l 2
 409 537 363 587 295 587 c 0
 227 587 181 537 181 464 c 2
 181 236 l 2
 181 163 227 113 295 113 c 0
 363 113 409 163 409 236 c 2
EndSplineSet
Validated: 1
Substitution2: "'c2sc' Capitals to Small Capitals in Latin lookup 19 subtable" q.sc
Substitution2: "'aalt' Access All Alternates in Latin lookup 0 subtable" q.sc
EndChar

StartChar: R
Encoding: 82 82 116
Width: 612
GlyphClass: 2
Flags: MW
HStem: 0 21G<74.5 78 78 195 446 449 449 572> 290 108<210.5 342 212 304> 579 121<210.5 212 212 342>
VStem: 66 141<12 285 401.5 403 403 574> 437 141<461 515>
AnchorPoint: "Anchor-7" 291 700 basechar 0
AnchorPoint: "Anchor-6" 305 0 basechar 0
LayerCount: 2
Fore
SplineSet
449 0 m 2
 443 0 438 2 435 9 c 2
 310 286 l 2
 309 288 306 290 304 290 c 2
 212 290 l 2
 209 290 207 288 207 285 c 2
 207 12 l 2
 207 5 202 0 195 0 c 2
 78 0 l 2
 71 0 66 5 66 12 c 2
 66 688 l 2
 66 695 71 700 78 700 c 2
 364 700 l 2
 492 700 578 616 578 489 c 0
 578 398 528 331 449 304 c 0
 446 303 445 300 446 297 c 2
 581 14 l 2
 585 5 581 0 572 0 c 2
 449 0 l 2
212 579 m 2
 209 579 207 577 207 574 c 2
 207 403 l 2
 207 400 209 398 212 398 c 2
 342 398 l 2
 399 398 437 434 437 488 c 0
 437 542 399 579 342 579 c 2
 212 579 l 2
EndSplineSet
Validated: 1048577
Substitution2: "'c2sc' Capitals to Small Capitals in Latin lookup 19 subtable" r.sc
Substitution2: "'aalt' Access All Alternates in Latin lookup 0 subtable" r.sc
EndChar

StartChar: Racute
Encoding: 340 340 117
Width: 619
GlyphClass: 2
Flags: MW
HStem: 0 21G<74.5 78 78 195 446 449 449 572> 290 108<210.5 342 212 304> 579 121<210.5 212 212 342> 762 124<235.5 401 300 323>
VStem: 66 141<12 285 401.5 403 403 574> 437 141<461 515>
AnchorPoint: "Anchor-7" 327 886 basechar 0
AnchorPoint: "Anchor-6" 305 0 basechar 0
LayerCount: 2
Fore
SplineSet
401 886 m 2
 411 886 414 879 409 871 c 2
 337 770 l 2
 334 765 329 762 323 762 c 2
 240 762 l 2
 231 762 228 768 232 776 c 2
 285 877 l 2
 288 883 294 886 300 886 c 2
 401 886 l 2
449 0 m 2
 443 0 438 2 435 9 c 2
 310 286 l 2
 309 288 306 290 304 290 c 2
 212 290 l 2
 209 290 207 288 207 285 c 2
 207 12 l 2
 207 5 202 0 195 0 c 2
 78 0 l 2
 71 0 66 5 66 12 c 2
 66 688 l 2
 66 695 71 700 78 700 c 2
 364 700 l 2
 492 700 578 616 578 489 c 0
 578 398 528 331 449 304 c 0
 446 303 445 300 446 297 c 2
 581 14 l 2
 585 5 581 0 572 0 c 2
 449 0 l 2
212 579 m 2
 209 579 207 577 207 574 c 2
 207 403 l 2
 207 400 209 398 212 398 c 2
 342 398 l 2
 399 398 437 434 437 488 c 0
 437 542 399 579 342 579 c 2
 212 579 l 2
EndSplineSet
Validated: 1048577
Substitution2: "'c2sc' Capitals to Small Capitals in Latin lookup 19 subtable" racute.sc
Substitution2: "'aalt' Access All Alternates in Latin lookup 0 subtable" racute.sc
EndChar

StartChar: Rcaron
Encoding: 344 344 118
Width: 619
GlyphClass: 2
Flags: MW
HStem: 0 21G<74.5 78 78 195 446 449 449 572> 290 108<210.5 342 212 304> 579 121<210.5 212 212 342> 758 128<232 235 235 245 245 248 360 367>
VStem: 66 141<12 285 401.5 403 403 574> 437 141<461 515>
AnchorPoint: "Anchor-7" 291 700 basechar 0
AnchorPoint: "Anchor-6" 305 0 basechar 0
LayerCount: 2
Fore
SplineSet
381 766 m 2
 377 760 373 758 367 758 c 2
 235 758 l 2
 229 758 224 761 221 766 c 2
 147 871 l 2
 142 879 145 886 155 886 c 2
 245 886 l 2
 251 886 256 883 259 878 c 2
 299 816 l 2
 301 812 304 812 306 816 c 2
 346 878 l 2
 349 883 354 886 360 886 c 2
 449 886 l 2
 459 886 463 879 457 871 c 2
 381 766 l 2
449 0 m 2
 443 0 438 2 435 9 c 2
 310 286 l 2
 309 288 306 290 304 290 c 2
 212 290 l 2
 209 290 207 288 207 285 c 2
 207 12 l 2
 207 5 202 0 195 0 c 2
 78 0 l 2
 71 0 66 5 66 12 c 2
 66 688 l 2
 66 695 71 700 78 700 c 2
 364 700 l 2
 492 700 578 616 578 489 c 0
 578 398 528 331 449 304 c 0
 446 303 445 300 446 297 c 2
 581 14 l 2
 585 5 581 0 572 0 c 2
 449 0 l 2
212 579 m 2
 209 579 207 577 207 574 c 2
 207 403 l 2
 207 400 209 398 212 398 c 2
 342 398 l 2
 399 398 437 434 437 488 c 0
 437 542 399 579 342 579 c 2
 212 579 l 2
EndSplineSet
Validated: 1048577
Substitution2: "'c2sc' Capitals to Small Capitals in Latin lookup 19 subtable" rcaron.sc
Substitution2: "'aalt' Access All Alternates in Latin lookup 0 subtable" rcaron.sc
EndChar

StartChar: S
Encoding: 83 83 119
Width: 564
GlyphClass: 2
Flags: MW
HStem: -8 121<249.5 331 249.5 361> 587 121<234.5 308>
VStem: 18 138<201 208 208 223 182.5 226.5> 28 138<486 535.5 486 571.5> 395 139<478 486 486 493 474.5 512> 398 141<171 216.5>
AnchorPoint: "Anchor-7" 277 700 basechar 0
AnchorPoint: "Anchor-6" 280 -8 basechar 0
LayerCount: 2
Fore
SplineSet
283 -8 m 0xe4
 121 -8 18 74 18 201 c 2
 18 223 l 2
 18 230 23 235 30 235 c 2
 144 235 l 2
 151 235 156 230 156 223 c 2
 156 208 l 2
 156 157 206 113 293 113 c 0
 369 113 398 151 398 191 c 0xe4
 398 242 347 260 251 295 c 0
 147 331 28 378 28 510 c 0
 28 633 128 708 272 708 c 0
 425 708 534 622 534 493 c 2
 534 478 l 2
 534 471 529 466 522 466 c 2
 407 466 l 2
 400 466 395 471 395 478 c 2
 395 486 l 2
 395 538 350 587 266 587 c 0
 203 587 166 559 166 512 c 0xd8
 166 460 211 442 322 403 c 0
 412 370 539 331 539 195 c 0
 539 69 439 -8 283 -8 c 0xe4
EndSplineSet
Validated: 1048577
Substitution2: "'c2sc' Capitals to Small Capitals in Latin lookup 19 subtable" s.sc
Substitution2: "'aalt' Access All Alternates in Latin lookup 0 subtable" s.sc
EndChar

StartChar: Sacute
Encoding: 346 346 120
Width: 574
GlyphClass: 2
Flags: MW
HStem: -8 121<249.5 331 249.5 361> 587 121<234.5 308> 762 124<221.5 387 286 309>
VStem: 18 138<201 208 208 223 182.5 226.5> 28 138<486 535.5 486 571.5> 395 139<478 486 486 493 474.5 512> 398 141<171 216.5>
AnchorPoint: "Anchor-7" 313 886 basechar 0
AnchorPoint: "Anchor-6" 280 -8 basechar 0
LayerCount: 2
Fore
SplineSet
226 762 m 2xea
 217 762 214 768 218 776 c 2
 271 877 l 2
 274 883 280 886 286 886 c 2
 387 886 l 2
 397 886 400 879 395 871 c 2
 323 770 l 2
 320 765 315 762 309 762 c 2
 226 762 l 2xea
283 -8 m 0xf2
 121 -8 18 74 18 201 c 2
 18 223 l 2
 18 230 23 235 30 235 c 2
 144 235 l 2
 151 235 156 230 156 223 c 2
 156 208 l 2
 156 157 206 113 293 113 c 0
 369 113 398 151 398 191 c 0xf2
 398 242 347 260 251 295 c 0
 147 331 28 378 28 510 c 0
 28 633 128 708 272 708 c 0
 425 708 534 622 534 493 c 2
 534 478 l 2
 534 471 529 466 522 466 c 2
 407 466 l 2
 400 466 395 471 395 478 c 2
 395 486 l 2
 395 538 350 587 266 587 c 0
 203 587 166 559 166 512 c 0xec
 166 460 211 442 322 403 c 0
 412 370 539 331 539 195 c 0
 539 69 439 -8 283 -8 c 0xf2
EndSplineSet
Validated: 1048577
Substitution2: "'c2sc' Capitals to Small Capitals in Latin lookup 19 subtable" sacute.sc
Substitution2: "'aalt' Access All Alternates in Latin lookup 0 subtable" sacute.sc
EndChar

StartChar: Scaron
Encoding: 352 352 121
Width: 574
GlyphClass: 2
Flags: MW
HStem: -8 121<249.5 331 249.5 361> 587 121<234.5 308> 758 128<218 221 221 231 231 234 346 353>
VStem: 18 138<201 208 208 223 182.5 226.5> 28 138<486 535.5 486 571.5> 395 139<478 486 486 493 474.5 512> 398 141<171 216.5>
AnchorPoint: "Anchor-7" 277 700 basechar 0
AnchorPoint: "Anchor-6" 280 -8 basechar 0
LayerCount: 2
Fore
SplineSet
133 871 m 2xea
 128 879 131 886 141 886 c 2
 231 886 l 2
 237 886 242 883 245 878 c 2
 285 816 l 2
 287 812 290 812 292 816 c 2
 332 878 l 2
 335 883 340 886 346 886 c 2
 435 886 l 2
 445 886 449 879 443 871 c 2
 367 765 l 2
 363 759 359 758 353 758 c 2
 221 758 l 2
 215 758 210 761 207 766 c 2
 133 871 l 2xea
283 -8 m 0xf2
 121 -8 18 74 18 201 c 2
 18 223 l 2
 18 230 23 235 30 235 c 2
 144 235 l 2
 151 235 156 230 156 223 c 2
 156 208 l 2
 156 157 206 113 293 113 c 0
 369 113 398 151 398 191 c 0xf2
 398 242 347 260 251 295 c 0
 147 331 28 378 28 510 c 0
 28 633 128 708 272 708 c 0
 425 708 534 622 534 493 c 2
 534 478 l 2
 534 471 529 466 522 466 c 2
 407 466 l 2
 400 466 395 471 395 478 c 2
 395 486 l 2
 395 538 350 587 266 587 c 0
 203 587 166 559 166 512 c 0xec
 166 460 211 442 322 403 c 0
 412 370 539 331 539 195 c 0
 539 69 439 -8 283 -8 c 0xf2
EndSplineSet
Validated: 1048577
Substitution2: "'c2sc' Capitals to Small Capitals in Latin lookup 19 subtable" scaron.sc
Substitution2: "'aalt' Access All Alternates in Latin lookup 0 subtable" scaron.sc
EndChar

StartChar: Scedilla
Encoding: 350 350 122
Width: 574
GlyphClass: 2
Flags: MW
HStem: -185.82 80.47 -6 21G<240 241> 587 121<234.5 308>
VStem: 18 138<201 208 208 223 182.5 226.5> 28 138<486 535.5 486 571.5> 291 94.16 395 139<478 486 486 493 474.5 512> 398 141<171 216.5>
AnchorPoint: "Anchor-7" 277 700 basechar 0
AnchorPoint: "Anchor-6" 280 -8 basechar 0
LayerCount: 2
Fore
SplineSet
539 195 m 0xe9
 539 86 464 14 344 -4 c 0
 339 -5 339 -7 342 -10 c 0
 379 -47 392 -85 382 -122 c 0
 361 -200 269 -191 226 -175 c 0
 219 -173 216 -168 217 -161 c 2
 224 -111 l 2
 225 -102 231 -100 239 -102 c 0
 263 -110 286 -104 291 -83 c 0xed
 297 -61 279 -34 246 -8 c 0
 244 -7 242 -6 240 -6 c 0
 103 7 18 86 18 201 c 2
 18 223 l 2
 18 230 23 235 30 235 c 2
 144 235 l 2
 151 235 156 230 156 223 c 2
 156 208 l 2
 156 157 206 113 293 113 c 0
 369 113 398 151 398 191 c 0xf1
 398 242 347 260 251 295 c 0
 147 331 28 378 28 510 c 0
 28 633 128 708 272 708 c 0
 425 708 534 622 534 493 c 2
 534 478 l 2
 534 471 529 466 522 466 c 2
 407 466 l 2
 400 466 395 471 395 478 c 2
 395 486 l 2xea
 395 538 350 587 266 587 c 0
 203 587 166 559 166 512 c 0
 166 460 211 442 322 403 c 0
 412 370 539 331 539 195 c 0xe9
EndSplineSet
Validated: 1048609
Substitution2: "'c2sc' Capitals to Small Capitals in Latin lookup 19 subtable" scedilla.sc
Substitution2: "'aalt' Access All Alternates in Latin lookup 0 subtable" scedilla.sc
EndChar

StartChar: Scircumflex
Encoding: 348 348 123
Width: 564
GlyphClass: 2
Flags: MW
HStem: -8 121<249.5 331 249.5 361> 587 121<234.5 308> 758 128<125 342 209 220 331 334 334 342 342 345 209 424>
VStem: 18 138<201 208 208 223 182.5 226.5> 28 138<486 535.5 486 571.5> 395 139<478 486 486 493 474.5 512> 398 141<171 216.5>
AnchorPoint: "Anchor-7" 277 886 basechar 0
AnchorPoint: "Anchor-6" 280 -8 basechar 0
LayerCount: 2
Fore
SplineSet
130 758 m 2xea
 120 758 117 765 122 773 c 2
 195 878 l 2
 198 883 203 886 209 886 c 2
 342 886 l 2
 348 886 352 884 356 878 c 2
 432 773 l 2
 438 765 434 758 424 758 c 2
 334 758 l 2
 328 758 323 761 320 766 c 2
 280 827 l 2
 278 831 276 831 274 827 c 2
 234 766 l 2
 231 761 226 758 220 758 c 2
 130 758 l 2xea
283 -8 m 0xf2
 121 -8 18 74 18 201 c 2
 18 223 l 2
 18 230 23 235 30 235 c 2
 144 235 l 2
 151 235 156 230 156 223 c 2
 156 208 l 2
 156 157 206 113 293 113 c 0
 369 113 398 151 398 191 c 0xf2
 398 242 347 260 251 295 c 0
 147 331 28 378 28 510 c 0
 28 633 128 708 272 708 c 0
 425 708 534 622 534 493 c 2
 534 478 l 2
 534 471 529 466 522 466 c 2
 407 466 l 2
 400 466 395 471 395 478 c 2
 395 486 l 2
 395 538 350 587 266 587 c 0
 203 587 166 559 166 512 c 0xec
 166 460 211 442 322 403 c 0
 412 370 539 331 539 195 c 0
 539 69 439 -8 283 -8 c 0xf2
EndSplineSet
Validated: 1048577
EndChar

StartChar: uni018F
Encoding: 399 399 124
Width: 642
GlyphClass: 2
Flags: MW
HStem: -11 122<286 356.5 286 389> 262 120<182.5 184 184 457> 547 120<310 337.5>
VStem: 36 143<257 374> 461 143
AnchorPoint: "Anchor-7" 316 657 basechar 0
LayerCount: 2
Fore
SplineSet
580 486 m 0
 598 439 604 389 604 324 c 0
 604 265 600 222 588 182 c 0
 553 66 455 -11 323 -11 c 0
 157 -11 61 91 40 239 c 0
 34 279 34 323 36 370 c 0
 36 378 41 382 48 382 c 2
 457 382 l 2
 460 382 462 384 462 387 c 0
 459 414 456 434 449 451 c 0
 428 509 379 547 296 547 c 0
 225 546 178 513 149 465 c 0
 144 457 138 456 132 462 c 2
 56 529 l 2
 51 534 50 539 54 545 c 0
 106 624 194 668 310 667 c 0
 443 667 538 599 580 486 c 0
322 111 m 0
 391 111 436 150 453 209 c 0
 457 223 459 239 461 257 c 0
 462 260 460 262 457 262 c 2
 184 262 l 2
 181 262 179 260 179 257 c 0
 180 240 182 225 185 213 c 0
 201 152 250 111 322 111 c 0
EndSplineSet
Validated: 1048609
EndChar

StartChar: T
Encoding: 84 84 125
Width: 564
GlyphClass: 2
Flags: MW
HStem: 0 21G<216.5 220 220 337> 578 122<26.5 534 30 203 352.5 354 354 534>
VStem: 208 141<12 573>
AnchorPoint: "Anchor-7" 279 700 basechar 0
AnchorPoint: "Anchor-6" 280 0 basechar 0
LayerCount: 2
Fore
SplineSet
534 700 m 2
 541 700 546 695 546 688 c 2
 546 590 l 2
 546 583 541 578 534 578 c 2
 354 578 l 2
 351 578 349 576 349 573 c 2
 349 12 l 2
 349 5 344 0 337 0 c 2
 220 0 l 2
 213 0 208 5 208 12 c 2
 208 573 l 2
 208 576 206 578 203 578 c 2
 30 578 l 2
 23 578 18 583 18 590 c 2
 18 688 l 2
 18 695 23 700 30 700 c 2
 534 700 l 2
EndSplineSet
Validated: 1048577
Substitution2: "'c2sc' Capitals to Small Capitals in Latin lookup 19 subtable" t.sc
Substitution2: "'aalt' Access All Alternates in Latin lookup 0 subtable" t.sc
EndChar

StartChar: Tbar
Encoding: 358 358 126
Width: 582
GlyphClass: 2
Flags: MW
HStem: 0 21G<216.5 220 220 337> 324 85<126.5 203 130 203 354 460> 578 122<26.5 534 30 203 352.5 354 354 534>
VStem: 208 141<12 319 414 573>
AnchorPoint: "Anchor-7" 279 700 basechar 0
AnchorPoint: "Anchor-6" 280 0 basechar 0
LayerCount: 2
Fore
SplineSet
546 590 m 2
 546 583 541 578 534 578 c 2
 354 578 l 2
 351 578 349 576 349 573 c 2
 349 414 l 2
 349 411 351 409 354 409 c 2
 460 409 l 2
 467 409 472 404 472 397 c 2
 472 336 l 2
 472 329 467 324 460 324 c 2
 354 324 l 2
 351 324 349 322 349 319 c 2
 349 12 l 2
 349 5 344 0 337 0 c 2
 220 0 l 2
 213 0 208 5 208 12 c 2
 208 319 l 2
 208 322 206 324 203 324 c 2
 130 324 l 2
 123 324 118 329 118 336 c 2
 118 397 l 2
 118 404 123 409 130 409 c 2
 203 409 l 2
 206 409 208 411 208 414 c 2
 208 573 l 2
 208 576 206 578 203 578 c 2
 30 578 l 2
 23 578 18 583 18 590 c 2
 18 688 l 2
 18 695 23 700 30 700 c 2
 534 700 l 2
 541 700 546 695 546 688 c 2
 546 590 l 2
EndSplineSet
Validated: 1048577
Substitution2: "'c2sc' Capitals to Small Capitals in Latin lookup 19 subtable" tbar.sc
Substitution2: "'aalt' Access All Alternates in Latin lookup 0 subtable" tbar.sc
EndChar

StartChar: Tcaron
Encoding: 356 356 127
Width: 582
GlyphClass: 2
Flags: MW
HStem: 0 21G<216.5 220 220 337> 578 122<26.5 534 30 203 352.5 354 354 534> 757 128<224 227 227 237 237 240 352 359>
VStem: 208 141<12 573>
AnchorPoint: "Anchor-7" 279 700 basechar 0
AnchorPoint: "Anchor-6" 280 0 basechar 0
LayerCount: 2
Fore
SplineSet
373 765 m 2
 369 759 365 757 359 757 c 2
 227 757 l 2
 221 757 216 760 213 765 c 2
 139 870 l 2
 134 878 137 885 147 885 c 2
 237 885 l 2
 243 885 248 882 251 877 c 2
 291 816 l 2
 293 813 296 812 298 816 c 2
 338 877 l 2
 341 882 346 885 352 885 c 2
 441 885 l 2
 451 885 455 878 449 870 c 2
 373 765 l 2
534 700 m 2
 541 700 546 695 546 688 c 2
 546 590 l 2
 546 583 541 578 534 578 c 2
 354 578 l 2
 351 578 349 576 349 573 c 2
 349 12 l 2
 349 5 344 0 337 0 c 2
 220 0 l 2
 213 0 208 5 208 12 c 2
 208 573 l 2
 208 576 206 578 203 578 c 2
 30 578 l 2
 23 578 18 583 18 590 c 2
 18 688 l 2
 18 695 23 700 30 700 c 2
 534 700 l 2
EndSplineSet
Validated: 1048577
Substitution2: "'c2sc' Capitals to Small Capitals in Latin lookup 19 subtable" tcaron.sc
Substitution2: "'aalt' Access All Alternates in Latin lookup 0 subtable" tcaron.sc
EndChar

StartChar: U
Encoding: 85 85 128
Width: 638
GlyphClass: 2
Flags: MW
HStem: -8 121<283.5 354.5 283.5 397> 680 20G<72 189 189 192.5 449 566 566 569.5>
VStem: 60 141<232 688> 437 141<231 232 232 688>
AnchorPoint: "Anchor-9" 614 700 basechar 0
AnchorPoint: "Anchor-7" 319 700 basechar 0
AnchorPoint: "Anchor-6" 320 0 basechar 0
LayerCount: 2
Fore
SplineSet
319 -8 m 0
 164 -8 60 88 60 232 c 2
 60 688 l 2
 60 695 65 700 72 700 c 2
 189 700 l 2
 196 700 201 695 201 688 c 2
 201 231 l 2
 201 161 248 113 319 113 c 0
 390 113 437 161 437 231 c 2
 437 688 l 2
 437 695 442 700 449 700 c 2
 566 700 l 2
 573 700 578 695 578 688 c 2
 578 232 l 2
 578 88 475 -8 319 -8 c 0
EndSplineSet
Validated: 1048577
Substitution2: "'c2sc' Capitals to Small Capitals in Latin lookup 19 subtable" u.sc
Substitution2: "'aalt' Access All Alternates in Latin lookup 0 subtable" u.sc
EndChar

StartChar: Uacute
Encoding: 218 218 129
Width: 645
GlyphClass: 2
Flags: MW
HStem: -8 121<283.5 354.5 283.5 397> 680 20G<72 189 189 192.5 449 566 566 569.5> 762 124<262.5 428 327 351>
VStem: 60 141<232 688> 437 141<231 232 232 688>
AnchorPoint: "Anchor-9" 614 700 basechar 0
AnchorPoint: "Anchor-7" 354 886 basechar 0
AnchorPoint: "Anchor-6" 320 0 basechar 0
LayerCount: 2
Fore
SplineSet
267 762 m 2
 258 762 255 768 259 776 c 2
 312 877 l 2
 315 883 321 886 327 886 c 2
 428 886 l 2
 438 886 441 879 436 871 c 2
 365 770 l 2
 362 765 357 762 351 762 c 2
 267 762 l 2
319 -8 m 0
 164 -8 60 88 60 232 c 2
 60 688 l 2
 60 695 65 700 72 700 c 2
 189 700 l 2
 196 700 201 695 201 688 c 2
 201 231 l 2
 201 161 248 113 319 113 c 0
 390 113 437 161 437 231 c 2
 437 688 l 2
 437 695 442 700 449 700 c 2
 566 700 l 2
 573 700 578 695 578 688 c 2
 578 232 l 2
 578 88 475 -8 319 -8 c 0
EndSplineSet
Validated: 1048577
Substitution2: "'c2sc' Capitals to Small Capitals in Latin lookup 19 subtable" uacute.sc
Substitution2: "'aalt' Access All Alternates in Latin lookup 0 subtable" uacute.sc
EndChar

StartChar: Ubreve
Encoding: 364 364 130
Width: 638
GlyphClass: 2
Flags: MW
HStem: -8 121<283.5 354.5 283.5 397> 680 20G<72 189 189 192.5 449 566 566 569.5> 751 67<300.5 338.5 300.5 362.5>
VStem: 60 141<232 688> 437 141<231 232 232 688>
AnchorPoint: "Anchor-9" 614 700 basechar 0
AnchorPoint: "Anchor-7" 319 868 basechar 0
AnchorPoint: "Anchor-6" 320 0 basechar 0
LayerCount: 2
Fore
SplineSet
319 751 m 0
 233 751 169 799 162 865 c 0
 161 873 165 877 173 877 c 2
 233 876 l 2
 240 876 244 872 245 865 c 0
 252 837 282 818 319 818 c 0
 358 818 389 837 395 866 c 0
 396 873 400 877 407 877 c 2
 465 877 l 2
 473 877 477 873 477 867 c 0
 471 800 406 751 319 751 c 0
319 -8 m 0
 164 -8 60 88 60 232 c 2
 60 688 l 2
 60 695 65 700 72 700 c 2
 189 700 l 2
 196 700 201 695 201 688 c 2
 201 231 l 2
 201 161 248 113 319 113 c 0
 390 113 437 161 437 231 c 2
 437 688 l 2
 437 695 442 700 449 700 c 2
 566 700 l 2
 573 700 578 695 578 688 c 2
 578 232 l 2
 578 88 475 -8 319 -8 c 0
EndSplineSet
Validated: 1048577
EndChar

StartChar: Ucircumflex
Encoding: 219 219 131
Width: 645
GlyphClass: 2
Flags: MW
HStem: -8 121<283.5 354.5 283.5 397> 680 20G<72 189 189 192.5 449 566 566 569.5> 758 128<171 388 256 266 378 381 381 388 388 391 256 470>
VStem: 60 141<232 688> 437 141<231 232 232 688>
AnchorPoint: "Anchor-9" 614 700 basechar 0
AnchorPoint: "Anchor-7" 323 886 basechar 0
AnchorPoint: "Anchor-6" 320 0 basechar 0
LayerCount: 2
Fore
SplineSet
176 758 m 2
 166 758 163 765 168 773 c 2
 242 878 l 2
 245 883 250 886 256 886 c 2
 388 886 l 2
 394 886 398 884 402 878 c 2
 478 773 l 2
 484 765 480 758 470 758 c 2
 381 758 l 2
 375 758 370 761 367 766 c 2
 327 827 l 2
 325 831 322 830 320 827 c 2
 280 766 l 2
 277 761 272 758 266 758 c 2
 176 758 l 2
319 -8 m 0
 164 -8 60 88 60 232 c 2
 60 688 l 2
 60 695 65 700 72 700 c 2
 189 700 l 2
 196 700 201 695 201 688 c 2
 201 231 l 2
 201 161 248 113 319 113 c 0
 390 113 437 161 437 231 c 2
 437 688 l 2
 437 695 442 700 449 700 c 2
 566 700 l 2
 573 700 578 695 578 688 c 2
 578 232 l 2
 578 88 475 -8 319 -8 c 0
EndSplineSet
Validated: 1048577
Substitution2: "'c2sc' Capitals to Small Capitals in Latin lookup 19 subtable" ucircumflex.sc
Substitution2: "'aalt' Access All Alternates in Latin lookup 0 subtable" ucircumflex.sc
EndChar

StartChar: Udieresis
Encoding: 220 220 132
Width: 645
GlyphClass: 2
Flags: MW
HStem: -8 121<283.5 354.5 283.5 397> 680 20G<72 189 189 192.5 449 566 566 569.5> 764 158<200 245.5 399.5 445>
VStem: 60 141<232 688> 144 158<820.5 866.5> 344 157<820.5 866.5> 437 141<231 232 232 688>
AnchorPoint: "Anchor-9" 614 700 basechar 0
AnchorPoint: "Anchor-7" 319 700 basechar 0
AnchorPoint: "Anchor-6" 320 0 basechar 0
LayerCount: 2
Fore
SplineSet
223 764 m 0xec
 177 764 144 798 144 843 c 0
 144 890 177 922 223 922 c 0
 269 922 302 890 302 843 c 0
 302 798 268 764 223 764 c 0xec
422 764 m 0
 377 764 344 798 344 843 c 0
 344 890 377 922 422 922 c 0
 468 922 501 890 501 843 c 0
 501 798 468 764 422 764 c 0
319 -8 m 0xf2
 164 -8 60 88 60 232 c 2
 60 688 l 2
 60 695 65 700 72 700 c 2
 189 700 l 2
 196 700 201 695 201 688 c 2
 201 231 l 2
 201 161 248 113 319 113 c 0
 390 113 437 161 437 231 c 2
 437 688 l 2
 437 695 442 700 449 700 c 2
 566 700 l 2
 573 700 578 695 578 688 c 2
 578 232 l 2
 578 88 475 -8 319 -8 c 0xf2
EndSplineSet
Validated: 1048577
Substitution2: "'c2sc' Capitals to Small Capitals in Latin lookup 19 subtable" udieresis.sc
Substitution2: "'aalt' Access All Alternates in Latin lookup 0 subtable" udieresis.sc
EndChar

StartChar: uni1EE4
Encoding: 7908 7908 133
Width: 638
GlyphClass: 2
Flags: MW
HStem: -213 150<300 344> -8 121<283.5 354.5 283.5 397> 680 20G<72 189 189 192.5 449 566 566 569.5>
VStem: 60 141<232 688> 247 151<-159.5 -116> 437 141<231 232 232 688>
AnchorPoint: "Anchor-9" 614 700 basechar 0
AnchorPoint: "Anchor-7" 319 700 basechar 0
AnchorPoint: "Anchor-6" 320 -216 basechar 0
LayerCount: 2
Fore
SplineSet
319 -8 m 0
 164 -8 60 88 60 232 c 2
 60 688 l 2
 60 695 65 700 72 700 c 2
 189 700 l 2
 196 700 201 695 201 688 c 2
 201 231 l 2
 201 161 248 113 319 113 c 0
 390 113 437 161 437 231 c 2
 437 688 l 2
 437 695 442 700 449 700 c 2
 566 700 l 2
 573 700 578 695 578 688 c 2
 578 232 l 2
 578 88 475 -8 319 -8 c 0
322 -213 m 0
 278 -213 247 -181 247 -138 c 0
 247 -94 278 -63 322 -63 c 0
 366 -63 398 -94 398 -138 c 0
 398 -181 366 -213 322 -213 c 0
EndSplineSet
Validated: 1048577
EndChar

StartChar: Ugrave
Encoding: 217 217 134
Width: 645
GlyphClass: 2
Flags: MW
HStem: -8 121<283.5 354.5 283.5 397> 680 20G<72 189 189 192.5 449 566 566 569.5> 762 124<283 286 286 309 309 312 209 370>
VStem: 60 141<232 688> 437 141<231 232 232 688>
AnchorPoint: "Anchor-9" 614 700 basechar 0
AnchorPoint: "Anchor-7" 277 886 basechar 0
AnchorPoint: "Anchor-6" 320 0 basechar 0
LayerCount: 2
Fore
SplineSet
378 776 m 2
 382 768 379 762 370 762 c 2
 286 762 l 2
 280 762 275 765 272 770 c 2
 201 871 l 2
 196 879 199 886 209 886 c 2
 309 886 l 2
 315 886 321 883 324 877 c 2
 378 776 l 2
319 -8 m 0
 164 -8 60 88 60 232 c 2
 60 688 l 2
 60 695 65 700 72 700 c 2
 189 700 l 2
 196 700 201 695 201 688 c 2
 201 231 l 2
 201 161 248 113 319 113 c 0
 390 113 437 161 437 231 c 2
 437 688 l 2
 437 695 442 700 449 700 c 2
 566 700 l 2
 573 700 578 695 578 688 c 2
 578 232 l 2
 578 88 475 -8 319 -8 c 0
EndSplineSet
Validated: 1048577
Substitution2: "'c2sc' Capitals to Small Capitals in Latin lookup 19 subtable" ugrave.sc
Substitution2: "'aalt' Access All Alternates in Latin lookup 0 subtable" ugrave.sc
EndChar

StartChar: uni1EE6
Encoding: 7910 7910 135
Width: 638
GlyphClass: 2
Flags: MW
HStem: -8 121<283.5 354.5 283.5 397> 680 20G<72 189 189 192.5 449 566 566 569.5> 876 68<312 328.5>
VStem: 60 141<232 688> 349 75<833.5 858.5> 437 141<231 232 232 688>
AnchorPoint: "Anchor-9" 614 700 basechar 0
AnchorPoint: "Anchor-7" 320 943 basechar 0
AnchorPoint: "Anchor-6" 320 0 basechar 0
LayerCount: 2
Fore
SplineSet
306 747 m 2
 298 749 294 754 298 762 c 0
 320 816 349 815 349 852 c 0
 349 865 336 876 321 876 c 0
 303 876 294 869 276 846 c 0
 271 839 264 838 258 843 c 2
 224 868 l 2
 218 872 217 878 221 885 c 0
 250 927 277 944 325 944 c 0
 385 944 424 909 424 852 c 0
 424 799 380 782 360 747 c 0
 356 740 352 737 345 739 c 2xfc
 306 747 l 2
319 -8 m 0
 164 -8 60 88 60 232 c 2
 60 688 l 2
 60 695 65 700 72 700 c 2
 189 700 l 2
 196 700 201 695 201 688 c 2
 201 231 l 2
 201 161 248 113 319 113 c 0
 390 113 437 161 437 231 c 2
 437 688 l 2
 437 695 442 700 449 700 c 2
 566 700 l 2
 573 700 578 695 578 688 c 2
 578 232 l 2
 578 88 475 -8 319 -8 c 0
EndSplineSet
Validated: 1048577
EndChar

StartChar: Uhorn
Encoding: 431 431 136
Width: 638
GlyphClass: 2
Flags: MW
HStem: -8 121<283.5 354.5 283.5 397> 680 20G<72 189 189 192.5 449 548 548 549>
VStem: 60 141<232 688> 437 141<231 232 232 626> 585 86<763 767>
AnchorPoint: "Anchor-9" 587 687 basechar 0
AnchorPoint: "Anchor-7" 319 700 basechar 0
AnchorPoint: "Anchor-6" 320 0 basechar 0
LayerCount: 2
Fore
SplineSet
659 775 m 2
 666 775 671 771 671 763 c 0xe8
 667 692 628 651 582 632 c 0
 579 630 578 628 578 626 c 2
 578 232 l 2
 578 88 475 -8 319 -8 c 0
 164 -8 60 88 60 232 c 2
 60 688 l 2
 60 695 65 700 72 700 c 2
 189 700 l 2
 196 700 201 695 201 688 c 2
 201 231 l 2
 201 161 248 113 319 113 c 0
 390 113 437 161 437 231 c 2
 437 688 l 2
 437 695 442 700 449 700 c 2xf0
 548 700 l 2
 550 700 552 700 554 702 c 0
 570 713 582 732 585 763 c 0
 585 771 590 775 597 775 c 2
 659 775 l 2
EndSplineSet
Validated: 1048577
EndChar

StartChar: uni1EE8
Encoding: 7912 7912 137
Width: 638
GlyphClass: 2
Flags: MW
HStem: -8 121<283.5 354.5 283.5 397> 680 20G<72 189 189 192.5 449 548 548 549> 762 124<258.5 424 324 347>
VStem: 60 141<232 688> 437 141<231 232 232 626> 585 86<763 767>
AnchorPoint: "Anchor-9" 587 687 basechar 0
AnchorPoint: "Anchor-7" 351 886 basechar 0
AnchorPoint: "Anchor-6" 320 0 basechar 0
LayerCount: 2
Fore
SplineSet
424 886 m 2
 434 886 437 879 432 871 c 2
 361 770 l 2
 358 765 353 762 347 762 c 2
 263 762 l 2
 254 762 251 768 255 776 c 2
 309 877 l 2
 312 883 318 886 324 886 c 2
 424 886 l 2
659 775 m 2xf4
 666 775 671 771 671 763 c 0xf4
 667 692 628 651 582 632 c 0
 579 630 578 628 578 626 c 2
 578 232 l 2
 578 88 475 -8 319 -8 c 0
 164 -8 60 88 60 232 c 2
 60 688 l 2
 60 695 65 700 72 700 c 2
 189 700 l 2
 196 700 201 695 201 688 c 2
 201 231 l 2
 201 161 248 113 319 113 c 0
 390 113 437 161 437 231 c 2
 437 688 l 2
 437 695 442 700 449 700 c 2xf8
 548 700 l 2
 550 700 552 700 554 702 c 0
 570 713 582 732 585 763 c 0
 585 771 590 775 597 775 c 2
 659 775 l 2xf4
EndSplineSet
Validated: 1048577
EndChar

StartChar: uni1EF0
Encoding: 7920 7920 138
Width: 638
GlyphClass: 2
Flags: MW
HStem: -213 150<300 344> -8 121<283.5 354.5 283.5 397> 680 20G<72 189 189 192.5 449 548 548 549>
VStem: 60 141<232 688> 247 151<-159.5 -116> 437 141<231 232 232 626> 585 86<763 767>
AnchorPoint: "Anchor-9" 587 687 basechar 0
AnchorPoint: "Anchor-7" 319 700 basechar 0
AnchorPoint: "Anchor-6" 320 -216 basechar 0
LayerCount: 2
Fore
SplineSet
659 775 m 2
 666 775 671 771 671 763 c 0xf2
 667 692 628 651 582 632 c 0
 579 630 578 628 578 626 c 2
 578 232 l 2
 578 88 475 -8 319 -8 c 0
 164 -8 60 88 60 232 c 2
 60 688 l 2
 60 695 65 700 72 700 c 2
 189 700 l 2
 196 700 201 695 201 688 c 2
 201 231 l 2
 201 161 248 113 319 113 c 0
 390 113 437 161 437 231 c 2
 437 688 l 2
 437 695 442 700 449 700 c 2xf4
 548 700 l 2
 550 700 552 700 554 702 c 0
 570 713 582 732 585 763 c 0
 585 771 590 775 597 775 c 2
 659 775 l 2
322 -63 m 0xfc
 366 -63 398 -94 398 -138 c 0
 398 -181 366 -213 322 -213 c 0
 278 -213 247 -181 247 -138 c 0
 247 -94 278 -63 322 -63 c 0xfc
EndSplineSet
Validated: 1048577
EndChar

StartChar: uni1EEA
Encoding: 7914 7914 139
Width: 638
GlyphClass: 2
Flags: MW
HStem: -8 121<283.5 354.5 283.5 397> 680 20G<72 189 189 192.5 449 548 548 549> 762 124<280 283 283 306 306 309 205 367>
VStem: 60 141<232 688> 437 141<231 232 232 626> 585 86<763 767>
AnchorPoint: "Anchor-9" 587 687 basechar 0
AnchorPoint: "Anchor-7" 273 886 basechar 0
AnchorPoint: "Anchor-6" 320 0 basechar 0
LayerCount: 2
Fore
SplineSet
375 776 m 2
 379 768 376 762 367 762 c 2
 283 762 l 2
 277 762 272 765 269 770 c 2
 197 871 l 2
 191 879 195 886 205 886 c 2
 306 886 l 2
 312 886 318 883 321 877 c 2
 375 776 l 2
659 775 m 2xf4
 666 775 671 771 671 763 c 0xf4
 667 692 628 651 582 632 c 0
 579 630 578 628 578 626 c 2
 578 232 l 2
 578 88 475 -8 319 -8 c 0
 164 -8 60 88 60 232 c 2
 60 688 l 2
 60 695 65 700 72 700 c 2
 189 700 l 2
 196 700 201 695 201 688 c 2
 201 231 l 2
 201 161 248 113 319 113 c 0
 390 113 437 161 437 231 c 2
 437 688 l 2
 437 695 442 700 449 700 c 2xf8
 548 700 l 2
 550 700 552 700 554 702 c 0
 570 713 582 732 585 763 c 0
 585 771 590 775 597 775 c 2
 659 775 l 2xf4
EndSplineSet
Validated: 1048577
EndChar

StartChar: uni1EEC
Encoding: 7916 7916 140
Width: 638
GlyphClass: 2
Flags: MW
HStem: -8 121<283.5 354.5 283.5 397> 680 20G<72 189 189 192.5 449 548 548 549> 876 68<312 328.5>
VStem: 60 141<232 688> 349 75<833.5 858.5> 437 141<231 232 232 626> 585 86<763 767>
AnchorPoint: "Anchor-9" 587 687 basechar 0
AnchorPoint: "Anchor-7" 320 943 basechar 0
AnchorPoint: "Anchor-6" 320 0 basechar 0
LayerCount: 2
Fore
SplineSet
321 876 m 0
 303 876 294 869 276 846 c 0
 271 839 264 838 258 843 c 2
 224 868 l 2
 218 872 217 878 221 885 c 0
 250 927 277 944 325 944 c 0
 385 944 424 909 424 852 c 0
 424 799 380 782 360 747 c 0
 356 740 352 738 345 739 c 2
 306 747 l 2
 298 749 294 754 298 762 c 0
 320 816 349 815 349 852 c 0
 349 865 336 876 321 876 c 0
659 775 m 2
 666 775 671 771 671 763 c 0xf2
 667 692 628 651 582 632 c 0
 579 630 578 628 578 626 c 2
 578 232 l 2
 578 88 475 -8 319 -8 c 0
 164 -8 60 88 60 232 c 2
 60 688 l 2
 60 695 65 700 72 700 c 2
 189 700 l 2
 196 700 201 695 201 688 c 2
 201 231 l 2
 201 161 248 113 319 113 c 0
 390 113 437 161 437 231 c 2
 437 688 l 2
 437 695 442 700 449 700 c 2xf4
 548 700 l 2
 550 700 552 700 554 702 c 0
 570 713 582 732 585 763 c 0
 585 771 590 775 597 775 c 2
 659 775 l 2
EndSplineSet
Validated: 1048577
EndChar

StartChar: uni1EEE
Encoding: 7918 7918 141
Width: 638
GlyphClass: 2
Flags: MW
HStem: -8 121<283.5 354.5 283.5 397> 680 20G<72 189 189 192.5 449 548 548 549> 759 94<374.5 392 374.5 408> 794 100<253 273>
VStem: 60 141<232 688> 437 141<231 232 232 626> 585 86<763 767>
AnchorPoint: "Anchor-9" 587 687 basechar 0
AnchorPoint: "Anchor-7" 315 898 basechar 0
AnchorPoint: "Anchor-6" 320 0 basechar 0
LayerCount: 2
Fore
SplineSet
265 794 m 0xdc
 241 794 225 785 212 772 c 0
 207 766 200 765 195 771 c 2
 154 815 l 2
 150 820 148 826 152 832 c 0
 173 868 211 894 258 894 c 0xdc
 289 894 310 882 333 871 c 0
 352 861 366 853 383 853 c 0
 401 853 417 859 431 877 c 0
 437 884 443 884 448 878 c 2
 485 833 l 2
 489 828 490 823 487 817 c 0
 471 784 433 759 383 759 c 0xec
 352 759 334 768 316 777 c 0
 293 788 281 794 265 794 c 0xdc
659 775 m 2xea
 666 775 671 771 671 763 c 0xea
 667 692 628 651 582 632 c 0
 579 630 578 628 578 626 c 2
 578 232 l 2
 578 88 475 -8 319 -8 c 0
 164 -8 60 88 60 232 c 2
 60 688 l 2
 60 695 65 700 72 700 c 2
 189 700 l 2
 196 700 201 695 201 688 c 2
 201 231 l 2
 201 161 248 113 319 113 c 0
 390 113 437 161 437 231 c 2
 437 688 l 2
 437 695 442 700 449 700 c 2xec
 548 700 l 2
 550 700 552 700 554 702 c 0
 570 713 582 732 585 763 c 0
 585 771 590 775 597 775 c 2
 659 775 l 2xea
EndSplineSet
Validated: 1048577
EndChar

StartChar: Uhungarumlaut
Encoding: 368 368 142
Width: 645
GlyphClass: 2
Flags: MW
HStem: -8 121<283.5 354.5 283.5 397> 680 20G<72 189 189 192.5 449 566 566 569.5> 762 124<186.5 345 242 286 242 369 428 464>
VStem: 60 141<232 688> 437 141<231 232 232 688>
AnchorPoint: "Anchor-9" 614 700 basechar 0
AnchorPoint: "Anchor-7" 319 700 basechar 0
AnchorPoint: "Anchor-6" 320 0 basechar 0
LayerCount: 2
Fore
SplineSet
191 762 m 2
 182 762 177 767 181 776 c 2
 228 877 l 2
 231 884 236 886 242 886 c 2
 345 886 l 2
 354 886 358 880 354 872 c 2
 301 771 l 2
 298 765 292 762 286 762 c 2
 191 762 l 2
369 762 m 2
 360 762 356 768 360 776 c 2
 413 877 l 2
 416 883 422 886 428 886 c 2
 524 886 l 2
 533 886 536 880 532 872 c 2
 479 771 l 2
 476 765 470 762 464 762 c 2
 369 762 l 2
319 -8 m 0
 164 -8 60 88 60 232 c 2
 60 688 l 2
 60 695 65 700 72 700 c 2
 189 700 l 2
 196 700 201 695 201 688 c 2
 201 231 l 2
 201 161 248 113 319 113 c 0
 390 113 437 161 437 231 c 2
 437 688 l 2
 437 695 442 700 449 700 c 2
 566 700 l 2
 573 700 578 695 578 688 c 2
 578 232 l 2
 578 88 475 -8 319 -8 c 0
EndSplineSet
Validated: 1048577
Substitution2: "'c2sc' Capitals to Small Capitals in Latin lookup 19 subtable" uhungarumlaut.sc
Substitution2: "'aalt' Access All Alternates in Latin lookup 0 subtable" uhungarumlaut.sc
EndChar

StartChar: Umacron
Encoding: 362 362 143
Width: 645
GlyphClass: 2
Flags: MW
HStem: -8 121<283.5 354.5 283.5 397> 680 20G<72 189 189 192.5 449 566 566 569.5> 763 96<184.5 458 188 458>
VStem: 60 141<232 688> 437 141<231 232 232 688>
AnchorPoint: "Anchor-9" 614 700 basechar 0
AnchorPoint: "Anchor-7" 319 700 basechar 0
AnchorPoint: "Anchor-6" 320 0 basechar 0
LayerCount: 2
Fore
SplineSet
188 763 m 2
 181 763 176 768 176 775 c 2
 176 847 l 2
 176 854 181 859 188 859 c 2
 458 859 l 2
 465 859 470 854 470 847 c 2
 470 775 l 2
 470 768 465 763 458 763 c 2
 188 763 l 2
319 -8 m 0
 164 -8 60 88 60 232 c 2
 60 688 l 2
 60 695 65 700 72 700 c 2
 189 700 l 2
 196 700 201 695 201 688 c 2
 201 231 l 2
 201 161 248 113 319 113 c 0
 390 113 437 161 437 231 c 2
 437 688 l 2
 437 695 442 700 449 700 c 2
 566 700 l 2
 573 700 578 695 578 688 c 2
 578 232 l 2
 578 88 475 -8 319 -8 c 0
EndSplineSet
Validated: 1048577
Substitution2: "'c2sc' Capitals to Small Capitals in Latin lookup 19 subtable" umacron.sc
Substitution2: "'aalt' Access All Alternates in Latin lookup 0 subtable" umacron.sc
EndChar

StartChar: Uogonek
Encoding: 370 370 144
Width: 645
GlyphClass: 2
Flags: MW
HStem: -178.82 80.47 -6 21G<361 362> 680 20G<72 189 189 192.5 449 566 566 569.5>
VStem: 60 141<232 688> 225.45 165.05 437 141<231 232 232 688>
AnchorPoint: "Anchor-9" 614 700 basechar 0
AnchorPoint: "Anchor-7" 319 700 basechar 0
AnchorPoint: "Anchor-6" 320 0 basechar 0
LayerCount: 2
Fore
SplineSet
437 688 m 2
 437 695 442 700 449 700 c 2
 566 700 l 2
 573 700 578 695 578 688 c 2
 578 232 l 2
 578 102 494 11 362 -6 c 0
 360 -6 358 -7 356 -8 c 0
 329 -32 314 -56 320 -76 c 0
 325 -97 348 -103 372 -95 c 0
 380 -93 386 -95 387 -104 c 2
 394 -154 l 2
 395 -161 392 -166 385 -168 c 0
 342 -184 250 -193 229 -115 c 0xfc
 219 -80 230 -44 263 -9 c 0
 266 -6 265 -4 261 -3 c 0
 139 18 60 106 60 232 c 2
 60 688 l 2
 60 695 65 700 72 700 c 2
 189 700 l 2
 196 700 201 695 201 688 c 2
 201 231 l 2
 201 161 248 113 319 113 c 0
 390 113 437 161 437 231 c 2
 437 688 l 2
EndSplineSet
Validated: 1048609
Substitution2: "'c2sc' Capitals to Small Capitals in Latin lookup 19 subtable" uogonek.sc
Substitution2: "'aalt' Access All Alternates in Latin lookup 0 subtable" uogonek.sc
EndChar

StartChar: Uring
Encoding: 366 366 145
Width: 645
GlyphClass: 2
Flags: MW
HStem: -8 121<283.5 354.5 283.5 397> 680 20G<72 189 189 192.5 449 566 566 569.5> 748 74<309 336.5 309 358.5> 924 72<309 336.5>
VStem: 60 141<232 688> 198 74<859 887 859 907.5> 373 75<858.5 887> 437 141<231 232 232 688>
AnchorPoint: "Anchor-9" 614 700 basechar 0
AnchorPoint: "Anchor-7" 319 700 basechar 0
AnchorPoint: "Anchor-6" 320 0 basechar 0
LayerCount: 2
Fore
SplineSet
323 748 m 0xf6
 252 748 198 802 198 873 c 0
 198 942 252 996 323 996 c 0
 394 996 448 942 448 873 c 0
 448 802 394 748 323 748 c 0xf6
323 822 m 0
 350 822 373 844 373 873 c 0
 373 901 350 924 323 924 c 0
 295 924 272 901 272 873 c 0
 272 845 295 822 323 822 c 0
319 -8 m 0xf9
 164 -8 60 88 60 232 c 2
 60 688 l 2
 60 695 65 700 72 700 c 2
 189 700 l 2
 196 700 201 695 201 688 c 2
 201 231 l 2
 201 161 248 113 319 113 c 0
 390 113 437 161 437 231 c 2
 437 688 l 2
 437 695 442 700 449 700 c 2
 566 700 l 2
 573 700 578 695 578 688 c 2
 578 232 l 2
 578 88 475 -8 319 -8 c 0xf9
EndSplineSet
Validated: 1048577
Substitution2: "'c2sc' Capitals to Small Capitals in Latin lookup 19 subtable" uring.sc
Substitution2: "'aalt' Access All Alternates in Latin lookup 0 subtable" uring.sc
EndChar

StartChar: Utilde
Encoding: 360 360 146
Width: 638
GlyphClass: 2
Flags: MW
HStem: -8 121<283.5 354.5 283.5 397> 680 20G<72 189 189 192.5 449 566 566 569.5> 759 94<374.5 392 374.5 408.5> 794 100<253 273>
VStem: 60 141<232 688> 437 141<231 232 232 688>
AnchorPoint: "Anchor-9" 614 700 basechar 0
AnchorPoint: "Anchor-7" 315 898 basechar 0
AnchorPoint: "Anchor-6" 320 0 basechar 0
LayerCount: 2
Fore
SplineSet
383 759 m 0xec
 352 759 334 768 316 777 c 0
 293 788 281 794 265 794 c 0
 241 794 225 785 212 772 c 0
 207 766 200 765 195 771 c 2
 154 815 l 2
 150 820 148 826 152 832 c 0
 173 868 211 894 258 894 c 0xdc
 289 894 310 882 333 871 c 0
 352 861 366 853 383 853 c 0
 401 853 417 859 431 877 c 0
 437 884 443 884 448 878 c 2
 485 833 l 2
 489 828 490 824 488 819 c 0
 472 785 434 759 383 759 c 0xec
319 -8 m 0
 164 -8 60 88 60 232 c 2
 60 688 l 2
 60 695 65 700 72 700 c 2
 189 700 l 2
 196 700 201 695 201 688 c 2
 201 231 l 2
 201 161 248 113 319 113 c 0
 390 113 437 161 437 231 c 2
 437 688 l 2
 437 695 442 700 449 700 c 2
 566 700 l 2
 573 700 578 695 578 688 c 2
 578 232 l 2
 578 88 475 -8 319 -8 c 0
EndSplineSet
Validated: 1048577
EndChar

StartChar: V
Encoding: 86 86 147
Width: 595
Flags: MW
HStem: 0 21G<230.5 234 234 360> 680 20G<24 150 150 153.5 448 571 571 575>
VStem: 13.59 567.81
LayerCount: 2
Fore
SplineSet
434 690 m 2
 436 697 441 700 448 700 c 2
 571 700 l 2
 579 700 583 694 581 686 c 2
 373 10 l 2
 371 4 367 0 360 0 c 2
 234 0 l 2
 227 0 223 4 221 10 c 2
 14 686 l 2
 12 694 16 700 24 700 c 2
 150 700 l 2
 157 700 162 697 164 690 c 2
 297 196 l 2
 298 192 302 192 303 196 c 2
 434 690 l 2
EndSplineSet
Validated: 1
Substitution2: "'c2sc' Capitals to Small Capitals in Latin lookup 19 subtable" v.sc
Substitution2: "'aalt' Access All Alternates in Latin lookup 0 subtable" v.sc
EndChar

StartChar: W
Encoding: 87 87 148
Width: 856
GlyphClass: 2
Flags: MW
HStem: 0 21G<202.5 206 206 317 543.5 547 547 665> 680 20G<25 149 149 152.5 368 489 489 492.5 714 832 832 836>
VStem: 14.59 828.65
AnchorPoint: "Anchor-7" 428 700 basechar 0
LayerCount: 2
Fore
SplineSet
701 689 m 2
 702 696 707 700 714 700 c 2
 832 700 l 2
 840 700 845 696 843 687 c 2
 679 10 l 2
 677 3 672 0 665 0 c 2
 547 0 l 2
 540 0 536 3 534 10 c 2
 431 444 l 2
 430 449 426 449 425 444 c 2
 330 11 l 2
 329 4 324 0 317 0 c 2
 206 0 l 2
 199 0 194 3 192 10 c 2
 15 687 l 2
 13 696 17 700 25 700 c 2
 149 700 l 2
 156 700 160 697 162 690 c 2
 257 283 l 2
 258 278 262 278 263 283 c 2
 355 689 l 2
 357 696 361 700 368 700 c 2
 489 700 l 2
 496 700 501 697 503 690 c 2
 604 281 l 2
 605 277 609 276 610 281 c 2
 701 689 l 2
EndSplineSet
Validated: 1048577
Substitution2: "'c2sc' Capitals to Small Capitals in Latin lookup 19 subtable" w.sc
Substitution2: "'aalt' Access All Alternates in Latin lookup 0 subtable" w.sc
EndChar

StartChar: Wacute
Encoding: 7810 7810 149
Width: 898
GlyphClass: 2
Flags: MW
HStem: 0 21G<202.5 206 206 317 543.5 547 547 665> 680 20G<25 149 149 152.5 368 489 489 492.5 714 832 832 836> 762 124<388.5 554 453 476>
VStem: 14.59 828.65
AnchorPoint: "Anchor-7" 480 886 basechar 0
LayerCount: 2
Fore
SplineSet
554 886 m 2
 564 886 567 879 562 871 c 2
 490 770 l 2
 487 765 482 762 476 762 c 2
 393 762 l 2
 384 762 381 768 385 776 c 2
 438 877 l 2
 441 883 447 886 453 886 c 2
 554 886 l 2
701 689 m 2
 702 696 707 700 714 700 c 2
 832 700 l 2
 840 700 845 696 843 687 c 2
 679 10 l 2
 677 3 672 0 665 0 c 2
 547 0 l 2
 540 0 536 3 534 10 c 2
 431 444 l 2
 430 449 426 449 425 444 c 2
 330 11 l 2
 329 4 324 0 317 0 c 2
 206 0 l 2
 199 0 194 3 192 10 c 2
 15 687 l 2
 13 696 17 700 25 700 c 2
 149 700 l 2
 156 700 160 697 162 690 c 2
 257 283 l 2
 258 278 262 278 263 283 c 2
 355 689 l 2
 357 696 361 700 368 700 c 2
 489 700 l 2
 496 700 501 697 503 690 c 2
 604 281 l 2
 605 277 609 276 610 281 c 2
 701 689 l 2
EndSplineSet
Validated: 1048577
Substitution2: "'c2sc' Capitals to Small Capitals in Latin lookup 19 subtable" wacute.sc
Substitution2: "'aalt' Access All Alternates in Latin lookup 0 subtable" wacute.sc
EndChar

StartChar: Wcircumflex
Encoding: 372 372 150
Width: 898
GlyphClass: 2
Flags: MW
HStem: 0 21G<202.5 206 206 317 543.5 547 547 665> 680 20G<25 149 149 152.5 368 489 489 492.5 714 832 832 836> 758 128<297 514 382 392 503 506 506 514 514 517 382 596>
VStem: 14.59 828.65
AnchorPoint: "Anchor-7" 449 886 basechar 0
LayerCount: 2
Fore
SplineSet
452 827 m 2
 450 831 448 831 446 827 c 2
 406 766 l 2
 403 761 398 758 392 758 c 2
 302 758 l 2
 292 758 289 765 294 773 c 2
 368 878 l 2
 371 883 376 886 382 886 c 2
 514 886 l 2
 520 886 524 884 528 878 c 2
 604 773 l 2
 610 765 606 758 596 758 c 2
 506 758 l 2
 500 758 495 761 492 766 c 2
 452 827 l 2
701 689 m 2
 702 696 707 700 714 700 c 2
 832 700 l 2
 840 700 845 696 843 687 c 2
 679 10 l 2
 677 3 672 0 665 0 c 2
 547 0 l 2
 540 0 536 3 534 10 c 2
 431 444 l 2
 430 449 426 449 425 444 c 2
 330 11 l 2
 329 4 324 0 317 0 c 2
 206 0 l 2
 199 0 194 3 192 10 c 2
 15 687 l 2
 13 696 17 700 25 700 c 2
 149 700 l 2
 156 700 160 697 162 690 c 2
 257 283 l 2
 258 278 262 278 263 283 c 2
 355 689 l 2
 357 696 361 700 368 700 c 2
 489 700 l 2
 496 700 501 697 503 690 c 2
 604 281 l 2
 605 277 609 276 610 281 c 2
 701 689 l 2
EndSplineSet
Validated: 1048577
Substitution2: "'c2sc' Capitals to Small Capitals in Latin lookup 19 subtable" wcircumflex.sc
Substitution2: "'aalt' Access All Alternates in Latin lookup 0 subtable" wcircumflex.sc
EndChar

StartChar: Wdieresis
Encoding: 7812 7812 151
Width: 898
GlyphClass: 2
Flags: MW
HStem: 0 21G<202.5 206 206 317 543.5 547 547 665> 680 20G<25 149 149 152.5 368 489 489 492.5 714 832 832 836> 764 158<326 371.5 525 571>
VStem: 270 158<820.5 866.5> 470 157<820.5 866.5>
AnchorPoint: "Anchor-7" 428 700 basechar 0
LayerCount: 2
Fore
SplineSet
349 764 m 0
 303 764 270 798 270 843 c 0
 270 890 303 922 349 922 c 0
 395 922 428 890 428 843 c 0
 428 798 394 764 349 764 c 0
548 764 m 0
 502 764 470 798 470 843 c 0
 470 890 502 922 548 922 c 0
 594 922 627 890 627 843 c 0
 627 798 594 764 548 764 c 0
701 689 m 2
 702 696 707 700 714 700 c 2
 832 700 l 2
 840 700 845 696 843 687 c 2
 679 10 l 2
 677 3 672 0 665 0 c 2
 547 0 l 2
 540 0 536 3 534 10 c 2
 431 444 l 2
 430 449 426 449 425 444 c 2
 330 11 l 2
 329 4 324 0 317 0 c 2
 206 0 l 2
 199 0 194 3 192 10 c 2
 15 687 l 2
 13 696 17 700 25 700 c 2
 149 700 l 2
 156 700 160 697 162 690 c 2
 257 283 l 2
 258 278 262 278 263 283 c 2
 355 689 l 2
 357 696 361 700 368 700 c 2
 489 700 l 2
 496 700 501 697 503 690 c 2
 604 281 l 2
 605 277 609 276 610 281 c 2
 701 689 l 2
EndSplineSet
Validated: 1048577
Substitution2: "'c2sc' Capitals to Small Capitals in Latin lookup 19 subtable" wdieresis.sc
Substitution2: "'aalt' Access All Alternates in Latin lookup 0 subtable" wdieresis.sc
EndChar

StartChar: Wgrave
Encoding: 7808 7808 152
Width: 898
GlyphClass: 2
Flags: MW
HStem: 0 21G<202.5 206 206 317 543.5 547 547 665> 680 20G<25 149 149 152.5 368 489 489 492.5 714 832 832 836> 762 124<409 412 412 435 435 438 335 496>
VStem: 14.59 828.65
AnchorPoint: "Anchor-7" 402 886 basechar 0
LayerCount: 2
Fore
SplineSet
504 776 m 2
 508 768 505 762 496 762 c 2
 412 762 l 2
 406 762 401 765 398 770 c 2
 327 871 l 2
 322 879 325 886 335 886 c 2
 435 886 l 2
 441 886 447 883 450 877 c 2
 504 776 l 2
701 689 m 2
 702 696 707 700 714 700 c 2
 832 700 l 2
 840 700 845 696 843 687 c 2
 679 10 l 2
 677 3 672 0 665 0 c 2
 547 0 l 2
 540 0 536 3 534 10 c 2
 431 444 l 2
 430 449 426 449 425 444 c 2
 330 11 l 2
 329 4 324 0 317 0 c 2
 206 0 l 2
 199 0 194 3 192 10 c 2
 15 687 l 2
 13 696 17 700 25 700 c 2
 149 700 l 2
 156 700 160 697 162 690 c 2
 257 283 l 2
 258 278 262 278 263 283 c 2
 355 689 l 2
 357 696 361 700 368 700 c 2
 489 700 l 2
 496 700 501 697 503 690 c 2
 604 281 l 2
 605 277 609 276 610 281 c 2
 701 689 l 2
EndSplineSet
Validated: 1048577
Substitution2: "'c2sc' Capitals to Small Capitals in Latin lookup 19 subtable" wgrave.sc
Substitution2: "'aalt' Access All Alternates in Latin lookup 0 subtable" wgrave.sc
EndChar

StartChar: X
Encoding: 88 88 153
Width: 595
Flags: MW
HStem: 0 21G<18.5 23 23 149 443 446 446 572> 680 20G<23 150 150 153 446 572 572 576.5>
VStem: 12.02 570.94
LayerCount: 2
Fore
SplineSet
23 0 m 2
 14 0 9 5 14 14 c 2
 208 347 l 2
 209 349 209 351 208 353 c 2
 14 686 l 2
 9 695 14 700 23 700 c 2
 150 700 l 2
 156 700 162 697 165 692 c 2
 295 463 l 2
 297 459 299 459 301 463 c 2
 431 692 l 2
 434 697 440 700 446 700 c 2
 572 700 l 2
 581 700 586 695 581 686 c 2
 387 353 l 2
 386 351 386 349 387 347 c 2
 581 14 l 2
 586 5 581 0 572 0 c 2
 446 0 l 2
 440 0 434 3 431 8 c 2
 301 236 l 2
 299 240 297 240 295 236 c 2
 164 8 l 2
 161 3 155 0 149 0 c 2
 23 0 l 2
EndSplineSet
Validated: 1
Substitution2: "'c2sc' Capitals to Small Capitals in Latin lookup 19 subtable" x.sc
Substitution2: "'aalt' Access All Alternates in Latin lookup 0 subtable" x.sc
EndChar

StartChar: Y
Encoding: 89 89 154
Width: 592
GlyphClass: 2
Flags: MW
HStem: 680 20G<27 154 154 157 438 565 565 569.5>
VStem: 226 140<13 266>
AnchorPoint: "Anchor-7" 296 700 basechar 0
AnchorPoint: "Anchor-6" 297 0 basechar 0
LayerCount: 2
Fore
SplineSet
238 1 m 2
 231 1 226 6 226 13 c 2
 226 266 l 2
 226 268 226 270 225 272 c 2
 18 686 l 2
 14 695 18 700 27 700 c 2
 154 700 l 2
 160 700 165 698 168 691 c 2
 293 425 l 2
 295 421 297 421 299 425 c 2
 424 691 l 2
 427 698 432 700 438 700 c 2
 565 700 l 2
 574 700 578 695 574 686 c 2
 367 272 l 2
 366 270 366 268 366 266 c 2
 366 13 l 2
 366 6 361 1 354 1 c 2
 238 1 l 2
EndSplineSet
Validated: 1048577
Substitution2: "'c2sc' Capitals to Small Capitals in Latin lookup 19 subtable" y.sc
Substitution2: "'aalt' Access All Alternates in Latin lookup 0 subtable" y.sc
EndChar

StartChar: Yacute
Encoding: 221 221 155
Width: 595
GlyphClass: 2
Flags: MW
HStem: 680 20G<27 154 154 157 438 565 565 569.5> 762 123<237.5 403 302 325>
VStem: 226 140<13 266>
AnchorPoint: "Anchor-7" 329 885 basechar 0
AnchorPoint: "Anchor-6" 297 0 basechar 0
LayerCount: 2
Fore
SplineSet
242 762 m 2
 233 762 230 768 234 776 c 2
 287 876 l 2
 290 882 296 885 302 885 c 2
 403 885 l 2
 413 885 417 878 411 870 c 2
 339 769 l 2
 335 763 331 762 325 762 c 2
 242 762 l 2
238 1 m 2
 231 1 226 6 226 13 c 2
 226 266 l 2
 226 268 226 270 225 272 c 2
 18 686 l 2
 14 695 18 700 27 700 c 2
 154 700 l 2
 160 700 165 698 168 691 c 2
 293 425 l 2
 295 421 297 421 299 425 c 2
 424 691 l 2
 427 698 432 700 438 700 c 2
 565 700 l 2
 574 700 578 695 574 686 c 2
 367 272 l 2
 366 270 366 268 366 266 c 2
 366 13 l 2
 366 6 361 1 354 1 c 2
 238 1 l 2
EndSplineSet
Validated: 1048577
Substitution2: "'c2sc' Capitals to Small Capitals in Latin lookup 19 subtable" yacute.sc
Substitution2: "'aalt' Access All Alternates in Latin lookup 0 subtable" yacute.sc
EndChar

StartChar: Ycircumflex
Encoding: 374 374 156
Width: 595
GlyphClass: 2
Flags: MW
HStem: 680 20G<27 154 154 157 438 565 565 569.5> 758 127<146 363 230 241 352 355 355 363 363 366 230 445>
VStem: 226 140<13 266>
AnchorPoint: "Anchor-7" 298 885 basechar 0
AnchorPoint: "Anchor-6" 297 0 basechar 0
LayerCount: 2
Fore
SplineSet
151 758 m 2
 141 758 138 765 143 773 c 2
 216 877 l 2
 219 882 224 885 230 885 c 2
 363 885 l 2
 369 885 373 884 377 878 c 2
 453 773 l 2
 459 765 455 758 445 758 c 2
 355 758 l 2
 349 758 344 761 341 766 c 2
 301 827 l 2
 299 831 297 831 295 827 c 2
 255 766 l 2
 252 761 247 758 241 758 c 2
 151 758 l 2
238 1 m 2
 231 1 226 6 226 13 c 2
 226 266 l 2
 226 268 226 270 225 272 c 2
 18 686 l 2
 14 695 18 700 27 700 c 2
 154 700 l 2
 160 700 165 698 168 691 c 2
 293 425 l 2
 295 421 297 421 299 425 c 2
 424 691 l 2
 427 698 432 700 438 700 c 2
 565 700 l 2
 574 700 578 695 574 686 c 2
 367 272 l 2
 366 270 366 268 366 266 c 2
 366 13 l 2
 366 6 361 1 354 1 c 2
 238 1 l 2
EndSplineSet
Validated: 1048577
Substitution2: "'c2sc' Capitals to Small Capitals in Latin lookup 19 subtable" ycircumflex.sc
Substitution2: "'aalt' Access All Alternates in Latin lookup 0 subtable" ycircumflex.sc
EndChar

StartChar: Ydieresis
Encoding: 376 376 157
Width: 595
GlyphClass: 2
Flags: MW
HStem: 680 20G<27 154 154 157 438 565 565 569.5> 764 158<175 220.5 374 419.5>
VStem: 119 158<820.5 866> 226 140<13 266> 318 158<820.5 866>
AnchorPoint: "Anchor-7" 296 700 basechar 0
AnchorPoint: "Anchor-6" 297 0 basechar 0
LayerCount: 2
Fore
SplineSet
198 764 m 0xe8
 152 764 119 798 119 843 c 0
 119 889 152 922 198 922 c 0
 244 922 277 889 277 843 c 0
 277 798 243 764 198 764 c 0xe8
397 764 m 0
 351 764 318 798 318 843 c 0
 318 889 351 922 397 922 c 0
 443 922 476 889 476 843 c 0
 476 798 442 764 397 764 c 0
238 1 m 2xd0
 231 1 226 6 226 13 c 2
 226 266 l 2
 226 268 226 270 225 272 c 2
 18 686 l 2
 14 695 18 700 27 700 c 2
 154 700 l 2
 160 700 165 698 168 691 c 2
 293 425 l 2
 295 421 297 421 299 425 c 2
 424 691 l 2
 427 698 432 700 438 700 c 2
 565 700 l 2
 574 700 578 695 574 686 c 2
 367 272 l 2
 366 270 366 268 366 266 c 2
 366 13 l 2
 366 6 361 1 354 1 c 2
 238 1 l 2xd0
EndSplineSet
Validated: 1048577
Substitution2: "'c2sc' Capitals to Small Capitals in Latin lookup 19 subtable" ydieresis.sc
Substitution2: "'aalt' Access All Alternates in Latin lookup 0 subtable" ydieresis.sc
EndChar

StartChar: uni1EF4
Encoding: 7924 7924 158
Width: 592
GlyphClass: 2
Flags: MW
HStem: -213 150<277 321> 680 20G<27 154 154 157 438 565 565 569.5>
VStem: 224 151<-159.5 -116> 226 140<13 266>
AnchorPoint: "Anchor-7" 296 700 basechar 0
AnchorPoint: "Anchor-6" 297 -216 basechar 0
LayerCount: 2
Fore
SplineSet
238 1 m 2xd0
 231 1 226 6 226 13 c 2
 226 266 l 2
 226 268 226 270 225 272 c 2
 18 686 l 2
 14 695 18 700 27 700 c 2
 154 700 l 2
 160 700 165 698 168 691 c 2
 293 425 l 2
 295 421 297 421 299 425 c 2
 424 691 l 2
 427 698 432 700 438 700 c 2
 565 700 l 2
 574 700 578 695 574 686 c 2
 367 272 l 2
 366 270 366 268 366 266 c 2
 366 13 l 2
 366 6 361 1 354 1 c 2
 238 1 l 2xd0
299 -213 m 0xe0
 255 -213 224 -181 224 -138 c 0
 224 -94 255 -63 299 -63 c 0
 343 -63 375 -94 375 -138 c 0
 375 -181 343 -213 299 -213 c 0xe0
EndSplineSet
Validated: 1048577
EndChar

StartChar: Ygrave
Encoding: 7922 7922 159
Width: 595
GlyphClass: 2
Flags: MW
HStem: 680 20G<27 154 154 157 438 565 565 569.5> 762 123<258 261 261 284 284 287 183 345>
VStem: 226 140<13 266>
AnchorPoint: "Anchor-7" 251 885 basechar 0
AnchorPoint: "Anchor-6" 297 0 basechar 0
LayerCount: 2
Fore
SplineSet
353 776 m 2
 357 768 354 762 345 762 c 2
 261 762 l 2
 255 762 250 765 247 770 c 2
 175 870 l 2
 169 878 173 885 183 885 c 2
 284 885 l 2
 290 885 296 883 299 877 c 2
 353 776 l 2
238 1 m 2
 231 1 226 6 226 13 c 2
 226 266 l 2
 226 268 226 270 225 272 c 2
 18 686 l 2
 14 695 18 700 27 700 c 2
 154 700 l 2
 160 700 165 698 168 691 c 2
 293 425 l 2
 295 421 297 421 299 425 c 2
 424 691 l 2
 427 698 432 700 438 700 c 2
 565 700 l 2
 574 700 578 695 574 686 c 2
 367 272 l 2
 366 270 366 268 366 266 c 2
 366 13 l 2
 366 6 361 1 354 1 c 2
 238 1 l 2
EndSplineSet
Validated: 1048577
Substitution2: "'c2sc' Capitals to Small Capitals in Latin lookup 19 subtable" ygrave.sc
Substitution2: "'aalt' Access All Alternates in Latin lookup 0 subtable" ygrave.sc
EndChar

StartChar: uni1EF6
Encoding: 7926 7926 160
Width: 592
GlyphClass: 2
Flags: MW
HStem: 680 20G<27 154 154 157 438 565 565 569.5> 875 68<289 305.5>
VStem: 226 140<13 266> 326 75<832.5 857.5>
AnchorPoint: "Anchor-7" 297 942 basechar 0
AnchorPoint: "Anchor-6" 297 0 basechar 0
LayerCount: 2
Fore
SplineSet
283 746 m 2xe0
 275 748 271 753 275 761 c 0
 297 815 326 814 326 851 c 0
 326 864 313 875 298 875 c 0
 280 875 271 868 253 845 c 0
 248 838 241 837 235 842 c 2
 201 867 l 2
 195 871 194 877 198 884 c 0
 227 926 254 943 302 943 c 0
 362 943 401 908 401 851 c 0
 401 798 357 781 337 746 c 0
 333 739 329 736 322 738 c 2xd0
 283 746 l 2xe0
238 1 m 2
 231 1 226 6 226 13 c 2
 226 266 l 2
 226 268 226 270 225 272 c 2
 18 686 l 2
 14 695 18 700 27 700 c 2
 154 700 l 2
 160 700 165 698 168 691 c 2
 293 425 l 2
 295 421 297 421 299 425 c 2
 424 691 l 2
 427 698 432 700 438 700 c 2
 565 700 l 2
 574 700 578 695 574 686 c 2
 367 272 l 2
 366 270 366 268 366 266 c 2
 366 13 l 2
 366 6 361 1 354 1 c 2
 238 1 l 2
EndSplineSet
Validated: 1048577
EndChar

StartChar: uni1EF8
Encoding: 7928 7928 161
Width: 592
GlyphClass: 2
Flags: MW
HStem: 680 20G<27 154 154 157 438 565 565 569.5> 759 94<351.5 369 351.5 385.5> 794 100<230 250>
VStem: 226 140<13 266>
AnchorPoint: "Anchor-7" 292 898 basechar 0
AnchorPoint: "Anchor-6" 297 0 basechar 0
LayerCount: 2
Fore
SplineSet
360 759 m 0xd0
 329 759 311 768 293 777 c 0
 270 788 258 794 242 794 c 0
 218 794 202 785 189 772 c 0
 184 766 177 765 172 771 c 2
 131 815 l 2
 127 820 125 826 129 832 c 0
 150 868 188 894 235 894 c 0xb0
 266 894 287 882 310 871 c 0
 329 861 343 853 360 853 c 0
 378 853 394 859 408 877 c 0
 414 884 420 884 425 878 c 2
 462 833 l 2
 466 828 467 824 465 819 c 0
 449 785 411 759 360 759 c 0xd0
238 1 m 2
 231 1 226 6 226 13 c 2
 226 266 l 2
 226 268 226 270 225 272 c 2
 18 686 l 2
 14 695 18 700 27 700 c 2
 154 700 l 2
 160 700 165 698 168 691 c 2
 293 425 l 2
 295 421 297 421 299 425 c 2
 424 691 l 2
 427 698 432 700 438 700 c 2
 565 700 l 2
 574 700 578 695 574 686 c 2
 367 272 l 2
 366 270 366 268 366 266 c 2
 366 13 l 2
 366 6 361 1 354 1 c 2
 238 1 l 2
EndSplineSet
Validated: 1048577
EndChar

StartChar: Z
Encoding: 90 90 162
Width: 556
GlyphClass: 2
Flags: MW
HStem: 0 121<197 510 197 510> 579 121<43.5 510 47 358>
VStem: 35 487<12 109 8.5 120 8.5 123 591 688> 362 160
AnchorPoint: "Anchor-7" 280 700 basechar 0
LayerCount: 2
Fore
SplineSet
47 0 m 2xe0
 40 0 35 5 35 12 c 2
 35 120 l 2
 35 126 37 131 40 135 c 2
 362 573 l 2
 364 576 362 579 358 579 c 2
 47 579 l 2
 40 579 35 584 35 591 c 2
 35 688 l 2
 35 695 40 700 47 700 c 2
 510 700 l 2
 517 700 522 695 522 688 c 2
 522 580 l 2
 522 574 520 569 517 565 c 2xd0
 194 127 l 2
 192 124 193 121 197 121 c 2
 510 121 l 2
 517 121 522 116 522 109 c 2
 522 12 l 2
 522 5 517 0 510 0 c 2
 47 0 l 2xe0
EndSplineSet
Validated: 1048577
Substitution2: "'c2sc' Capitals to Small Capitals in Latin lookup 19 subtable" z.sc
Substitution2: "'aalt' Access All Alternates in Latin lookup 0 subtable" z.sc
EndChar

StartChar: Zacute
Encoding: 377 377 163
Width: 565
GlyphClass: 2
Flags: MW
HStem: 0 121<197 510 197 510> 579 121<43.5 510 47 358> 762 124<221.5 388 287 310>
VStem: 35 487<12 109 8.5 120 8.5 123 591 688> 362 160
AnchorPoint: "Anchor-7" 314 886 basechar 0
LayerCount: 2
Fore
SplineSet
226 762 m 2xf0
 217 762 214 768 218 776 c 2
 272 877 l 2
 275 883 281 886 287 886 c 2
 388 886 l 2
 398 886 401 879 396 871 c 2
 324 770 l 2
 321 765 316 762 310 762 c 2
 226 762 l 2xf0
47 0 m 2
 40 0 35 5 35 12 c 2
 35 120 l 2
 35 126 37 131 40 135 c 2
 362 573 l 2
 364 576 362 579 358 579 c 2
 47 579 l 2
 40 579 35 584 35 591 c 2
 35 688 l 2
 35 695 40 700 47 700 c 2
 510 700 l 2
 517 700 522 695 522 688 c 2
 522 580 l 2
 522 574 520 569 517 565 c 2xe8
 194 127 l 2
 192 124 193 121 197 121 c 2
 510 121 l 2
 517 121 522 116 522 109 c 2
 522 12 l 2
 522 5 517 0 510 0 c 2
 47 0 l 2
EndSplineSet
Validated: 1048577
Substitution2: "'c2sc' Capitals to Small Capitals in Latin lookup 19 subtable" zacute.sc
Substitution2: "'aalt' Access All Alternates in Latin lookup 0 subtable" zacute.sc
EndChar

StartChar: Zcaron
Encoding: 381 381 164
Width: 565
GlyphClass: 2
Flags: MW
HStem: 0 121<197 510 197 510> 579 121<43.5 510 47 358> 758 128<219 222 222 232 232 235 347 354>
VStem: 35 487<12 109 8.5 120 8.5 123 591 688> 362 160
AnchorPoint: "Anchor-7" 280 700 basechar 0
LayerCount: 2
Fore
SplineSet
134 871 m 2xf0
 129 879 132 886 142 886 c 2
 232 886 l 2
 238 886 243 883 246 878 c 2
 286 816 l 2
 288 812 291 812 293 816 c 2
 333 878 l 2
 336 883 341 886 347 886 c 2
 436 886 l 2
 446 886 450 879 444 871 c 2
 368 765 l 2
 364 759 360 758 354 758 c 2
 222 758 l 2
 216 758 211 761 208 766 c 2
 134 871 l 2xf0
47 0 m 2
 40 0 35 5 35 12 c 2
 35 120 l 2
 35 126 37 131 40 135 c 2
 362 573 l 2
 364 576 362 579 358 579 c 2
 47 579 l 2
 40 579 35 584 35 591 c 2
 35 688 l 2
 35 695 40 700 47 700 c 2
 510 700 l 2
 517 700 522 695 522 688 c 2
 522 580 l 2
 522 574 520 569 517 565 c 2xe8
 194 127 l 2
 192 124 193 121 197 121 c 2
 510 121 l 2
 517 121 522 116 522 109 c 2
 522 12 l 2
 522 5 517 0 510 0 c 2
 47 0 l 2
EndSplineSet
Validated: 1048577
Substitution2: "'c2sc' Capitals to Small Capitals in Latin lookup 19 subtable" zcaron.sc
Substitution2: "'aalt' Access All Alternates in Latin lookup 0 subtable" zcaron.sc
EndChar

StartChar: Zdotaccent
Encoding: 379 379 165
Width: 565
GlyphClass: 2
Flags: MW
HStem: 0 121<197 510 197 510> 579 121<43.5 510 47 358> 758 157<259 304.5>
VStem: 204 157<814 860> 362 160
AnchorPoint: "Anchor-7" 280 700 basechar 0
LayerCount: 2
Fore
SplineSet
282 758 m 0
 236 758 204 791 204 837 c 0
 204 883 236 915 282 915 c 0
 328 915 361 883 361 837 c 0
 361 791 327 758 282 758 c 0
47 0 m 2
 40 0 35 5 35 12 c 2
 35 120 l 2
 35 126 37 131 40 135 c 2
 362 573 l 2
 364 576 362 579 358 579 c 2
 47 579 l 2
 40 579 35 584 35 591 c 2
 35 688 l 2
 35 695 40 700 47 700 c 2
 510 700 l 2
 517 700 522 695 522 688 c 2
 522 580 l 2
 522 574 520 569 517 565 c 2xe8
 194 127 l 2
 192 124 193 121 197 121 c 2
 510 121 l 2
 517 121 522 116 522 109 c 2
 522 12 l 2
 522 5 517 0 510 0 c 2
 47 0 l 2
EndSplineSet
Validated: 1048577
Substitution2: "'c2sc' Capitals to Small Capitals in Latin lookup 19 subtable" zdotaccent.sc
Substitution2: "'aalt' Access All Alternates in Latin lookup 0 subtable" zdotaccent.sc
EndChar

StartChar: uni0122
Encoding: 290 290 166
Width: 608
GlyphClass: 2
Flags: MW
HStem: -182 124<197.5 364 263 286> -8 121<268 338 268 376> 267 116<297.5 545 301 413> 587 121<262.5 335>
VStem: 39 141<238 462 462 466> 418 139<217 239 239 262 262 263.5>
AnchorPoint: "Anchor-7" 298 704 basechar 0
AnchorPoint: "Anchor-6" 298 -8 basechar 0
LayerCount: 2
Fore
SplineSet
298 -8 m 0
 142 -8 39 91 39 238 c 2
 39 462 l 2
 39 610 142 708 298 708 c 0
 454 708 557 609 557 482 c 2
 557 475 l 2
 557 468 552 463 545 463 c 2
 428 463 l 2
 421 463 416 468 416 475 c 2
 416 478 l 2
 416 538 372 587 298 587 c 0
 227 587 180 538 180 466 c 2
 180 234 l 2
 180 162 232 113 304 113 c 0
 372 113 418 151 418 217 c 2
 418 262 l 2
 418 265 416 267 413 267 c 2
 301 267 l 2
 294 267 289 272 289 279 c 2
 289 371 l 2
 289 378 294 383 301 383 c 2
 545 383 l 2
 552 383 557 378 557 371 c 2
 557 239 l 2
 557 85 454 -8 298 -8 c 0
202 -182 m 2
 193 -182 190 -176 194 -168 c 2
 248 -67 l 2
 251 -61 257 -58 263 -58 c 2
 364 -58 l 2
 374 -58 377 -65 372 -73 c 2
 300 -174 l 2
 297 -179 292 -182 286 -182 c 2
 202 -182 l 2
EndSplineSet
Validated: 1048577
EndChar

StartChar: uni0136
Encoding: 310 310 167
Width: 624
GlyphClass: 2
Flags: MW
HStem: -174 124<215.5 381 280 303> 0 21G<74.5 78 78 195 467 470 470 603> 680 20G<78 195 195 198.5 458 590 590 595>
VStem: 66 141<12 211 406 408 408 688>
AnchorPoint: "Anchor-6" 316 0 basechar 0
LayerCount: 2
Fore
SplineSet
78 0 m 2
 71 0 66 5 66 12 c 2
 66 688 l 2
 66 695 71 700 78 700 c 2
 195 700 l 2
 202 700 207 695 207 688 c 2
 207 408 l 2
 207 404 210 403 213 406 c 2
 443 693 l 2
 447 698 452 700 458 700 c 2
 590 700 l 2
 600 700 604 693 598 685 c 2
 376 400 l 2
 374 397 374 395 375 393 c 2
 611 14 l 2
 616 5 612 0 603 0 c 2
 470 0 l 2
 464 0 459 2 456 8 c 2
 279 296 l 2
 277 299 274 299 272 296 c 2
 209 217 l 2
 208 215 207 213 207 211 c 2
 207 12 l 2
 207 5 202 0 195 0 c 2
 78 0 l 2
220 -174 m 2
 211 -174 208 -168 212 -160 c 2
 265 -59 l 2
 268 -53 274 -50 280 -50 c 2
 381 -50 l 2
 391 -50 394 -57 389 -65 c 2
 317 -166 l 2
 314 -171 309 -174 303 -174 c 2
 220 -174 l 2
EndSplineSet
Validated: 1048577
EndChar

StartChar: uni0145
Encoding: 325 325 168
Width: 684
GlyphClass: 2
Flags: MW
HStem: -174 124<236.5 402 302 325> 0 21G<73.5 77 77 194 468 471 471 597> 680 20G<77 204 204 207 480 597 597 600.5>
VStem: 65 141<8.5 688> 468 141<270 688>
AnchorPoint: "Anchor-7" 330 700 basechar 0
AnchorPoint: "Anchor-6" 338 0 basechar 0
LayerCount: 2
Fore
SplineSet
468 688 m 2
 468 695 473 700 480 700 c 2
 597 700 l 2
 604 700 609 695 609 688 c 2
 609 12 l 2
 609 5 604 0 597 0 c 2
 471 0 l 2
 465 0 459 2 456 8 c 2
 211 432 l 2
 209 436 205 435 205 430 c 2
 206 12 l 2
 206 5 201 0 194 0 c 2
 77 0 l 2
 70 0 65 5 65 12 c 2
 65 688 l 2
 65 695 70 700 77 700 c 2
 204 700 l 2
 210 700 216 697 219 692 c 2
 462 268 l 2
 464 264 468 265 468 270 c 2
 468 688 l 2
241 -174 m 2
 232 -174 229 -168 233 -160 c 2
 287 -59 l 2
 290 -53 296 -50 302 -50 c 2
 402 -50 l 2
 412 -50 415 -57 410 -65 c 2
 339 -166 l 2
 336 -171 331 -174 325 -174 c 2
 241 -174 l 2
EndSplineSet
Validated: 1048577
EndChar

StartChar: uni0156
Encoding: 342 342 169
Width: 619
GlyphClass: 2
Flags: MW
HStem: -174 124<203.5 369 269 292> 0 21G<74.5 78 78 195 446 449 449 572> 290 108<210.5 342 212 304> 579 121<210.5 212 212 342>
VStem: 66 141<12 285 401.5 403 403 574> 437 141<461 515>
AnchorPoint: "Anchor-7" 291 700 basechar 0
AnchorPoint: "Anchor-6" 305 0 basechar 0
LayerCount: 2
Fore
SplineSet
449 304 m 0
 446 303 445 300 446 297 c 2
 581 14 l 2
 585 5 581 0 572 0 c 2
 449 0 l 2
 443 0 438 2 435 9 c 2
 310 286 l 2
 309 288 306 290 304 290 c 2
 212 290 l 2
 209 290 207 288 207 285 c 2
 207 12 l 2
 207 5 202 0 195 0 c 2
 78 0 l 2
 71 0 66 5 66 12 c 2
 66 688 l 2
 66 695 71 700 78 700 c 2
 364 700 l 2
 492 700 578 616 578 489 c 0
 578 398 528 331 449 304 c 0
212 579 m 2
 209 579 207 577 207 574 c 2
 207 403 l 2
 207 400 209 398 212 398 c 2
 342 398 l 2
 399 398 437 434 437 488 c 0
 437 542 399 579 342 579 c 2
 212 579 l 2
208 -174 m 2
 199 -174 196 -168 200 -160 c 2
 254 -59 l 2
 257 -53 263 -50 269 -50 c 2
 369 -50 l 2
 379 -50 382 -57 377 -65 c 2
 306 -166 l 2
 303 -171 298 -174 292 -174 c 2
 208 -174 l 2
EndSplineSet
Validated: 1048577
EndChar

StartChar: uni0162
Encoding: 354 354 170
Width: 582
GlyphClass: 2
Flags: MW
HStem: -192.82 80.47 0 21G<216.5 220 220 260 351 355> 578 122<26.5 534 30 203 352.5 354 354 534>
VStem: 208 141<12 573> 329 94.1
AnchorPoint: "Anchor-7" 279 700 basechar 0
AnchorPoint: "Anchor-6" 280 0 basechar 0
LayerCount: 2
Fore
SplineSet
546 590 m 2xf0
 546 583 541 578 534 578 c 2
 354 578 l 2
 351 578 349 576 349 573 c 2
 349 5 l 2
 349 2 350 0 352 0 c 0xf0
 358 0 362 -1 367 -5 c 0
 415 -45 431 -88 420 -129 c 0xe8
 399 -207 307 -198 264 -182 c 0
 257 -180 254 -175 255 -168 c 2
 262 -118 l 2xf0
 263 -109 269 -107 277 -109 c 0
 301 -117 324 -111 329 -90 c 0
 336 -64 310 -32 266 -2 c 0
 264 -1 262 0 260 0 c 2xe8
 220 0 l 2
 213 0 208 5 208 12 c 2
 208 573 l 2
 208 576 206 578 203 578 c 2
 30 578 l 2
 23 578 18 583 18 590 c 2
 18 688 l 2
 18 695 23 700 30 700 c 2
 534 700 l 2
 541 700 546 695 546 688 c 2
 546 590 l 2xf0
EndSplineSet
Validated: 1048609
EndChar

StartChar: uni0218
Encoding: 536 536 171
Width: 574
GlyphClass: 2
Flags: MW
HStem: -182 124<179.5 345 244 268> -8 121<249.5 331 249.5 361> 587 121<234.5 308>
VStem: 18 138<201 208 208 223 182.5 226.5> 28 138<486 535.5 486 571.5> 395 139<478 486 486 493 474.5 512> 398 141<171 216.5>
AnchorPoint: "Anchor-7" 277 700 basechar 0
AnchorPoint: "Anchor-6" 280 -8 basechar 0
LayerCount: 2
Fore
SplineSet
283 -8 m 0xf2
 121 -8 18 74 18 201 c 2
 18 223 l 2
 18 230 23 235 30 235 c 2
 144 235 l 2
 151 235 156 230 156 223 c 2
 156 208 l 2
 156 157 206 113 293 113 c 0
 369 113 398 151 398 191 c 0xf2
 398 242 347 260 251 295 c 0
 147 331 28 378 28 510 c 0
 28 633 128 708 272 708 c 0
 425 708 534 622 534 493 c 2
 534 478 l 2
 534 471 529 466 522 466 c 2
 407 466 l 2
 400 466 395 471 395 478 c 2
 395 486 l 2
 395 538 350 587 266 587 c 0
 203 587 166 559 166 512 c 0xec
 166 460 211 442 322 403 c 0
 412 370 539 331 539 195 c 0
 539 69 439 -8 283 -8 c 0xf2
184 -182 m 2xea
 175 -182 172 -176 176 -168 c 2
 229 -67 l 2
 232 -61 238 -58 244 -58 c 2
 345 -58 l 2
 355 -58 358 -65 353 -73 c 2
 282 -174 l 2
 279 -179 274 -182 268 -182 c 2
 184 -182 l 2xea
EndSplineSet
Validated: 1048577
EndChar

StartChar: uni021A
Encoding: 538 538 172
Width: 582
GlyphClass: 2
Flags: MW
HStem: -174 124<165.5 331 230 254> 0 21G<216.5 220 220 337> 578 122<26.5 534 30 203 352.5 354 354 534>
VStem: 208 141<12 573>
AnchorPoint: "Anchor-7" 279 700 basechar 0
AnchorPoint: "Anchor-6" 280 0 basechar 0
LayerCount: 2
Fore
SplineSet
534 700 m 2
 541 700 546 695 546 688 c 2
 546 590 l 2
 546 583 541 578 534 578 c 2
 354 578 l 2
 351 578 349 576 349 573 c 2
 349 12 l 2
 349 5 344 0 337 0 c 2
 220 0 l 2
 213 0 208 5 208 12 c 2
 208 573 l 2
 208 576 206 578 203 578 c 2
 30 578 l 2
 23 578 18 583 18 590 c 2
 18 688 l 2
 18 695 23 700 30 700 c 2
 534 700 l 2
170 -174 m 2
 161 -174 158 -168 162 -160 c 2
 215 -59 l 2
 218 -53 224 -50 230 -50 c 2
 331 -50 l 2
 341 -50 344 -57 339 -65 c 2
 268 -166 l 2
 265 -171 260 -174 254 -174 c 2
 170 -174 l 2
EndSplineSet
Validated: 1048577
Substitution2: "'c2sc' Capitals to Small Capitals in Latin lookup 19 subtable" uni021B.sc
Substitution2: "'aalt' Access All Alternates in Latin lookup 0 subtable" uni021B.sc
EndChar

StartChar: a
Encoding: 97 97 173
Width: 535
GlyphClass: 2
Flags: MW
HStem: -8 105<219 232> 0 21G<351.5 355 355 472> 220 84<236.5 266 266 338> 401 121<242 289.5>
VStem: 28 142<137 176 137 192.5> 343 141<12 45 45 47 179 215 215 216.5 309 331 331 351>
AnchorPoint: "Anchor-7" 265 518 basechar 0
AnchorPoint: "Anchor-6" 267 0 basechar 0
LayerCount: 2
Fore
SplineSet
260 522 m 0x7c
 392 522 484 448 484 351 c 2
 484 12 l 2
 484 5 479 0 472 0 c 2
 355 0 l 2
 348 0 343 5 343 12 c 2x7c
 343 45 l 2
 343 49 340 51 337 47 c 0
 309 11 263 -8 201 -8 c 0xbc
 103 -8 28 39 28 142 c 0
 28 243 101 304 236 304 c 2
 338 304 l 2
 341 304 343 306 343 309 c 2
 343 331 l 2
 343 374 316 401 263 401 c 0
 221 401 193 385 185 359 c 0
 183 352 179 348 172 349 c 2
 51 365 l 2
 44 366 39 369 40 374 c 0
 49 459 137 522 260 522 c 0x7c
240 97 m 0xbc
 296 97 343 130 343 179 c 2
 343 215 l 2
 343 218 341 220 338 220 c 2
 266 220 l 2
 207 220 170 197 170 155 c 0
 170 119 198 97 240 97 c 0xbc
EndSplineSet
Validated: 1048577
Substitution2: "Single Substitution lookup 25 subtable" ordfeminine
Substitution2: "'smcp' Lowercase to Small Capitals in Latin lookup 20 subtable" a.sc
AlternateSubs2: "'aalt' Access All Alternates in Latin lookup 1 subtable" ordfeminine a.sc
EndChar

